<svg width="26" height="26" viewBox="0 0 26 26" fill="none" xmlns="http://www.w3.org/2000/svg">
<g clip-path="url(#clip0_736_886)">
<path d="M13.0001 0.571434C16.3343 0.571434 19.5319 1.89592 21.8895 4.25352C24.2471 6.61112 25.5716 9.80871 25.5716 13.1429C25.5716 16.477 24.2471 19.6746 21.8895 22.0322C19.5319 24.3898 16.3343 25.7143 13.0001 25.7143C9.66599 25.7143 6.4684 24.3898 4.1108 22.0322C1.7532 19.6746 0.428711 16.477 0.428711 13.1429C0.428711 9.80871 1.7532 6.61112 4.1108 4.25352C6.4684 1.89592 9.66599 0.571434 13.0001 0.571434ZM7.50014 12.3571C7.29176 12.3571 7.09191 12.4399 6.94456 12.5873C6.79721 12.7346 6.71443 12.9345 6.71443 13.1429C6.71443 13.3512 6.79721 13.5511 6.94456 13.6984C7.09191 13.8458 7.29176 13.9286 7.50014 13.9286L16.6034 13.9286L13.2296 17.3009C13.082 17.4484 12.9991 17.6485 12.9991 17.8571C12.9991 18.0658 13.082 18.2659 13.2296 18.4134C13.3771 18.561 13.5772 18.6439 13.7859 18.6439C13.9945 18.6439 14.1946 18.561 14.3421 18.4134L19.0564 13.6991C19.1296 13.6262 19.1876 13.5395 19.2273 13.444C19.2669 13.3485 19.2873 13.2462 19.2873 13.1429C19.2873 13.0395 19.2669 12.9372 19.2273 12.8417C19.1876 12.7463 19.1296 12.6596 19.0564 12.5866L14.3421 7.87229C14.1946 7.72475 13.9945 7.64187 13.7859 7.64187C13.5772 7.64187 13.3771 7.72475 13.2296 7.87229C13.082 8.01983 12.9991 8.21993 12.9991 8.42858C12.9991 8.63722 13.082 8.83733 13.2296 8.98486L16.6034 12.3571L7.50014 12.3571Z" fill="#699BF7"/>
</g>
<defs>
<clipPath id="clip0_736_886">
<rect x="25.5713" y="25.7143" width="25.1429" height="25.1429" rx="12.5714" transform="rotate(-180 25.5713 25.7143)" fill="white"/>
</clipPath>
</defs>
</svg>
