<svg width="62" height="62" viewBox="0 0 62 62" fill="none" xmlns="http://www.w3.org/2000/svg">
<path d="M30.9996 58.5556C26.4319 58.5556 22.0514 56.7411 18.8216 53.5113C15.5918 50.2815 13.7773 45.9009 13.7773 41.3333V20.6667C13.7773 16.099 15.5918 11.7185 18.8216 8.48871C22.0514 5.25892 26.4319 3.44444 30.9996 3.44444C35.5672 3.44444 39.9477 5.25892 43.1775 8.48871C46.4073 11.7185 48.2218 16.099 48.2218 20.6667V41.3333C48.2218 43.595 47.7763 45.8345 46.9108 47.924C46.0453 50.0135 44.7767 51.912 43.1775 53.5113C41.5783 55.1105 39.6797 56.3791 37.5902 57.2446C35.5007 58.1101 33.2612 58.5556 30.9996 58.5556ZM30.9996 6.88889C27.3455 6.88889 23.841 8.34047 21.2572 10.9243C18.6734 13.5081 17.2218 17.0126 17.2218 20.6667V41.3333C17.2218 44.9874 18.6734 48.4919 21.2572 51.0757C23.841 53.6595 27.3455 55.1111 30.9996 55.1111C34.6537 55.1111 38.1581 53.6595 40.7419 51.0757C43.3258 48.4919 44.7773 44.9874 44.7773 41.3333V20.6667C44.7773 17.0126 43.3258 13.5081 40.7419 10.9243C38.1581 8.34047 34.6537 6.88889 30.9996 6.88889Z" fill="#699BF7"/>
<path d="M30.9996 25.8333C30.5428 25.8333 30.1047 25.6519 29.7818 25.3289C29.4588 25.0059 29.2773 24.5679 29.2773 24.1111V17.2222C29.2773 16.7655 29.4588 16.3274 29.7818 16.0044C30.1047 15.6814 30.5428 15.5 30.9996 15.5C31.4563 15.5 31.8944 15.6814 32.2174 16.0044C32.5403 16.3274 32.7218 16.7655 32.7218 17.2222V24.1111C32.7218 24.5679 32.5403 25.0059 32.2174 25.3289C31.8944 25.6519 31.4563 25.8333 30.9996 25.8333Z" fill="#699BF7"/>
</svg>
