<svg width="385" height="121" viewBox="0 0 385 121" fill="none" xmlns="http://www.w3.org/2000/svg">
<g filter="url(#filter0_d_711_4786)">
<path d="M31.5 87.6H54.75V105H10.5V7.95H54.75V25.05H31.5V47.85H53.25V64.35H31.5V87.6ZM106.046 7.95H126.296L106.196 105H82.0465L61.9465 7.95H82.3465L94.1965 78.75L106.046 7.95ZM157.623 87.6H180.873V105H136.623V7.95H180.873V25.05H157.623V47.85H179.373V64.35H157.623V87.6ZM248.67 105H227.67V24.45C227.67 23.65 227.37 22.95 226.77 22.35C226.27 21.75 225.62 21.45 224.82 21.45H216.72C215.92 21.45 215.22 21.75 214.62 22.35C214.12 22.95 213.87 23.65 213.87 24.45V105H192.87V26.25C192.87 13.05 199.07 6.45 211.47 6.45H230.07C242.47 6.45 248.67 13.05 248.67 26.25V105ZM257.196 25.8V7.95H309.696V25.8H293.946V105H272.946V25.8H257.196ZM373.139 33.45H353.189V25.8C353.189 25 352.889 24.3 352.289 23.7C351.789 23.1 351.139 22.8 350.339 22.8H342.089C341.289 22.8 340.589 23.1 339.989 23.7C339.489 24.3 339.239 25 339.239 25.8V43.05C339.239 43.85 339.489 44.55 339.989 45.15C340.589 45.75 341.289 46.05 342.089 46.05H355.589C367.989 46.25 374.189 52.85 374.189 65.85V86.7C374.189 99.9 367.989 106.5 355.589 106.5H337.889C325.489 106.5 319.289 99.9 319.289 86.7V76.65H339.239V87.45C339.239 88.25 339.489 88.95 339.989 89.55C340.589 90.15 341.289 90.45 342.089 90.45H351.389C352.189 90.45 352.839 90.15 353.339 89.55C353.939 88.95 354.239 88.25 354.239 87.45V68.4C354.239 67.6 353.939 66.9 353.339 66.3C352.839 65.7 352.189 65.4 351.389 65.4H337.889C325.489 65.4 319.289 58.8 319.289 45.6V26.25C319.289 13.05 325.489 6.45 337.889 6.45H354.539C366.939 6.45 373.139 13.05 373.139 26.25V33.45Z" fill="url(#paint0_linear_711_4786)"/>
<path d="M31.5 87.6H27.5V91.6H31.5V87.6ZM54.75 87.6H58.75V83.6H54.75V87.6ZM54.75 105V109H58.75V105H54.75ZM10.5 105H6.5V109H10.5V105ZM10.5 7.95V3.95H6.5V7.95H10.5ZM54.75 7.95H58.75V3.95H54.75V7.95ZM54.75 25.05V29.05H58.75V25.05H54.75ZM31.5 25.05V21.05H27.5V25.05H31.5ZM31.5 47.85H27.5V51.85H31.5V47.85ZM53.25 47.85H57.25V43.85H53.25V47.85ZM53.25 64.35V68.35H57.25V64.35H53.25ZM31.5 64.35V60.35H27.5V64.35H31.5ZM31.5 91.6H54.75V83.6H31.5V91.6ZM50.75 87.6V105H58.75V87.6H50.75ZM54.75 101H10.5V109H54.75V101ZM14.5 105V7.95H6.5V105H14.5ZM10.5 11.95H54.75V3.95H10.5V11.95ZM50.75 7.95V25.05H58.75V7.95H50.75ZM54.75 21.05H31.5V29.05H54.75V21.05ZM27.5 25.05V47.85H35.5V25.05H27.5ZM31.5 51.85H53.25V43.85H31.5V51.85ZM49.25 47.85V64.35H57.25V47.85H49.25ZM53.25 60.35H31.5V68.35H53.25V60.35ZM27.5 64.35V87.6H35.5V64.35H27.5ZM106.046 7.95V3.95H102.66L102.101 7.28969L106.046 7.95ZM126.296 7.95L130.213 8.76122L131.21 3.95H126.296V7.95ZM106.196 105V109H109.453L110.113 105.811L106.196 105ZM82.0465 105L78.1296 105.811L78.79 109H82.0465V105ZM61.9465 7.95V3.95H57.0332L58.0296 8.76122L61.9465 7.95ZM82.3465 7.95L86.2916 7.28969L85.7326 3.95H82.3465V7.95ZM94.1965 78.75L90.2514 79.4103H98.1416L94.1965 78.75ZM106.046 11.95H126.296V3.95H106.046V11.95ZM122.38 7.13877L102.28 104.189L110.113 105.811L130.213 8.76122L122.38 7.13877ZM106.196 101H82.0465V109H106.196V101ZM85.9634 104.189L65.8634 7.13877L58.0296 8.76122L78.1296 105.811L85.9634 104.189ZM61.9465 11.95H82.3465V3.95H61.9465V11.95ZM78.4014 8.61031L90.2514 79.4103L98.1416 78.0897L86.2916 7.28969L78.4014 8.61031ZM98.1416 79.4103L109.992 8.61031L102.101 7.28969L90.2514 78.0897L98.1416 79.4103ZM157.623 87.6H153.623V91.6H157.623V87.6ZM180.873 87.6H184.873V83.6H180.873V87.6ZM180.873 105V109H184.873V105H180.873ZM136.623 105H132.623V109H136.623V105ZM136.623 7.95V3.95H132.623V7.95H136.623ZM180.873 7.95H184.873V3.95H180.873V7.95ZM180.873 25.05V29.05H184.873V25.05H180.873ZM157.623 25.05V21.05H153.623V25.05H157.623ZM157.623 47.85H153.623V51.85H157.623V47.85ZM179.373 47.85H183.373V43.85H179.373V47.85ZM179.373 64.35V68.35H183.373V64.35H179.373ZM157.623 64.35V60.35H153.623V64.35H157.623ZM157.623 91.6H180.873V83.6H157.623V91.6ZM176.873 87.6V105H184.873V87.6H176.873ZM180.873 101H136.623V109H180.873V101ZM140.623 105V7.95H132.623V105H140.623ZM136.623 11.95H180.873V3.95H136.623V11.95ZM176.873 7.95V25.05H184.873V7.95H176.873ZM180.873 21.05H157.623V29.05H180.873V21.05ZM153.623 25.05V47.85H161.623V25.05H153.623ZM157.623 51.85H179.373V43.85H157.623V51.85ZM175.373 47.85V64.35H183.373V47.85H175.373ZM179.373 60.35H157.623V68.35H179.373V60.35ZM153.623 64.35V87.6H161.623V64.35H153.623ZM248.67 105V109H252.67V105H248.67ZM227.67 105H223.67V109H227.67V105ZM226.77 22.35L223.697 24.9107L223.813 25.0501L223.941 25.1784L226.77 22.35ZM214.62 22.35L211.791 19.5216L211.663 19.6499L211.547 19.7893L214.62 22.35ZM213.87 105V109H217.87V105H213.87ZM192.87 105H188.87V109H192.87V105ZM248.67 101H227.67V109H248.67V101ZM231.67 105V24.45H223.67V105H231.67ZM231.67 24.45C231.67 22.5198 230.898 20.8212 229.598 19.5216L223.941 25.1784C223.922 25.1596 223.84 25.0689 223.768 24.9007C223.694 24.7278 223.67 24.5639 223.67 24.45H231.67ZM229.842 19.7893C228.561 18.252 226.773 17.45 224.82 17.45V25.45C224.709 25.45 224.49 25.4265 224.231 25.3068C223.969 25.1859 223.792 25.0249 223.697 24.9107L229.842 19.7893ZM224.82 17.45H216.72V25.45H224.82V17.45ZM216.72 17.45C214.789 17.45 213.091 18.2219 211.791 19.5216L217.448 25.1784C217.429 25.1972 217.338 25.2795 217.17 25.3516C216.997 25.4257 216.833 25.45 216.72 25.45V17.45ZM211.547 19.7893C210.432 21.1269 209.87 22.739 209.87 24.45H217.87C217.87 24.4734 217.865 24.5567 217.824 24.6703C217.783 24.7853 217.728 24.8681 217.692 24.9107L211.547 19.7893ZM209.87 24.45V105H217.87V24.45H209.87ZM213.87 101H192.87V109H213.87V101ZM196.87 105V26.25H188.87V105H196.87ZM196.87 26.25C196.87 20.2065 198.294 16.4181 200.435 14.1387C202.532 11.9063 205.952 10.45 211.47 10.45V2.45C204.587 2.45 198.707 4.29367 194.604 8.6613C190.545 12.9819 188.87 19.0935 188.87 26.25H196.87ZM211.47 10.45H230.07V2.45H211.47V10.45ZM230.07 10.45C235.587 10.45 239.007 11.9063 241.104 14.1387C243.245 16.4181 244.67 20.2065 244.67 26.25H252.67C252.67 19.0935 250.994 12.9819 246.935 8.6613C242.832 4.29367 236.952 2.45 230.07 2.45V10.45ZM244.67 26.25V105H252.67V26.25H244.67ZM257.196 25.8H253.196V29.8H257.196V25.8ZM257.196 7.95V3.95H253.196V7.95H257.196ZM309.696 7.95H313.696V3.95H309.696V7.95ZM309.696 25.8V29.8H313.696V25.8H309.696ZM293.946 25.8V21.8H289.946V25.8H293.946ZM293.946 105V109H297.946V105H293.946ZM272.946 105H268.946V109H272.946V105ZM272.946 25.8H276.946V21.8H272.946V25.8ZM261.196 25.8V7.95H253.196V25.8H261.196ZM257.196 11.95H309.696V3.95H257.196V11.95ZM305.696 7.95V25.8H313.696V7.95H305.696ZM309.696 21.8H293.946V29.8H309.696V21.8ZM289.946 25.8V105H297.946V25.8H289.946ZM293.946 101H272.946V109H293.946V101ZM276.946 105V25.8H268.946V105H276.946ZM272.946 21.8H257.196V29.8H272.946V21.8ZM373.139 33.45V37.45H377.139V33.45H373.139ZM353.189 33.45H349.189V37.45H353.189V33.45ZM352.289 23.7L349.216 26.2607L349.332 26.4001L349.461 26.5284L352.289 23.7ZM339.989 23.7L337.161 20.8716L337.032 20.9999L336.916 21.1393L339.989 23.7ZM339.989 45.15L336.916 47.7107L337.032 47.8501L337.161 47.9784L339.989 45.15ZM355.589 46.05L355.654 42.0505L355.621 42.05H355.589V46.05ZM319.289 76.65V72.65H315.289V76.65H319.289ZM339.239 76.65H343.239V72.65H339.239V76.65ZM339.989 89.55L336.916 92.1107L337.032 92.2501L337.161 92.3784L339.989 89.55ZM353.339 89.55L350.511 86.7216L350.382 86.8499L350.266 86.9893L353.339 89.55ZM353.339 66.3L350.266 68.8607L350.382 69.0001L350.511 69.1284L353.339 66.3ZM373.139 29.45H353.189V37.45H373.139V29.45ZM357.189 33.45V25.8H349.189V33.45H357.189ZM357.189 25.8C357.189 23.8698 356.417 22.1712 355.117 20.8716L349.461 26.5284C349.442 26.5096 349.36 26.4189 349.287 26.2507C349.213 26.0778 349.189 25.9139 349.189 25.8H357.189ZM355.362 21.1393C354.081 19.602 352.293 18.8 350.339 18.8V26.8C350.229 26.8 350.01 26.7765 349.75 26.6568C349.488 26.5359 349.311 26.3749 349.216 26.2607L355.362 21.1393ZM350.339 18.8H342.089V26.8H350.339V18.8ZM342.089 18.8C340.159 18.8 338.46 19.5719 337.161 20.8716L342.817 26.5284C342.799 26.5472 342.708 26.6295 342.54 26.7016C342.367 26.7757 342.203 26.8 342.089 26.8V18.8ZM336.916 21.1393C335.801 22.4769 335.239 24.0891 335.239 25.8H343.239C343.239 25.8234 343.234 25.9067 343.194 26.0203C343.152 26.1353 343.098 26.2181 343.062 26.2607L336.916 21.1393ZM335.239 25.8V43.05H343.239V25.8H335.239ZM335.239 43.05C335.239 44.7609 335.801 46.3731 336.916 47.7107L343.062 42.5893C343.098 42.6319 343.152 42.7147 343.194 42.8297C343.234 42.9433 343.239 43.0266 343.239 43.05H335.239ZM337.161 47.9784C338.46 49.2781 340.159 50.05 342.089 50.05V42.05C342.203 42.05 342.367 42.0743 342.54 42.1484C342.708 42.2205 342.799 42.3028 342.818 42.3216L337.161 47.9784ZM342.089 50.05H355.589V42.05H342.089V50.05ZM355.525 50.0495C361.054 50.1387 364.505 51.6334 366.624 53.8887C368.774 56.178 370.189 59.9261 370.189 65.85H378.189C378.189 58.7739 376.504 52.722 372.454 48.4113C368.373 44.0666 362.524 42.1613 355.654 42.0505L355.525 50.0495ZM370.189 65.85V86.7H378.189V65.85H370.189ZM370.189 86.7C370.189 92.7435 368.765 96.5319 366.624 98.8113C364.527 101.044 361.106 102.5 355.589 102.5V110.5C362.472 110.5 368.352 108.656 372.454 104.289C376.513 99.9681 378.189 93.8565 378.189 86.7H370.189ZM355.589 102.5H337.889V110.5H355.589V102.5ZM337.889 102.5C332.372 102.5 328.952 101.044 326.854 98.8113C324.713 96.5319 323.289 92.7435 323.289 86.7H315.289C315.289 93.8565 316.965 99.9681 321.024 104.289C325.127 108.656 331.006 110.5 337.889 110.5V102.5ZM323.289 86.7V76.65H315.289V86.7H323.289ZM319.289 80.65H339.239V72.65H319.289V80.65ZM335.239 76.65V87.45H343.239V76.65H335.239ZM335.239 87.45C335.239 89.1609 335.801 90.7731 336.916 92.1107L343.062 86.9893C343.098 87.0319 343.152 87.1147 343.194 87.2297C343.234 87.3433 343.239 87.4266 343.239 87.45H335.239ZM337.161 92.3784C338.46 93.6781 340.159 94.45 342.089 94.45V86.45C342.203 86.45 342.367 86.4743 342.54 86.5484C342.708 86.6205 342.799 86.7028 342.818 86.7216L337.161 92.3784ZM342.089 94.45H351.389V86.45H342.089V94.45ZM351.389 94.45C353.343 94.45 355.131 93.648 356.412 92.1107L350.266 86.9893C350.361 86.8751 350.538 86.7141 350.8 86.5932C351.06 86.4735 351.279 86.45 351.389 86.45V94.45ZM356.167 92.3784C357.467 91.0788 358.239 89.3802 358.239 87.45H350.239C350.239 87.3361 350.263 87.1722 350.337 86.9993C350.41 86.8311 350.492 86.7404 350.511 86.7216L356.167 92.3784ZM358.239 87.45V68.4H350.239V87.45H358.239ZM358.239 68.4C358.239 66.4698 357.467 64.7712 356.167 63.4716L350.511 69.1284C350.492 69.1096 350.41 69.0189 350.337 68.8507C350.263 68.6778 350.239 68.5139 350.239 68.4H358.239ZM356.412 63.7393C355.131 62.202 353.343 61.4 351.389 61.4V69.4C351.279 69.4 351.06 69.3765 350.8 69.2568C350.538 69.1359 350.361 68.9749 350.266 68.8607L356.412 63.7393ZM351.389 61.4H337.889V69.4H351.389V61.4ZM337.889 61.4C332.372 61.4 328.952 59.9437 326.854 57.7113C324.713 55.4319 323.289 51.6435 323.289 45.6H315.289C315.289 52.7565 316.965 58.8681 321.024 63.1887C325.127 67.5563 331.006 69.4 337.889 69.4V61.4ZM323.289 45.6V26.25H315.289V45.6H323.289ZM323.289 26.25C323.289 20.2065 324.713 16.4181 326.854 14.1387C328.952 11.9063 332.372 10.45 337.889 10.45V2.45C331.006 2.45 325.127 4.29367 321.024 8.6613C316.965 12.9819 315.289 19.0935 315.289 26.25H323.289ZM337.889 10.45H354.539V2.45H337.889V10.45ZM354.539 10.45C360.056 10.45 363.477 11.9063 365.574 14.1387C367.715 16.4181 369.139 20.2065 369.139 26.25H377.139C377.139 19.0935 375.463 12.9819 371.404 8.6613C367.302 4.29367 361.422 2.45 354.539 2.45V10.45ZM369.139 26.25V33.45H377.139V26.25H369.139Z" fill="white"/>
</g>
<defs>
<filter id="filter0_d_711_4786" x="0.5" y="0.449997" width="383.689" height="120.05" filterUnits="userSpaceOnUse" color-interpolation-filters="sRGB">
<feFlood flood-opacity="0" result="BackgroundImageFix"/>
<feColorMatrix in="SourceAlpha" type="matrix" values="0 0 0 0 0 0 0 0 0 0 0 0 0 0 0 0 0 0 127 0" result="hardAlpha"/>
<feOffset dy="4"/>
<feGaussianBlur stdDeviation="5"/>
<feComposite in2="hardAlpha" operator="out"/>
<feColorMatrix type="matrix" values="0 0 0 0 0 0 0 0 0 0 0 0 0 0 0 0 0 0 0.3 0"/>
<feBlend mode="normal" in2="BackgroundImageFix" result="effect1_dropShadow_711_4786"/>
<feBlend mode="normal" in="SourceGraphic" in2="effect1_dropShadow_711_4786" result="shape"/>
</filter>
<linearGradient id="paint0_linear_711_4786" x1="609.412" y1="178.257" x2="-10.1525" y2="323.103" gradientUnits="userSpaceOnUse">
<stop offset="0.0489542" stop-color="#B874F1"/>
<stop offset="0.5" stop-color="#DCB1FF"/>
<stop offset="1" stop-color="#F58220"/>
</linearGradient>
</defs>
</svg>
