<svg width="42" height="42" viewBox="0 0 42 42" fill="none" xmlns="http://www.w3.org/2000/svg">
<path d="M18.9741 30.947C21.6309 30.9464 24.211 30.0571 26.3038 28.4206L32.8836 35L35 32.8837L28.4202 26.3043C30.0577 24.2114 30.9476 21.6308 30.9483 18.9735C30.9483 12.3716 25.5764 7 18.9741 7C12.3719 7 7 12.3716 7 18.9735C7 25.5754 12.3719 30.947 18.9741 30.947ZM18.9741 9.99337C23.9269 9.99337 27.9547 14.021 27.9547 18.9735C27.9547 23.926 23.9269 27.9536 18.9741 27.9536C14.0213 27.9536 9.99353 23.926 9.99353 18.9735C9.99353 14.021 14.0213 9.99337 18.9741 9.99337Z" fill="#56CCF2"/>
</svg>
