<svg width="32" height="31" viewBox="0 0 32 31" fill="none" xmlns="http://www.w3.org/2000/svg">
<path d="M30.6255 5.37336L16.3755 0.623361C16.1318 0.542172 15.8682 0.542172 15.6245 0.623361L1.39731 5.36594L1.39583 5.36638L1.37445 5.37351C1.3703 5.37499 1.36659 5.37722 1.36258 5.3787C1.31109 5.39637 1.2609 5.4176 1.21236 5.44224C1.20687 5.4452 1.20108 5.44743 1.19559 5.4504C1.14759 5.47604 1.10141 5.50495 1.05739 5.53694C1.04774 5.54392 1.03818 5.55105 1.02874 5.55831C0.985852 5.59073 0.945187 5.62599 0.907023 5.66385C0.903609 5.66756 0.900492 5.67142 0.897078 5.67499C0.861934 5.7116 0.829161 5.75042 0.798961 5.79121C0.792727 5.79952 0.786344 5.80754 0.780406 5.816C0.749242 5.86005 0.721122 5.90617 0.696242 5.95405C0.692383 5.96147 0.689117 5.96889 0.685406 5.97631C0.662186 6.02327 0.642103 6.07172 0.625289 6.12134C0.623805 6.12594 0.621727 6.13039 0.620242 6.13514C0.60348 6.18785 0.590435 6.24167 0.581203 6.2962C0.579273 6.30763 0.577641 6.31906 0.576008 6.33034C0.567467 6.3865 0.562953 6.4432 0.5625 6.5V18.375C0.5625 18.6899 0.687611 18.992 0.910311 19.2147C1.13301 19.4374 1.43506 19.5625 1.75 19.5625C2.06494 19.5625 2.36699 19.4374 2.58969 19.2147C2.81239 18.992 2.9375 18.6899 2.9375 18.375V8.14766L7.92277 9.80942C6.6012 11.9434 6.17832 14.5139 6.74659 16.9588C7.31487 19.4038 8.82807 21.5242 10.9554 22.8566C8.12264 23.9277 5.70544 25.8745 4.05523 28.4138C3.96793 28.5444 3.90741 28.6911 3.87717 28.8452C3.84693 28.9994 3.84758 29.158 3.87908 29.3119C3.91058 29.4658 3.97231 29.6119 4.06068 29.7418C4.14905 29.8717 4.26231 29.9827 4.3939 30.0685C4.52549 30.1543 4.6728 30.2132 4.82729 30.2416C4.98179 30.2701 5.14039 30.2676 5.29392 30.2344C5.44745 30.2011 5.59285 30.1377 5.72171 30.0478C5.85057 29.958 5.96031 29.8434 6.04459 29.7109C7.12343 28.0535 8.599 26.6917 10.3374 25.749C12.0759 24.8063 14.0222 24.3125 15.9998 24.3125C17.9774 24.3125 19.9237 24.8063 21.6621 25.749C23.4006 26.6917 24.8761 28.0535 25.955 29.7109C26.0397 29.8424 26.1496 29.9559 26.2784 30.0448C26.4072 30.1337 26.5522 30.1962 26.7052 30.2289C26.8583 30.2615 27.0162 30.2636 27.1701 30.235C27.3239 30.2065 27.4706 30.1478 27.6016 30.0623C27.7327 29.9769 27.8456 29.8663 27.9338 29.7371C28.022 29.6079 28.0839 29.4625 28.1157 29.3093C28.1476 29.1561 28.1488 28.9982 28.1195 28.8445C28.0901 28.6908 28.0306 28.5445 27.9445 28.4138C26.2943 25.8746 23.8771 23.9279 21.0445 22.8568C23.1718 21.5244 24.685 19.4039 25.2533 16.9589C25.8216 14.514 25.3987 11.9434 24.0771 9.80942L30.6255 7.62664C30.862 7.54786 31.0678 7.39666 31.2135 7.19445C31.3593 6.99224 31.4378 6.74928 31.4378 6.5C31.4378 6.25072 31.3593 6.00777 31.2135 5.80556C31.0678 5.60335 30.862 5.45214 30.6255 5.37336ZM23.125 14.8125C23.1253 15.9389 22.8585 17.0493 22.3465 18.0527C21.8346 19.056 21.092 19.9237 20.1798 20.5845C19.2676 21.2453 18.2117 21.6804 17.0988 21.8541C15.9859 22.0278 14.8476 21.9352 13.7774 21.5838C12.7072 21.2324 11.7355 20.6323 10.9422 19.8327C10.1488 19.0331 9.55633 18.0568 9.21334 16.9839C8.87035 15.911 8.78663 14.772 8.96905 13.6605C9.15147 12.5489 9.59482 11.4965 10.2627 10.5895L15.6245 12.3766C15.8682 12.4578 16.1318 12.4578 16.3755 12.3766L21.7373 10.5895C22.6397 11.8124 23.1261 13.2926 23.125 14.8125ZM21.7448 8.08338C21.7419 8.08442 21.7389 8.08517 21.7359 8.08635L16 9.99823L10.2639 8.08635C10.261 8.08517 10.258 8.08428 10.255 8.08338L5.50532 6.5L16 3.00178L26.4948 6.5L21.7448 8.08338Z" fill="white"/>
</svg>
