<svg width="34" height="34" viewBox="0 0 34 34" fill="none" xmlns="http://www.w3.org/2000/svg">
<path d="M16.7029 0.00302658C8.56801 -0.163004 0.977014 6.52402 0.13082 14.6222C-0.763412 21.4711 2.99669 28.6952 9.26965 31.68C15.193 34.6565 22.8739 33.7601 27.7864 29.243C32.7473 24.8921 34.82 17.4886 32.5249 11.253C30.4147 5.10695 24.5129 0.426033 17.9851 0.0516252C17.5585 0.0201536 17.1307 0.00266517 16.7029 0.00266517L16.7029 0.00302658ZM16.5135 1.80537C23.973 1.52447 30.9838 7.74464 31.5684 15.1931C32.2863 21.7622 28.1531 28.5676 21.8633 30.7325C15.7491 32.9933 8.24383 30.7954 4.55105 25.3571C0.76094 20.0481 0.91147 12.2116 5.21192 7.2309C7.96438 3.91554 12.1876 1.82146 16.5135 1.80538V1.80537ZM16.8097 3.42993C9.90922 3.21039 3.56074 9.2687 3.43609 16.1695C3.1319 22.4054 7.75359 28.5251 13.9276 29.7129C19.6482 30.9651 26.0401 28.0262 28.5924 22.7052C31.2321 17.5085 30.0515 10.5928 25.5478 6.79671C23.1614 4.68289 20.0049 3.43344 16.8097 3.42993ZM16.7285 5.20134C22.8117 5.04052 28.3519 10.5148 28.2543 16.6039C28.3618 22.2329 23.8313 27.5828 18.1794 28.1503C12.8731 28.8471 7.27825 25.4445 5.75265 20.2533C4.15352 15.3074 6.2545 9.35033 10.863 6.80371C12.63 5.76279 14.6768 5.19802 16.7285 5.20134ZM16.7345 9.30801C14.986 14.1739 13.8761 19.2421 12.1276 24.108C13.7317 22.5133 15.1304 20.7267 16.7345 19.132L21.3414 24.108C19.7766 19.1839 18.2994 14.2322 16.7345 9.30803V9.30801Z" fill="white"/>
</svg>
