<svg width="633" height="192" viewBox="0 0 633 192" fill="none" xmlns="http://www.w3.org/2000/svg">
<path d="M0 169.523C60 83.023 99 85.023 115 92.023C123.891 95.9126 138.647 124.966 154.295 150.617L229.944 141.348C242.502 116.649 254.991 92.023 267 92.023C278.055 92.023 290.361 114.164 306.37 131.984L632.5 92.023C548.833 112.69 374.1 154.023 344.5 154.023C329.611 154.023 317.151 143.983 306.37 131.984L229.944 141.348C216.882 167.039 203.746 192.808 191 191.023C179.891 189.468 166.808 171.13 154.295 150.617L0 169.523Z" fill="#EB5757"/>
<path d="M53.9 98.9H76.9V110H39.9V40.2H53.9V98.9ZM89.3484 80.75V89.5H101.098V95.05H89.3484V104.3H102.598V110H82.3484V75.05H102.598V80.75H89.3484ZM132.71 75.1V80.75H123.41V110H116.41V80.75H107.11V75.1H132.71ZM139.217 75.1H146.567L141.167 87.7H136.367L139.217 75.1ZM163.637 110.35C161.203 110.35 159.003 109.933 157.037 109.1C155.103 108.267 153.57 107.067 152.437 105.5C151.303 103.933 150.72 102.083 150.687 99.95H158.187C158.287 101.383 158.787 102.517 159.687 103.35C160.62 104.183 161.887 104.6 163.487 104.6C165.12 104.6 166.403 104.217 167.337 103.45C168.27 102.65 168.737 101.617 168.737 100.35C168.737 99.3167 168.42 98.4667 167.787 97.8C167.153 97.1333 166.353 96.6167 165.387 96.25C164.453 95.85 163.153 95.4167 161.487 94.95C159.22 94.2833 157.37 93.6333 155.937 93C154.537 92.3333 153.32 91.35 152.287 90.05C151.287 88.7167 150.787 86.95 150.787 84.75C150.787 82.6833 151.303 80.8833 152.337 79.35C153.37 77.8167 154.82 76.65 156.687 75.85C158.553 75.0167 160.687 74.6 163.087 74.6C166.687 74.6 169.603 75.4833 171.837 77.25C174.103 78.9833 175.353 81.4167 175.587 84.55H167.887C167.82 83.35 167.303 82.3667 166.337 81.6C165.403 80.8 164.153 80.4 162.587 80.4C161.22 80.4 160.12 80.75 159.287 81.45C158.487 82.15 158.087 83.1667 158.087 84.5C158.087 85.4333 158.387 86.2167 158.987 86.85C159.62 87.45 160.387 87.95 161.287 88.35C162.22 88.7167 163.52 89.15 165.187 89.65C167.453 90.3167 169.303 90.9833 170.737 91.65C172.17 92.3167 173.403 93.3167 174.437 94.65C175.47 95.9833 175.987 97.7333 175.987 99.9C175.987 101.767 175.503 103.5 174.537 105.1C173.57 106.7 172.153 107.983 170.287 108.95C168.42 109.883 166.203 110.35 163.637 110.35Z" fill="#EB7B57"/>
<path d="M53.9 98.9H52.9V99.9H53.9V98.9ZM76.9 98.9H77.9V97.9H76.9V98.9ZM76.9 110V111H77.9V110H76.9ZM39.9 110H38.9V111H39.9V110ZM39.9 40.2V39.2H38.9V40.2H39.9ZM53.9 40.2H54.9V39.2H53.9V40.2ZM53.9 99.9H76.9V97.9H53.9V99.9ZM75.9 98.9V110H77.9V98.9H75.9ZM76.9 109H39.9V111H76.9V109ZM40.9 110V40.2H38.9V110H40.9ZM39.9 41.2H53.9V39.2H39.9V41.2ZM52.9 40.2V98.9H54.9V40.2H52.9ZM89.3484 80.75V79.75H88.3484V80.75H89.3484ZM89.3484 89.5H88.3484V90.5H89.3484V89.5ZM101.098 89.5H102.098V88.5H101.098V89.5ZM101.098 95.05V96.05H102.098V95.05H101.098ZM89.3484 95.05V94.05H88.3484V95.05H89.3484ZM89.3484 104.3H88.3484V105.3H89.3484V104.3ZM102.598 104.3H103.598V103.3H102.598V104.3ZM102.598 110V111H103.598V110H102.598ZM82.3484 110H81.3484V111H82.3484V110ZM82.3484 75.05V74.05H81.3484V75.05H82.3484ZM102.598 75.05H103.598V74.05H102.598V75.05ZM102.598 80.75V81.75H103.598V80.75H102.598ZM88.3484 80.75V89.5H90.3484V80.75H88.3484ZM89.3484 90.5H101.098V88.5H89.3484V90.5ZM100.098 89.5V95.05H102.098V89.5H100.098ZM101.098 94.05H89.3484V96.05H101.098V94.05ZM88.3484 95.05V104.3H90.3484V95.05H88.3484ZM89.3484 105.3H102.598V103.3H89.3484V105.3ZM101.598 104.3V110H103.598V104.3H101.598ZM102.598 109H82.3484V111H102.598V109ZM83.3484 110V75.05H81.3484V110H83.3484ZM82.3484 76.05H102.598V74.05H82.3484V76.05ZM101.598 75.05V80.75H103.598V75.05H101.598ZM102.598 79.75H89.3484V81.75H102.598V79.75ZM132.71 75.1H133.71V74.1H132.71V75.1ZM132.71 80.75V81.75H133.71V80.75H132.71ZM123.41 80.75V79.75H122.41V80.75H123.41ZM123.41 110V111H124.41V110H123.41ZM116.41 110H115.41V111H116.41V110ZM116.41 80.75H117.41V79.75H116.41V80.75ZM107.11 80.75H106.11V81.75H107.11V80.75ZM107.11 75.1V74.1H106.11V75.1H107.11ZM131.71 75.1V80.75H133.71V75.1H131.71ZM132.71 79.75H123.41V81.75H132.71V79.75ZM122.41 80.75V110H124.41V80.75H122.41ZM123.41 109H116.41V111H123.41V109ZM117.41 110V80.75H115.41V110H117.41ZM116.41 79.75H107.11V81.75H116.41V79.75ZM108.11 80.75V75.1H106.11V80.75H108.11ZM107.11 76.1H132.71V74.1H107.11V76.1ZM139.217 75.1V74.1H138.418L138.242 74.8794L139.217 75.1ZM146.567 75.1L147.486 75.4939L148.084 74.1H146.567V75.1ZM141.167 87.7V88.7H141.827L142.086 88.0939L141.167 87.7ZM136.367 87.7L135.392 87.4794L135.116 88.7H136.367V87.7ZM139.217 76.1H146.567V74.1H139.217V76.1ZM145.648 74.7061L140.248 87.3061L142.086 88.0939L147.486 75.4939L145.648 74.7061ZM141.167 86.7H136.367V88.7H141.167V86.7ZM137.343 87.9206L140.193 75.3206L138.242 74.8794L135.392 87.4794L137.343 87.9206ZM157.037 109.1L156.641 110.018L156.647 110.021L157.037 109.1ZM152.437 105.5L151.626 106.086L152.437 105.5ZM150.687 99.95V98.95H149.671L149.687 99.9656L150.687 99.95ZM158.187 99.95L159.184 99.8804L159.119 98.95H158.187V99.95ZM159.687 103.35L159.007 104.084L159.014 104.09L159.021 104.096L159.687 103.35ZM167.337 103.45L167.971 104.223L167.98 104.216L167.988 104.209L167.337 103.45ZM167.787 97.8L167.062 98.4887L167.787 97.8ZM165.387 96.25L164.993 97.1691L165.012 97.1775L165.032 97.185L165.387 96.25ZM161.487 94.95L161.205 95.9094L161.217 95.913L161.487 94.95ZM155.937 93L155.507 93.9029L155.52 93.909L155.533 93.9147L155.937 93ZM152.287 90.05L151.487 90.65L151.495 90.6612L151.504 90.6722L152.287 90.05ZM152.337 79.35L153.166 79.9089L152.337 79.35ZM156.687 75.85L157.081 76.7691L157.088 76.7662L157.094 76.7631L156.687 75.85ZM171.837 77.25L171.216 78.0343L171.223 78.0394L171.229 78.0444L171.837 77.25ZM175.587 84.55V85.55H176.664L176.584 84.4757L175.587 84.55ZM167.887 84.55L166.888 84.6055L166.941 85.55H167.887V84.55ZM166.337 81.6L165.686 82.3593L165.7 82.3717L165.715 82.3835L166.337 81.6ZM159.287 81.45L158.644 80.6843L158.636 80.6908L158.628 80.6974L159.287 81.45ZM158.987 86.85L158.261 87.5377L158.279 87.5574L158.299 87.576L158.987 86.85ZM161.287 88.35L160.881 89.2638L160.901 89.2727L160.921 89.2807L161.287 88.35ZM165.187 89.65L164.899 90.6078L164.905 90.6094L165.187 89.65ZM174.437 94.65L173.646 95.2626L174.437 94.65ZM174.537 105.1L173.681 104.583L174.537 105.1ZM170.287 108.95L170.734 109.844L170.74 109.841L170.747 109.838L170.287 108.95ZM163.637 109.35C161.319 109.35 159.254 108.953 157.427 108.179L156.647 110.021C158.753 110.913 161.088 111.35 163.637 111.35V109.35ZM157.433 108.182C155.65 107.413 154.265 106.322 153.247 104.914L151.626 106.086C152.875 107.812 154.557 109.12 156.641 110.018L157.433 108.182ZM153.247 104.914C152.246 103.531 151.717 101.885 151.687 99.9344L149.687 99.9656C149.723 102.282 150.361 104.336 151.626 106.086L153.247 104.914ZM150.687 100.95H158.187V98.95H150.687V100.95ZM157.189 100.02C157.304 101.66 157.889 103.048 159.007 104.084L160.366 102.616C159.684 101.985 159.27 101.106 159.184 99.8804L157.189 100.02ZM159.021 104.096C160.184 105.134 161.712 105.6 163.487 105.6V103.6C162.062 103.6 161.056 103.232 160.353 102.604L159.021 104.096ZM163.487 105.6C165.27 105.6 166.805 105.181 167.971 104.223L166.702 102.677C166.002 103.252 164.97 103.6 163.487 103.6V105.6ZM167.988 104.209C169.15 103.213 169.737 101.898 169.737 100.35H167.737C167.737 101.335 167.39 102.087 166.686 102.691L167.988 104.209ZM169.737 100.35C169.737 99.0947 169.344 97.9873 168.512 97.1113L167.062 98.4887C167.496 98.9461 167.737 99.5386 167.737 100.35H169.737ZM168.512 97.1113C167.763 96.3229 166.831 95.7282 165.741 95.315L165.032 97.185C165.876 97.5051 166.544 97.9438 167.062 98.4887L168.512 97.1113ZM165.781 95.3309C164.789 94.9057 163.44 94.4586 161.756 93.987L161.217 95.913C162.866 96.3748 164.118 96.7943 164.993 97.1691L165.781 95.3309ZM161.769 93.9906C159.525 93.3307 157.72 92.6947 156.341 92.0853L155.533 93.9147C157.02 94.5719 158.915 95.2359 161.205 95.9094L161.769 93.9906ZM156.367 92.0971C155.114 91.5005 154.015 90.6172 153.07 89.4278L151.504 90.6722C152.625 92.0828 153.96 93.1662 155.507 93.9029L156.367 92.0971ZM153.087 89.45C152.253 88.3378 151.787 86.8026 151.787 84.75H149.787C149.787 87.0974 150.321 89.0955 151.487 90.65L153.087 89.45ZM151.787 84.75C151.787 82.8581 152.257 81.258 153.166 79.9089L151.507 78.7911C150.35 80.5087 149.787 82.5085 149.787 84.75H151.787ZM153.166 79.9089C154.081 78.5505 155.373 77.5011 157.081 76.7691L156.293 74.9309C154.267 75.7989 152.659 77.0828 151.507 78.7911L153.166 79.9089ZM157.094 76.7631C158.812 75.9962 160.803 75.6 163.087 75.6V73.6C160.57 73.6 158.294 74.0372 156.279 74.9369L157.094 76.7631ZM163.087 75.6C166.522 75.6 169.202 76.4408 171.216 78.0343L172.457 76.4657C170.005 74.5259 166.851 73.6 163.087 73.6V75.6ZM171.229 78.0444C173.245 79.5856 174.375 81.7434 174.589 84.6243L176.584 84.4757C176.332 81.09 174.962 78.3811 172.444 76.4556L171.229 78.0444ZM175.587 83.55H167.887V85.55H175.587V83.55ZM168.885 84.4945C168.802 83.0006 168.142 81.7554 166.958 80.8165L165.715 82.3835C166.465 82.9779 166.838 83.6994 166.888 84.6055L168.885 84.4945ZM166.988 80.8407C165.828 79.8466 164.325 79.4 162.587 79.4V81.4C163.982 81.4 164.979 81.7534 165.686 82.3593L166.988 80.8407ZM162.587 79.4C161.047 79.4 159.699 79.7974 158.644 80.6843L159.93 82.2157C160.541 81.7026 161.393 81.4 162.587 81.4V79.4ZM158.628 80.6974C157.558 81.6338 157.087 82.9574 157.087 84.5H159.087C159.087 83.376 159.415 82.6662 159.945 82.2026L158.628 80.6974ZM157.087 84.5C157.087 85.6696 157.472 86.7049 158.261 87.5377L159.713 86.1623C159.302 85.7284 159.087 85.1971 159.087 84.5H157.087ZM158.299 87.576C159.025 88.2635 159.89 88.8235 160.881 89.2638L161.693 87.4362C160.883 87.0765 160.215 86.6365 159.674 86.124L158.299 87.576ZM160.921 89.2807C161.892 89.6622 163.222 90.1047 164.899 90.6078L165.474 88.6922C163.818 88.1953 162.548 87.7711 161.652 87.4193L160.921 89.2807ZM164.905 90.6094C167.144 91.2681 168.943 91.9186 170.315 92.5567L171.158 90.7433C169.664 90.0481 167.762 89.3652 165.469 88.6906L164.905 90.6094ZM170.315 92.5567C171.594 93.1516 172.704 94.0466 173.646 95.2626L175.227 94.0374C174.103 92.5867 172.746 91.4817 171.158 90.7433L170.315 92.5567ZM173.646 95.2626C174.509 96.3762 174.987 97.8914 174.987 99.9H176.987C176.987 97.5753 176.431 95.5905 175.227 94.0374L173.646 95.2626ZM174.987 99.9C174.987 101.584 174.553 103.139 173.681 104.583L175.393 105.617C176.453 103.861 176.987 101.949 176.987 99.9H174.987ZM173.681 104.583C172.821 106.006 171.551 107.169 169.827 108.062L170.747 109.838C172.756 108.797 174.319 107.394 175.393 105.617L173.681 104.583ZM169.84 108.056C168.14 108.905 166.083 109.35 163.637 109.35V111.35C166.324 111.35 168.7 110.861 170.734 109.844L169.84 108.056Z" fill="white"/>
<path d="M80.27 44.06V65H76.07V44.06H80.27ZM102.33 65H98.1296L88.6196 50.63V65H84.4196V44.03H88.6196L98.1296 58.43V44.03H102.33V65ZM120.73 44.06V47.45H115.15V65H110.95V47.45H105.37V44.06H120.73ZM134.595 65L129.975 56.84H127.995V65H123.795V44.06H131.655C133.275 44.06 134.655 44.35 135.795 44.93C136.935 45.49 137.785 46.26 138.345 47.24C138.925 48.2 139.215 49.28 139.215 50.48C139.215 51.86 138.815 53.11 138.015 54.23C137.215 55.33 136.025 56.09 134.445 56.51L139.455 65H134.595ZM127.995 53.69H131.505C132.645 53.69 133.495 53.42 134.055 52.88C134.615 52.32 134.895 51.55 134.895 50.57C134.895 49.61 134.615 48.87 134.055 48.35C133.495 47.81 132.645 47.54 131.505 47.54H127.995V53.69ZM152.733 65.21C150.773 65.21 148.973 64.75 147.333 63.83C145.693 62.91 144.393 61.64 143.433 60.02C142.473 58.38 141.993 56.53 141.993 54.47C141.993 52.43 142.473 50.6 143.433 48.98C144.393 47.34 145.693 46.06 147.333 45.14C148.973 44.22 150.773 43.76 152.733 43.76C154.713 43.76 156.513 44.22 158.133 45.14C159.773 46.06 161.063 47.34 162.003 48.98C162.963 50.6 163.443 52.43 163.443 54.47C163.443 56.53 162.963 58.38 162.003 60.02C161.063 61.64 159.773 62.91 158.133 63.83C156.493 64.75 154.693 65.21 152.733 65.21ZM152.733 61.46C153.993 61.46 155.103 61.18 156.063 60.62C157.023 60.04 157.773 59.22 158.313 58.16C158.853 57.1 159.123 55.87 159.123 54.47C159.123 53.07 158.853 51.85 158.313 50.81C157.773 49.75 157.023 48.94 156.063 48.38C155.103 47.82 153.993 47.54 152.733 47.54C151.473 47.54 150.353 47.82 149.373 48.38C148.413 48.94 147.663 49.75 147.123 50.81C146.583 51.85 146.313 53.07 146.313 54.47C146.313 55.87 146.583 57.1 147.123 58.16C147.663 59.22 148.413 60.04 149.373 60.62C150.353 61.18 151.473 61.46 152.733 61.46ZM173.888 44.06C176.088 44.06 178.018 44.49 179.678 45.35C181.358 46.21 182.648 47.44 183.548 49.04C184.468 50.62 184.928 52.46 184.928 54.56C184.928 56.66 184.468 58.5 183.548 60.08C182.648 61.64 181.358 62.85 179.678 63.71C178.018 64.57 176.088 65 173.888 65H166.568V44.06H173.888ZM173.738 61.43C175.938 61.43 177.638 60.83 178.838 59.63C180.038 58.43 180.638 56.74 180.638 54.56C180.638 52.38 180.038 50.68 178.838 49.46C177.638 48.22 175.938 47.6 173.738 47.6H170.768V61.43H173.738ZM192.212 44.06V57.02C192.212 58.44 192.582 59.53 193.322 60.29C194.062 61.03 195.102 61.4 196.442 61.4C197.802 61.4 198.852 61.03 199.592 60.29C200.332 59.53 200.702 58.44 200.702 57.02V44.06H204.932V56.99C204.932 58.77 204.542 60.28 203.762 61.52C203.002 62.74 201.972 63.66 200.672 64.28C199.392 64.9 197.962 65.21 196.382 65.21C194.822 65.21 193.402 64.9 192.122 64.28C190.862 63.66 189.862 62.74 189.122 61.52C188.382 60.28 188.012 58.77 188.012 56.99V44.06H192.212ZM207.97 54.5C207.97 52.44 208.43 50.6 209.35 48.98C210.29 47.34 211.56 46.07 213.16 45.17C214.78 44.25 216.59 43.79 218.59 43.79C220.93 43.79 222.98 44.39 224.74 45.59C226.5 46.79 227.73 48.45 228.43 50.57H223.6C223.12 49.57 222.44 48.82 221.56 48.32C220.7 47.82 219.7 47.57 218.56 47.57C217.34 47.57 216.25 47.86 215.29 48.44C214.35 49 213.61 49.8 213.07 50.84C212.55 51.88 212.29 53.1 212.29 54.5C212.29 55.88 212.55 57.1 213.07 58.16C213.61 59.2 214.35 60.01 215.29 60.59C216.25 61.15 217.34 61.43 218.56 61.43C219.7 61.43 220.7 61.18 221.56 60.68C222.44 60.16 223.12 59.4 223.6 58.4H228.43C227.73 60.54 226.5 62.21 224.74 63.41C223 64.59 220.95 65.18 218.59 65.18C216.59 65.18 214.78 64.73 213.16 63.83C211.56 62.91 210.29 61.64 209.35 60.02C208.43 58.4 207.97 56.56 207.97 54.5ZM236.217 47.45V52.7H243.267V56.03H236.217V61.58H244.167V65H232.017V44.03H244.167V47.45H236.217Z" fill="black"/>
<path d="M303.51 100.49C298.937 100.49 294.737 99.4167 290.91 97.27C287.083 95.1233 284.05 92.16 281.81 88.38C279.57 84.5533 278.45 80.2367 278.45 75.43C278.45 70.67 279.57 66.4 281.81 62.62C284.05 58.7933 287.083 55.8067 290.91 53.66C294.737 51.5133 298.937 50.44 303.51 50.44C308.13 50.44 312.33 51.5133 316.11 53.66C319.937 55.8067 322.947 58.7933 325.14 62.62C327.38 66.4 328.5 70.67 328.5 75.43C328.5 80.2367 327.38 84.5533 325.14 88.38C322.947 92.16 319.937 95.1233 316.11 97.27C312.283 99.4167 308.083 100.49 303.51 100.49ZM303.51 91.74C306.45 91.74 309.04 91.0867 311.28 89.78C313.52 88.4267 315.27 86.5133 316.53 84.04C317.79 81.5667 318.42 78.6967 318.42 75.43C318.42 72.1633 317.79 69.3167 316.53 66.89C315.27 64.4167 313.52 62.5267 311.28 61.22C309.04 59.9133 306.45 59.26 303.51 59.26C300.57 59.26 297.957 59.9133 295.67 61.22C293.43 62.5267 291.68 64.4167 290.42 66.89C289.16 69.3167 288.53 72.1633 288.53 75.43C288.53 78.6967 289.16 81.5667 290.42 84.04C291.68 86.5133 293.43 88.4267 295.67 89.78C297.957 91.0867 300.57 91.74 303.51 91.74ZM345.451 51.14V81.38C345.451 84.6933 346.314 87.2367 348.041 89.01C349.768 90.7367 352.194 91.6 355.321 91.6C358.494 91.6 360.944 90.7367 362.671 89.01C364.398 87.2367 365.261 84.6933 365.261 81.38V51.14H375.131V81.31C375.131 85.4633 374.221 88.9867 372.401 91.88C370.628 94.7267 368.224 96.8733 365.191 98.32C362.204 99.7667 358.868 100.49 355.181 100.49C351.541 100.49 348.228 99.7667 345.241 98.32C342.301 96.8733 339.968 94.7267 338.241 91.88C336.514 88.9867 335.651 85.4633 335.651 81.31V51.14H345.451ZM409.8 100L399.02 80.96H394.4V100H384.6V51.14H402.94C406.72 51.14 409.94 51.8167 412.6 53.17C415.26 54.4767 417.243 56.2733 418.55 58.56C419.903 60.8 420.58 63.32 420.58 66.12C420.58 69.34 419.646 72.2567 417.78 74.87C415.913 77.4367 413.136 79.21 409.45 80.19L421.14 100H409.8ZM394.4 73.61H402.59C405.25 73.61 407.233 72.98 408.54 71.72C409.846 70.4133 410.5 68.6167 410.5 66.33C410.5 64.09 409.846 62.3633 408.54 61.15C407.233 59.89 405.25 59.26 402.59 59.26H394.4V73.61ZM479.373 51.14V59.05H466.353V100H456.553V59.05H443.533V51.14H479.373ZM496.323 59.05V71.3H512.773V79.07H496.323V92.02H514.873V100H486.523V51.07H514.873V59.05H496.323ZM553.739 90.69H534.279L531.059 100H520.769L538.339 51.07H549.749L567.319 100H556.959L553.739 90.69ZM551.079 82.85L544.009 62.41L536.939 82.85H551.079ZM627.157 51.14V100H617.357V68.22L604.267 100H596.847L583.687 68.22V100H573.887V51.14H585.017L600.557 87.47L616.097 51.14H627.157Z" fill="#2D9CDB"/>
</svg>
