<svg width="863" height="414" viewBox="0 0 863 414" fill="none" xmlns="http://www.w3.org/2000/svg">
<path d="M301.392 111.352L247.572 304H202.032L165.876 166.828L128.064 304L82.7998 304.276L30.9118 111.352H72.3118L106.26 260.944L145.452 111.352H188.508L225.492 260.116L259.716 111.352H301.392ZM486.426 111.352V304H447.786V222.028H365.262V304H326.622V111.352H365.262V190.564H447.786V111.352H486.426ZM642.586 267.292H565.858L553.162 304H512.59L581.866 111.076H626.854L696.13 304H655.282L642.586 267.292ZM632.098 236.38L604.222 155.788L576.346 236.38H632.098ZM853.124 111.352V142.54H801.788V304H763.148V142.54H711.812V111.352H853.124Z" fill="#F2994A" fill-opacity="0.4"/>
<path d="M46.5151 161.127L37.9867 189.9H32.6461L26.6017 168.124L20.1847 189.9L14.8855 189.941L6.72975 161.127H11.7391L17.7007 184.559L24.1591 161.127H29.4583L35.4613 184.435L41.4643 161.127H46.5151ZM55.1273 164.936V173.381H65.0633V177.232H55.1273V186.05H66.3053V189.9H50.4077V161.086H66.3053V164.936H55.1273ZM100.219 184.021H88.172L86.102 189.9H81.1754L91.484 161.086H96.9488L107.257 189.9H102.289L100.219 184.021ZM98.8946 180.171L94.2164 166.799L89.4968 180.171H98.8946ZM126.685 189.9L120.061 178.391H116.459V189.9H111.74V161.127H121.676C123.884 161.127 125.747 161.513 127.265 162.286C128.81 163.059 129.956 164.094 130.701 165.391C131.474 166.688 131.86 168.137 131.86 169.738C131.86 171.615 131.308 173.326 130.204 174.872C129.128 176.39 127.458 177.425 125.195 177.977L132.315 189.9H126.685ZM116.459 174.623H121.676C123.442 174.623 124.767 174.182 125.65 173.299C126.561 172.415 127.016 171.229 127.016 169.738C127.016 168.248 126.575 167.089 125.691 166.261C124.808 165.405 123.47 164.977 121.676 164.977H116.459V174.623ZM142.617 164.936V173.381H152.553V177.232H142.617V186.05H153.795V189.9H137.898V161.086H153.795V164.936H142.617ZM179.76 161.127C182.824 161.127 185.501 161.72 187.792 162.907C190.11 164.066 191.891 165.75 193.133 167.958C194.402 170.138 195.037 172.691 195.037 175.617C195.037 178.543 194.402 181.082 193.133 183.235C191.891 185.387 190.11 187.043 187.792 188.203C185.501 189.334 182.824 189.9 179.76 189.9H170.363V161.127H179.76ZM179.76 186.05C183.128 186.05 185.708 185.139 187.502 183.317C189.296 181.496 190.193 178.929 190.193 175.617C190.193 172.277 189.296 169.669 187.502 167.792C185.708 165.916 183.128 164.977 179.76 164.977H175.082V186.05H179.76ZM212.838 190.19C210.161 190.19 207.691 189.569 205.428 188.327C203.192 187.057 201.412 185.305 200.087 183.069C198.79 180.806 198.141 178.267 198.141 175.451C198.141 172.636 198.79 170.111 200.087 167.875C201.412 165.64 203.192 163.901 205.428 162.659C207.691 161.389 210.161 160.754 212.838 160.754C215.543 160.754 218.013 161.389 220.249 162.659C222.512 163.901 224.292 165.64 225.59 167.875C226.887 170.111 227.535 172.636 227.535 175.451C227.535 178.267 226.887 180.806 225.59 183.069C224.292 185.305 222.512 187.057 220.249 188.327C218.013 189.569 215.543 190.19 212.838 190.19ZM212.838 186.091C214.743 186.091 216.44 185.663 217.931 184.808C219.421 183.925 220.58 182.683 221.408 181.082C222.264 179.453 222.692 177.577 222.692 175.451C222.692 173.326 222.264 171.463 221.408 169.862C220.58 168.262 219.421 167.033 217.931 166.178C216.44 165.322 214.743 164.894 212.838 164.894C210.934 164.894 209.237 165.322 207.746 166.178C206.256 167.033 205.083 168.262 204.227 169.862C203.399 171.463 202.985 173.326 202.985 175.451C202.985 177.577 203.399 179.453 204.227 181.082C205.083 182.683 206.256 183.925 207.746 184.808C209.237 185.663 210.934 186.091 212.838 186.091ZM236.899 161.127V189.9H232.18V161.127H236.899ZM266.735 189.9H262.015L247.815 168.413V189.9H243.096V161.086H247.815L262.015 182.531V161.086H266.735V189.9ZM293.757 169.407C293.012 167.972 291.977 166.895 290.652 166.178C289.327 165.433 287.795 165.06 286.057 165.06C284.152 165.06 282.455 165.488 280.964 166.343C279.474 167.199 278.301 168.413 277.445 169.987C276.617 171.56 276.203 173.381 276.203 175.451C276.203 177.521 276.617 179.357 277.445 180.958C278.301 182.531 279.474 183.745 280.964 184.601C282.455 185.456 284.152 185.884 286.057 185.884C288.623 185.884 290.707 185.167 292.308 183.731C293.909 182.296 294.889 180.35 295.247 177.894H284.442V174.127H300.298V177.811C299.995 180.047 299.194 182.103 297.897 183.98C296.627 185.857 294.958 187.361 292.888 188.492C290.845 189.596 288.568 190.148 286.057 190.148C283.352 190.148 280.882 189.527 278.646 188.285C276.41 187.016 274.63 185.263 273.305 183.028C272.008 180.792 271.36 178.267 271.36 175.451C271.36 172.636 272.008 170.111 273.305 167.875C274.63 165.64 276.41 163.901 278.646 162.659C280.909 161.389 283.379 160.754 286.057 160.754C289.12 160.754 291.839 161.513 294.212 163.031C296.614 164.522 298.352 166.647 299.429 169.407H293.757ZM320.427 161.127V189.9H315.707V161.127H320.427ZM336.104 190.19C334.172 190.19 332.433 189.859 330.888 189.196C329.342 188.506 328.128 187.54 327.244 186.298C326.361 185.056 325.92 183.607 325.92 181.951H330.97C331.081 183.193 331.564 184.214 332.419 185.015C333.303 185.815 334.531 186.215 336.104 186.215C337.732 186.215 339.002 185.829 339.913 185.056C340.824 184.256 341.279 183.235 341.279 181.993C341.279 181.027 340.989 180.24 340.41 179.633C339.858 179.026 339.154 178.556 338.298 178.225C337.47 177.894 336.311 177.535 334.821 177.149C332.944 176.652 331.412 176.155 330.225 175.658C329.066 175.134 328.072 174.334 327.244 173.257C326.416 172.181 326.002 170.746 326.002 168.952C326.002 167.296 326.416 165.847 327.244 164.605C328.072 163.363 329.232 162.41 330.722 161.748C332.212 161.086 333.937 160.754 335.897 160.754C338.685 160.754 340.962 161.458 342.728 162.866C344.522 164.246 345.516 166.15 345.709 168.579H340.492C340.41 167.53 339.913 166.633 339.002 165.888C338.091 165.143 336.891 164.77 335.4 164.77C334.048 164.77 332.944 165.115 332.088 165.805C331.233 166.495 330.805 167.489 330.805 168.786C330.805 169.669 331.067 170.401 331.591 170.98C332.143 171.532 332.833 171.974 333.661 172.305C334.489 172.636 335.621 172.995 337.056 173.381C338.961 173.906 340.506 174.43 341.693 174.955C342.907 175.479 343.929 176.293 344.757 177.397C345.612 178.474 346.04 179.923 346.04 181.744C346.04 183.207 345.64 184.587 344.839 185.884C344.067 187.181 342.921 188.23 341.403 189.031C339.913 189.803 338.146 190.19 336.104 190.19ZM379.71 184.021H367.662L365.592 189.9H360.666L370.974 161.086H376.439L386.748 189.9H381.78L379.71 184.021ZM378.385 180.171L373.707 166.799L368.987 180.171H378.385ZM395.95 186.091H405.679V189.9H391.23V161.127H395.95V186.091ZM447.093 161.127L438.564 189.9H433.224L427.179 168.124L420.762 189.9L415.463 189.941L407.307 161.127H412.317L418.278 184.559L424.737 161.127H430.036L436.039 184.435L442.042 161.127H447.093ZM468.332 184.021H456.284L454.214 189.9H449.288L459.596 161.086H465.061L475.37 189.9H470.402L468.332 184.021ZM467.007 180.171L462.329 166.799L457.609 180.171H467.007ZM501.173 161.127L491.651 179.467V189.9H486.931V179.467L477.368 161.127H482.626L489.291 175.244L495.956 161.127H501.173ZM514.399 190.19C512.467 190.19 510.728 189.859 509.182 189.196C507.637 188.506 506.422 187.54 505.539 186.298C504.656 185.056 504.214 183.607 504.214 181.951H509.265C509.376 183.193 509.859 184.214 510.714 185.015C511.597 185.815 512.826 186.215 514.399 186.215C516.027 186.215 517.297 185.829 518.208 185.056C519.118 184.256 519.574 183.235 519.574 181.993C519.574 181.027 519.284 180.24 518.704 179.633C518.152 179.026 517.449 178.556 516.593 178.225C515.765 177.894 514.606 177.535 513.115 177.149C511.239 176.652 509.707 176.155 508.52 175.658C507.361 175.134 506.367 174.334 505.539 173.257C504.711 172.181 504.297 170.746 504.297 168.952C504.297 167.296 504.711 165.847 505.539 164.605C506.367 163.363 507.526 162.41 509.017 161.748C510.507 161.086 512.232 160.754 514.192 160.754C516.979 160.754 519.256 161.458 521.023 162.866C522.817 164.246 523.81 166.15 524.004 168.579H518.787C518.704 167.53 518.208 166.633 517.297 165.888C516.386 165.143 515.185 164.77 513.695 164.77C512.343 164.77 511.239 165.115 510.383 165.805C509.527 166.495 509.1 167.489 509.1 168.786C509.1 169.669 509.362 170.401 509.886 170.98C510.438 171.532 511.128 171.974 511.956 172.305C512.784 172.636 513.916 172.995 515.351 173.381C517.255 173.906 518.801 174.43 519.988 174.955C521.202 175.479 522.223 176.293 523.051 177.397C523.907 178.474 524.335 179.923 524.335 181.744C524.335 183.207 523.935 184.587 523.134 185.884C522.361 187.181 521.216 188.23 519.698 189.031C518.208 189.803 516.441 190.19 514.399 190.19ZM565.457 161.127L554.651 189.9H549.187L538.34 161.127H543.391L551.919 185.056L560.489 161.127H565.457ZM574.123 161.127V189.9H569.404V161.127H574.123ZM589.8 190.19C587.868 190.19 586.129 189.859 584.584 189.196C583.038 188.506 581.824 187.54 580.941 186.298C580.057 185.056 579.616 183.607 579.616 181.951H584.667C584.777 183.193 585.26 184.214 586.116 185.015C586.999 185.815 588.227 186.215 589.8 186.215C591.429 186.215 592.698 185.829 593.609 185.056C594.52 184.256 594.975 183.235 594.975 181.993C594.975 181.027 594.685 180.24 594.106 179.633C593.554 179.026 592.85 178.556 591.994 178.225C591.166 177.894 590.007 177.535 588.517 177.149C586.64 176.652 585.108 176.155 583.921 175.658C582.762 175.134 581.769 174.334 580.941 173.257C580.113 172.181 579.699 170.746 579.699 168.952C579.699 167.296 580.113 165.847 580.941 164.605C581.769 163.363 582.928 162.41 584.418 161.748C585.909 161.086 587.634 160.754 589.593 160.754C592.381 160.754 594.658 161.458 596.424 162.866C598.218 164.246 599.212 166.15 599.405 168.579H594.189C594.106 167.53 593.609 166.633 592.698 165.888C591.787 165.143 590.587 164.77 589.096 164.77C587.744 164.77 586.64 165.115 585.784 165.805C584.929 166.495 584.501 167.489 584.501 168.786C584.501 169.669 584.763 170.401 585.288 170.98C585.84 171.532 586.53 171.974 587.358 172.305C588.186 172.636 589.317 172.995 590.752 173.381C592.657 173.906 594.202 174.43 595.389 174.955C596.604 175.479 597.625 176.293 598.453 177.397C599.308 178.474 599.736 179.923 599.736 181.744C599.736 183.207 599.336 184.587 598.536 185.884C597.763 187.181 596.617 188.23 595.099 189.031C593.609 189.803 591.843 190.19 589.8 190.19ZM610.025 161.127V189.9H605.305V161.127H610.025ZM631.622 175.12C633.168 175.396 634.479 176.21 635.555 177.563C636.631 178.915 637.17 180.447 637.17 182.158C637.17 183.621 636.783 184.946 636.01 186.133C635.265 187.292 634.175 188.216 632.74 188.906C631.305 189.569 629.635 189.9 627.73 189.9H616.221V161.127H627.192C629.152 161.127 630.835 161.458 632.243 162.121C633.651 162.783 634.713 163.68 635.431 164.812C636.148 165.916 636.507 167.158 636.507 168.538C636.507 170.194 636.066 171.574 635.182 172.678C634.299 173.782 633.112 174.596 631.622 175.12ZM620.941 173.216H626.778C628.324 173.216 629.524 172.871 630.38 172.181C631.263 171.463 631.705 170.442 631.705 169.117C631.705 167.82 631.263 166.813 630.38 166.095C629.524 165.35 628.324 164.977 626.778 164.977H620.941V173.216ZM627.316 186.05C628.917 186.05 630.173 185.663 631.084 184.891C631.995 184.118 632.45 183.041 632.45 181.661C632.45 180.254 631.967 179.136 631.001 178.308C630.035 177.48 628.752 177.066 627.151 177.066H620.941V186.05H627.316ZM647.018 186.091H656.747V189.9H642.298V161.127H647.018V186.091ZM665.413 164.936V173.381H675.349V177.232H665.413V186.05H676.591V189.9H660.694V161.086H676.591V164.936H665.413ZM711.748 161.127V164.977H704.089V189.9H699.369V164.977H691.669V161.127H711.748ZM729.651 190.19C726.974 190.19 724.504 189.569 722.24 188.327C720.005 187.057 718.225 185.305 716.9 183.069C715.603 180.806 714.954 178.267 714.954 175.451C714.954 172.636 715.603 170.111 716.9 167.875C718.225 165.64 720.005 163.901 722.24 162.659C724.504 161.389 726.974 160.754 729.651 160.754C732.356 160.754 734.826 161.389 737.062 162.659C739.325 163.901 741.105 165.64 742.402 167.875C743.699 170.111 744.348 172.636 744.348 175.451C744.348 178.267 743.699 180.806 742.402 183.069C741.105 185.305 739.325 187.057 737.062 188.327C734.826 189.569 732.356 190.19 729.651 190.19ZM729.651 186.091C731.555 186.091 733.253 185.663 734.743 184.808C736.234 183.925 737.393 182.683 738.221 181.082C739.076 179.453 739.504 177.577 739.504 175.451C739.504 173.326 739.076 171.463 738.221 169.862C737.393 168.262 736.234 167.033 734.743 166.178C733.253 165.322 731.555 164.894 729.651 164.894C727.747 164.894 726.049 165.322 724.559 166.178C723.068 167.033 721.895 168.262 721.04 169.862C720.212 171.463 719.798 173.326 719.798 175.451C719.798 177.577 720.212 179.453 721.04 181.082C721.895 182.683 723.068 183.925 724.559 184.808C726.049 185.663 727.747 186.091 729.651 186.091ZM781.068 161.127L771.546 179.467V189.9H766.826V179.467L757.263 161.127H762.52L769.186 175.244L775.851 161.127H781.068ZM797.937 190.19C795.26 190.19 792.789 189.569 790.526 188.327C788.291 187.057 786.51 185.305 785.186 183.069C783.888 180.806 783.24 178.267 783.24 175.451C783.24 172.636 783.888 170.111 785.186 167.875C786.51 165.64 788.291 163.901 790.526 162.659C792.789 161.389 795.26 160.754 797.937 160.754C800.642 160.754 803.112 161.389 805.347 162.659C807.611 163.901 809.391 165.64 810.688 167.875C811.985 170.111 812.634 172.636 812.634 175.451C812.634 178.267 811.985 180.806 810.688 183.069C809.391 185.305 807.611 187.057 805.347 188.327C803.112 189.569 800.642 190.19 797.937 190.19ZM797.937 186.091C799.841 186.091 801.539 185.663 803.029 184.808C804.519 183.925 805.679 182.683 806.507 181.082C807.362 179.453 807.79 177.577 807.79 175.451C807.79 173.326 807.362 171.463 806.507 169.862C805.679 168.262 804.519 167.033 803.029 166.178C801.539 165.322 799.841 164.894 797.937 164.894C796.032 164.894 794.335 165.322 792.845 166.178C791.354 167.033 790.181 168.262 789.326 169.862C788.498 171.463 788.084 173.326 788.084 175.451C788.084 177.577 788.498 179.453 789.326 181.082C790.181 182.683 791.354 183.925 792.845 184.808C794.335 185.663 796.032 186.091 797.937 186.091ZM821.956 161.127V179.467C821.956 181.648 822.522 183.29 823.654 184.394C824.813 185.498 826.414 186.05 828.456 186.05C830.526 186.05 832.127 185.498 833.258 184.394C834.418 183.29 834.997 181.648 834.997 179.467V161.127H839.717V179.384C839.717 181.73 839.206 183.718 838.185 185.346C837.164 186.974 835.798 188.189 834.086 188.989C832.375 189.79 830.485 190.19 828.415 190.19C826.345 190.19 824.454 189.79 822.743 188.989C821.059 188.189 819.721 186.974 818.727 185.346C817.733 183.718 817.237 181.73 817.237 179.384V161.127H821.956ZM96.8435 246.021H84.7961L82.7261 251.9H77.7995L88.1081 223.086H93.5729L103.881 251.9H98.9135L96.8435 246.021ZM95.5187 242.171L90.8405 228.799L86.1209 242.171H95.5187ZM132.003 251.9H127.283L113.083 230.413V251.9H108.364V223.086H113.083L127.283 244.531V223.086H132.003V251.9ZM147.599 223.127C150.662 223.127 153.339 223.72 155.63 224.907C157.949 226.066 159.729 227.75 160.971 229.958C162.24 232.138 162.875 234.691 162.875 237.617C162.875 240.543 162.24 243.082 160.971 245.235C159.729 247.387 157.949 249.043 155.63 250.203C153.339 251.334 150.662 251.9 147.599 251.9H138.201V223.127H147.599ZM147.599 248.05C150.966 248.05 153.546 247.139 155.34 245.317C157.134 243.496 158.031 240.929 158.031 237.617C158.031 234.277 157.134 231.669 155.34 229.792C153.546 227.916 150.966 226.977 147.599 226.977H142.92V248.05H147.599ZM215.774 223.127L207.246 251.9H201.905L195.861 230.124L189.444 251.9L184.144 251.941L175.989 223.127H180.998L186.96 246.559L193.418 223.127H198.717L204.72 246.435L210.723 223.127H215.774ZM224.386 223.127V251.9H219.667V223.127H224.386ZM235.302 248.091H245.031V251.9H230.583V223.127H235.302V248.091ZM253.698 248.091H263.427V251.9H248.978V223.127H253.698V248.091ZM293.529 237.12C295.074 237.396 296.385 238.21 297.462 239.563C298.538 240.915 299.076 242.447 299.076 244.158C299.076 245.621 298.69 246.946 297.917 248.133C297.172 249.292 296.082 250.216 294.647 250.906C293.211 251.569 291.542 251.9 289.637 251.9H278.128V223.127H289.099C291.059 223.127 292.742 223.458 294.15 224.121C295.557 224.783 296.62 225.68 297.338 226.812C298.055 227.916 298.414 229.158 298.414 230.538C298.414 232.194 297.972 233.574 297.089 234.678C296.206 235.782 295.019 236.596 293.529 237.12ZM282.848 235.216H288.685C290.231 235.216 291.431 234.871 292.287 234.181C293.17 233.463 293.612 232.442 293.612 231.117C293.612 229.82 293.17 228.813 292.287 228.095C291.431 227.35 290.231 226.977 288.685 226.977H282.848V235.216ZM289.223 248.05C290.824 248.05 292.08 247.663 292.991 246.891C293.901 246.118 294.357 245.041 294.357 243.661C294.357 242.254 293.874 241.136 292.908 240.308C291.942 239.48 290.658 239.066 289.058 239.066H282.848V248.05H289.223ZM308.925 226.936V235.381H318.861V239.232H308.925V248.05H320.103V251.9H304.205V223.086H320.103V226.936H308.925ZM361.469 223.127L350.663 251.9H345.199L334.352 223.127H339.403L347.931 247.056L356.501 223.127H361.469ZM370.135 223.127V251.9H365.416V223.127H370.135ZM385.812 252.19C383.88 252.19 382.141 251.859 380.596 251.196C379.05 250.506 377.836 249.54 376.953 248.298C376.069 247.056 375.628 245.607 375.628 243.951H380.679C380.789 245.193 381.272 246.214 382.128 247.015C383.011 247.815 384.239 248.215 385.812 248.215C387.441 248.215 388.71 247.829 389.621 247.056C390.532 246.256 390.987 245.235 390.987 243.993C390.987 243.027 390.697 242.24 390.118 241.633C389.566 241.026 388.862 240.556 388.006 240.225C387.178 239.894 386.019 239.535 384.529 239.149C382.652 238.652 381.12 238.155 379.933 237.658C378.774 237.134 377.781 236.334 376.953 235.257C376.125 234.181 375.711 232.746 375.711 230.952C375.711 229.296 376.125 227.847 376.953 226.605C377.781 225.363 378.94 224.41 380.43 223.748C381.921 223.086 383.646 222.754 385.605 222.754C388.393 222.754 390.67 223.458 392.436 224.866C394.23 226.246 395.224 228.15 395.417 230.579H390.201C390.118 229.53 389.621 228.633 388.71 227.888C387.799 227.143 386.599 226.77 385.108 226.77C383.756 226.77 382.652 227.115 381.796 227.805C380.941 228.495 380.513 229.489 380.513 230.786C380.513 231.669 380.775 232.401 381.3 232.98C381.852 233.532 382.542 233.974 383.37 234.305C384.198 234.636 385.329 234.995 386.764 235.381C388.669 235.906 390.214 236.43 391.401 236.955C392.616 237.479 393.637 238.293 394.465 239.397C395.32 240.474 395.748 241.923 395.748 243.744C395.748 245.207 395.348 246.587 394.548 247.884C393.775 249.181 392.629 250.23 391.111 251.031C389.621 251.803 387.855 252.19 385.812 252.19ZM406.037 223.127V251.9H401.317V223.127H406.037ZM427.634 237.12C429.18 237.396 430.491 238.21 431.567 239.563C432.643 240.915 433.182 242.447 433.182 244.158C433.182 245.621 432.795 246.946 432.022 248.133C431.277 249.292 430.187 250.216 428.752 250.906C427.317 251.569 425.647 251.9 423.742 251.9H412.233V223.127H423.204C425.164 223.127 426.847 223.458 428.255 224.121C429.663 224.783 430.725 225.68 431.443 226.812C432.16 227.916 432.519 229.158 432.519 230.538C432.519 232.194 432.078 233.574 431.194 234.678C430.311 235.782 429.124 236.596 427.634 237.12ZM416.953 235.216H422.79C424.336 235.216 425.536 234.871 426.392 234.181C427.275 233.463 427.717 232.442 427.717 231.117C427.717 229.82 427.275 228.813 426.392 228.095C425.536 227.35 424.336 226.977 422.79 226.977H416.953V235.216ZM423.328 248.05C424.929 248.05 426.185 247.663 427.096 246.891C428.007 246.118 428.462 245.041 428.462 243.661C428.462 242.254 427.979 241.136 427.013 240.308C426.047 239.48 424.764 239.066 423.163 239.066H416.953V248.05H423.328ZM443.03 248.091H452.759V251.9H438.31V223.127H443.03V248.091ZM461.425 226.936V235.381H471.361V239.232H461.425V248.05H472.603V251.9H456.706V223.086H472.603V226.936H461.425ZM493.891 223.127V251.9H489.171V223.127H493.891ZM523.726 251.9H519.007L504.807 230.413V251.9H500.087V223.086H504.807L519.007 244.531V223.086H523.726V251.9ZM559.267 223.127V226.977H551.608V251.9H546.888V226.977H539.188V223.127H559.267ZM587.024 223.127V251.9H582.304V239.314H568.766V251.9H564.047V223.127H568.766V235.464H582.304V223.127H587.024ZM597.957 226.936V235.381H607.893V239.232H597.957V248.05H609.135V251.9H593.237V223.086H609.135V226.936H597.957ZM642.635 223.127V226.977H630.422V235.464H639.944V239.314H630.422V251.9H625.702V223.127H642.635ZM651.687 223.127V241.467C651.687 243.648 652.252 245.29 653.384 246.394C654.543 247.498 656.144 248.05 658.186 248.05C660.256 248.05 661.857 247.498 662.989 246.394C664.148 245.29 664.728 243.648 664.728 241.467V223.127H669.447V241.384C669.447 243.73 668.937 245.718 667.915 247.346C666.894 248.974 665.528 250.189 663.817 250.989C662.106 251.79 660.215 252.19 658.145 252.19C656.075 252.19 654.184 251.79 652.473 250.989C650.79 250.189 649.451 248.974 648.457 247.346C647.464 245.718 646.967 243.73 646.967 241.384V223.127H651.687ZM694.181 223.127V226.977H686.522V251.9H681.802V226.977H674.102V223.127H694.181ZM703.639 223.127V241.467C703.639 243.648 704.205 245.29 705.336 246.394C706.495 247.498 708.096 248.05 710.139 248.05C712.209 248.05 713.809 247.498 714.941 246.394C716.1 245.29 716.68 243.648 716.68 241.467V223.127H721.399V241.384C721.399 243.73 720.889 245.718 719.868 247.346C718.846 248.974 717.48 250.189 715.769 250.989C714.058 251.79 712.167 252.19 710.097 252.19C708.027 252.19 706.137 251.79 704.425 250.989C702.742 250.189 701.403 248.974 700.41 247.346C699.416 245.718 698.919 243.73 698.919 241.384V223.127H703.639ZM742.49 251.9L735.866 240.391H732.264V251.9H727.544V223.127H737.48C739.688 223.127 741.551 223.513 743.069 224.286C744.615 225.059 745.76 226.094 746.506 227.391C747.278 228.688 747.665 230.137 747.665 231.738C747.665 233.615 747.113 235.326 746.009 236.872C744.932 238.39 743.263 239.425 740.999 239.977L748.12 251.9H742.49ZM732.264 236.623H737.48C739.247 236.623 740.572 236.182 741.455 235.299C742.366 234.415 742.821 233.229 742.821 231.738C742.821 230.248 742.379 229.089 741.496 228.261C740.613 227.405 739.274 226.977 737.48 226.977H732.264V236.623ZM758.422 226.936V235.381H768.358V239.232H758.422V248.05H769.6V251.9H753.702V223.086H769.6V226.936H758.422Z" fill="#00629A"/>
</svg>
