<svg width="26" height="26" viewBox="0 0 26 26" fill="none" xmlns="http://www.w3.org/2000/svg">
<path d="M12.9999 25.7143C9.66571 25.7143 6.46812 24.3898 4.11052 22.0322C1.75292 19.6746 0.428432 16.477 0.428432 13.1429C0.428432 9.8087 1.75292 6.61111 4.11052 4.25351C6.46812 1.89591 9.66571 0.571426 12.9999 0.571426C16.334 0.571426 19.5316 1.89591 21.8892 4.25351C24.2468 6.61111 25.5713 9.8087 25.5713 13.1429C25.5713 16.477 24.2468 19.6746 21.8892 22.0322C19.5316 24.3898 16.334 25.7143 12.9999 25.7143ZM18.4999 13.9286C18.7082 13.9286 18.9081 13.8458 19.0554 13.6984C19.2028 13.5511 19.2856 13.3512 19.2856 13.1429C19.2856 12.9345 19.2028 12.7346 19.0554 12.5873C18.9081 12.4399 18.7082 12.3571 18.4999 12.3571L9.39657 12.3571L12.7704 8.98485C12.918 8.83732 13.0009 8.63722 13.0009 8.42857C13.0009 8.21992 12.918 8.01982 12.7704 7.87228C12.6229 7.72475 12.4228 7.64186 12.2141 7.64186C12.0055 7.64186 11.8054 7.72475 11.6579 7.87228L6.94357 12.5866C6.8704 12.6596 6.81235 12.7463 6.77274 12.8417C6.73313 12.9372 6.71274 13.0395 6.71274 13.1429C6.71274 13.2462 6.73313 13.3485 6.77274 13.444C6.81235 13.5394 6.8704 13.6262 6.94357 13.6991L11.6579 18.4134C11.8054 18.561 12.0055 18.6438 12.2141 18.6438C12.4228 18.6438 12.6229 18.561 12.7704 18.4134C12.918 18.2659 13.0009 18.0658 13.0009 17.8571C13.0009 17.6485 12.918 17.4484 12.7704 17.3009L9.39657 13.9286L18.4999 13.9286Z" fill="#699BF7"/>
</svg>
