<svg width="1440" height="695" viewBox="0 0 1440 695" fill="none" xmlns="http://www.w3.org/2000/svg">
<ellipse opacity="0.6" cx="1280.34" cy="206.749" rx="159.661" ry="153.735" fill="#8A17E8"/>
<ellipse opacity="0.6" cx="962.582" cy="509.415" rx="76.0796" ry="69.9363" fill="#1FA6FA"/>
<g filter="url(#filter0_b_872_415)">
<path d="M-2 0H1440V476.128L-2 625.959V0Z" fill="#F2F7FF" fill-opacity="0.7"/>
</g>
<path d="M1277.31 547.498L1440 503.536V557.111L1277.31 601.072V547.498Z" fill="#FFE3AA"/>
<path d="M885.595 540.061L1439.89 476.112V529.397L885.595 593.346V540.061Z" fill="#DCB1FF"/>
<path d="M1030.51 469.882L1410.91 426.158V479.443L1030.51 523.167V469.882Z" fill="#B874F1"/>
<path d="M135.669 572.598L516.067 528.874V582.159L135.669 625.883V572.598Z" fill="#FFE3AA"/>
<path d="M-2 641.693L378.398 597.968V651.253L-2 694.977V641.693Z" fill="#DCB1FF"/>
<g filter="url(#filter1_d_872_415)">
<path d="M1336.86 241C1336.86 165.575 1336.86 127.863 1313.43 104.431C1289.99 81 1252.28 81 1176.86 81H14.0005C6.45801 81 2.68677 81 0.343628 83.3431C-1.99951 85.6863 -1.99951 89.4575 -1.99951 97V569L717.866 658.235C718.932 658.367 719.466 658.434 720.001 658.428C720.537 658.422 721.068 658.345 722.132 658.191L1336.86 569V241Z" fill="white" fill-opacity="0.5" shape-rendering="crispEdges"/>
<path d="M1336.61 241C1336.61 203.281 1336.61 175.016 1333.68 153.252C1330.76 131.494 1324.91 116.27 1313.25 104.608C1301.59 92.9467 1286.36 87.1019 1264.61 84.1767C1242.84 81.2505 1214.58 81.25 1176.86 81.25H14.0005C10.2222 81.25 7.41357 81.2505 5.25562 81.5407C3.10486 81.8298 1.63782 82.4025 0.520386 83.5199C-0.596924 84.6373 -1.16968 86.1043 -1.45886 88.2551C-1.74902 90.4131 -1.74951 93.2217 -1.74951 97V568.779L717.897 657.987C718.969 658.12 719.483 658.183 719.999 658.178C720.514 658.173 721.026 658.099 722.096 657.944L1336.61 568.784V241Z" stroke="url(#paint0_linear_872_415)" stroke-width="0.5" shape-rendering="crispEdges"/>
</g>
<g filter="url(#filter2_d_872_415)">
<path d="M559.5 226.6H582.75V244H538.5V146.95H582.75V164.05H559.5V186.85H581.25V203.35H559.5V226.6ZM634.046 146.95H654.296L634.196 244H610.046L589.946 146.95H610.346L622.196 217.75L634.046 146.95ZM685.623 226.6H708.873V244H664.623V146.95H708.873V164.05H685.623V186.85H707.373V203.35H685.623V226.6ZM776.67 244H755.67V163.45C755.67 162.65 755.37 161.95 754.77 161.35C754.27 160.75 753.62 160.45 752.82 160.45H744.72C743.92 160.45 743.22 160.75 742.62 161.35C742.12 161.95 741.87 162.65 741.87 163.45V244H720.87V165.25C720.87 152.05 727.07 145.45 739.47 145.45H758.07C770.47 145.45 776.67 152.05 776.67 165.25V244ZM785.196 164.8V146.95H837.696V164.8H821.946V244H800.946V164.8H785.196ZM901.139 172.45H881.189V164.8C881.189 164 880.889 163.3 880.289 162.7C879.789 162.1 879.139 161.8 878.339 161.8H870.089C869.289 161.8 868.589 162.1 867.989 162.7C867.489 163.3 867.239 164 867.239 164.8V182.05C867.239 182.85 867.489 183.55 867.989 184.15C868.589 184.75 869.289 185.05 870.089 185.05H883.589C895.989 185.25 902.189 191.85 902.189 204.85V225.7C902.189 238.9 895.989 245.5 883.589 245.5H865.889C853.489 245.5 847.289 238.9 847.289 225.7V215.65H867.239V226.45C867.239 227.25 867.489 227.95 867.989 228.55C868.589 229.15 869.289 229.45 870.089 229.45H879.389C880.189 229.45 880.839 229.15 881.339 228.55C881.939 227.95 882.239 227.25 882.239 226.45V207.4C882.239 206.6 881.939 205.9 881.339 205.3C880.839 204.7 880.189 204.4 879.389 204.4H865.889C853.489 204.4 847.289 197.8 847.289 184.6V165.25C847.289 152.05 853.489 145.45 865.889 145.45H882.539C894.939 145.45 901.139 152.05 901.139 165.25V172.45Z" fill="url(#paint1_linear_872_415)"/>
<path d="M559.5 226.6H555.5V230.6H559.5V226.6ZM582.75 226.6H586.75V222.6H582.75V226.6ZM582.75 244V248H586.75V244H582.75ZM538.5 244H534.5V248H538.5V244ZM538.5 146.95V142.95H534.5V146.95H538.5ZM582.75 146.95H586.75V142.95H582.75V146.95ZM582.75 164.05V168.05H586.75V164.05H582.75ZM559.5 164.05V160.05H555.5V164.05H559.5ZM559.5 186.85H555.5V190.85H559.5V186.85ZM581.25 186.85H585.25V182.85H581.25V186.85ZM581.25 203.35V207.35H585.25V203.35H581.25ZM559.5 203.35V199.35H555.5V203.35H559.5ZM559.5 230.6H582.75V222.6H559.5V230.6ZM578.75 226.6V244H586.75V226.6H578.75ZM582.75 240H538.5V248H582.75V240ZM542.5 244V146.95H534.5V244H542.5ZM538.5 150.95H582.75V142.95H538.5V150.95ZM578.75 146.95V164.05H586.75V146.95H578.75ZM582.75 160.05H559.5V168.05H582.75V160.05ZM555.5 164.05V186.85H563.5V164.05H555.5ZM559.5 190.85H581.25V182.85H559.5V190.85ZM577.25 186.85V203.35H585.25V186.85H577.25ZM581.25 199.35H559.5V207.35H581.25V199.35ZM555.5 203.35V226.6H563.5V203.35H555.5ZM634.046 146.95V142.95H630.66L630.101 146.29L634.046 146.95ZM654.296 146.95L658.213 147.761L659.21 142.95H654.296V146.95ZM634.196 244V248H637.453L638.113 244.811L634.196 244ZM610.046 244L606.13 244.811L606.79 248H610.046V244ZM589.946 146.95V142.95H585.033L586.03 147.761L589.946 146.95ZM610.346 146.95L614.292 146.29L613.733 142.95H610.346V146.95ZM622.196 217.75L618.251 218.41H626.142L622.196 217.75ZM634.046 150.95H654.296V142.95H634.046V150.95ZM650.38 146.139L630.28 243.189L638.113 244.811L658.213 147.761L650.38 146.139ZM634.196 240H610.046V248H634.196V240ZM613.963 243.189L593.863 146.139L586.03 147.761L606.13 244.811L613.963 243.189ZM589.946 150.95H610.346V142.95H589.946V150.95ZM606.401 147.61L618.251 218.41L626.142 217.09L614.292 146.29L606.401 147.61ZM626.142 218.41L637.992 147.61L630.101 146.29L618.251 217.09L626.142 218.41ZM685.623 226.6H681.623V230.6H685.623V226.6ZM708.873 226.6H712.873V222.6H708.873V226.6ZM708.873 244V248H712.873V244H708.873ZM664.623 244H660.623V248H664.623V244ZM664.623 146.95V142.95H660.623V146.95H664.623ZM708.873 146.95H712.873V142.95H708.873V146.95ZM708.873 164.05V168.05H712.873V164.05H708.873ZM685.623 164.05V160.05H681.623V164.05H685.623ZM685.623 186.85H681.623V190.85H685.623V186.85ZM707.373 186.85H711.373V182.85H707.373V186.85ZM707.373 203.35V207.35H711.373V203.35H707.373ZM685.623 203.35V199.35H681.623V203.35H685.623ZM685.623 230.6H708.873V222.6H685.623V230.6ZM704.873 226.6V244H712.873V226.6H704.873ZM708.873 240H664.623V248H708.873V240ZM668.623 244V146.95H660.623V244H668.623ZM664.623 150.95H708.873V142.95H664.623V150.95ZM704.873 146.95V164.05H712.873V146.95H704.873ZM708.873 160.05H685.623V168.05H708.873V160.05ZM681.623 164.05V186.85H689.623V164.05H681.623ZM685.623 190.85H707.373V182.85H685.623V190.85ZM703.373 186.85V203.35H711.373V186.85H703.373ZM707.373 199.35H685.623V207.35H707.373V199.35ZM681.623 203.35V226.6H689.623V203.35H681.623ZM776.67 244V248H780.67V244H776.67ZM755.67 244H751.67V248H755.67V244ZM754.77 161.35L751.697 163.911L751.813 164.05L751.941 164.178L754.77 161.35ZM742.62 161.35L739.791 158.522L739.663 158.65L739.547 158.789L742.62 161.35ZM741.87 244V248H745.87V244H741.87ZM720.87 244H716.87V248H720.87V244ZM776.67 240H755.67V248H776.67V240ZM759.67 244V163.45H751.67V244H759.67ZM759.67 163.45C759.67 161.52 758.898 159.821 757.598 158.522L751.941 164.178C751.922 164.16 751.84 164.069 751.768 163.901C751.694 163.728 751.67 163.564 751.67 163.45H759.67ZM757.842 158.789C756.561 157.252 754.773 156.45 752.82 156.45V164.45C752.709 164.45 752.49 164.426 752.231 164.307C751.969 164.186 751.792 164.025 751.697 163.911L757.842 158.789ZM752.82 156.45H744.72V164.45H752.82V156.45ZM744.72 156.45C742.789 156.45 741.091 157.222 739.791 158.522L745.448 164.178C745.429 164.197 745.338 164.279 745.17 164.352C744.997 164.426 744.833 164.45 744.72 164.45V156.45ZM739.547 158.789C738.432 160.127 737.87 161.739 737.87 163.45H745.87C745.87 163.473 745.865 163.557 745.824 163.67C745.783 163.785 745.728 163.868 745.692 163.911L739.547 158.789ZM737.87 163.45V244H745.87V163.45H737.87ZM741.87 240H720.87V248H741.87V240ZM724.87 244V165.25H716.87V244H724.87ZM724.87 165.25C724.87 159.206 726.294 155.418 728.435 153.139C730.532 150.906 733.952 149.45 739.47 149.45V141.45C732.587 141.45 726.707 143.294 722.604 147.661C718.545 151.982 716.87 158.094 716.87 165.25H724.87ZM739.47 149.45H758.07V141.45H739.47V149.45ZM758.07 149.45C763.587 149.45 767.007 150.906 769.104 153.139C771.245 155.418 772.67 159.206 772.67 165.25H780.67C780.67 158.094 778.994 151.982 774.935 147.661C770.832 143.294 764.952 141.45 758.07 141.45V149.45ZM772.67 165.25V244H780.67V165.25H772.67ZM785.196 164.8H781.196V168.8H785.196V164.8ZM785.196 146.95V142.95H781.196V146.95H785.196ZM837.696 146.95H841.696V142.95H837.696V146.95ZM837.696 164.8V168.8H841.696V164.8H837.696ZM821.946 164.8V160.8H817.946V164.8H821.946ZM821.946 244V248H825.946V244H821.946ZM800.946 244H796.946V248H800.946V244ZM800.946 164.8H804.946V160.8H800.946V164.8ZM789.196 164.8V146.95H781.196V164.8H789.196ZM785.196 150.95H837.696V142.95H785.196V150.95ZM833.696 146.95V164.8H841.696V146.95H833.696ZM837.696 160.8H821.946V168.8H837.696V160.8ZM817.946 164.8V244H825.946V164.8H817.946ZM821.946 240H800.946V248H821.946V240ZM804.946 244V164.8H796.946V244H804.946ZM800.946 160.8H785.196V168.8H800.946V160.8ZM901.139 172.45V176.45H905.139V172.45H901.139ZM881.189 172.45H877.189V176.45H881.189V172.45ZM880.289 162.7L877.216 165.261L877.332 165.4L877.461 165.528L880.289 162.7ZM867.989 162.7L865.161 159.872L865.032 160L864.916 160.139L867.989 162.7ZM867.989 184.15L864.916 186.711L865.032 186.85L865.161 186.978L867.989 184.15ZM883.589 185.05L883.654 181.051L883.621 181.05H883.589V185.05ZM847.289 215.65V211.65H843.289V215.65H847.289ZM867.239 215.65H871.239V211.65H867.239V215.65ZM867.989 228.55L864.916 231.111L865.032 231.25L865.161 231.378L867.989 228.55ZM881.339 228.55L878.511 225.722L878.382 225.85L878.266 225.989L881.339 228.55ZM881.339 205.3L878.266 207.861L878.382 208L878.511 208.128L881.339 205.3ZM901.139 168.45H881.189V176.45H901.139V168.45ZM885.189 172.45V164.8H877.189V172.45H885.189ZM885.189 164.8C885.189 162.87 884.417 161.171 883.117 159.872L877.461 165.528C877.442 165.51 877.36 165.419 877.287 165.251C877.213 165.078 877.189 164.914 877.189 164.8H885.189ZM883.362 160.139C882.081 158.602 880.293 157.8 878.339 157.8V165.8C878.229 165.8 878.01 165.776 877.75 165.657C877.488 165.536 877.311 165.375 877.216 165.261L883.362 160.139ZM878.339 157.8H870.089V165.8H878.339V157.8ZM870.089 157.8C868.159 157.8 866.46 158.572 865.161 159.872L870.817 165.528C870.799 165.547 870.708 165.629 870.54 165.702C870.367 165.776 870.203 165.8 870.089 165.8V157.8ZM864.916 160.139C863.801 161.477 863.239 163.089 863.239 164.8H871.239C871.239 164.823 871.234 164.907 871.194 165.02C871.152 165.135 871.098 165.218 871.062 165.261L864.916 160.139ZM863.239 164.8V182.05H871.239V164.8H863.239ZM863.239 182.05C863.239 183.761 863.801 185.373 864.916 186.711L871.062 181.589C871.098 181.632 871.152 181.715 871.194 181.83C871.234 181.943 871.239 182.027 871.239 182.05H863.239ZM865.161 186.978C866.46 188.278 868.159 189.05 870.089 189.05V181.05C870.203 181.05 870.367 181.074 870.54 181.148C870.708 181.221 870.799 181.303 870.818 181.322L865.161 186.978ZM870.089 189.05H883.589V181.05H870.089V189.05ZM883.525 189.049C889.054 189.139 892.505 190.633 894.624 192.889C896.774 195.178 898.189 198.926 898.189 204.85H906.189C906.189 197.774 904.504 191.722 900.454 187.411C896.373 183.067 890.524 181.161 883.654 181.051L883.525 189.049ZM898.189 204.85V225.7H906.189V204.85H898.189ZM898.189 225.7C898.189 231.744 896.765 235.532 894.624 237.811C892.527 240.044 889.106 241.5 883.589 241.5V249.5C890.472 249.5 896.352 247.656 900.454 243.289C904.513 238.968 906.189 232.856 906.189 225.7H898.189ZM883.589 241.5H865.889V249.5H883.589V241.5ZM865.889 241.5C860.372 241.5 856.952 240.044 854.854 237.811C852.713 235.532 851.289 231.744 851.289 225.7H843.289C843.289 232.856 844.965 238.968 849.024 243.289C853.127 247.656 859.006 249.5 865.889 249.5V241.5ZM851.289 225.7V215.65H843.289V225.7H851.289ZM847.289 219.65H867.239V211.65H847.289V219.65ZM863.239 215.65V226.45H871.239V215.65H863.239ZM863.239 226.45C863.239 228.161 863.801 229.773 864.916 231.111L871.062 225.989C871.098 226.032 871.152 226.115 871.194 226.23C871.234 226.343 871.239 226.427 871.239 226.45H863.239ZM865.161 231.378C866.46 232.678 868.159 233.45 870.089 233.45V225.45C870.203 225.45 870.367 225.474 870.54 225.548C870.708 225.621 870.799 225.703 870.818 225.722L865.161 231.378ZM870.089 233.45H879.389V225.45H870.089V233.45ZM879.389 233.45C881.343 233.45 883.131 232.648 884.412 231.111L878.266 225.989C878.361 225.875 878.538 225.714 878.8 225.593C879.06 225.474 879.279 225.45 879.389 225.45V233.45ZM884.167 231.378C885.467 230.079 886.239 228.38 886.239 226.45H878.239C878.239 226.336 878.263 226.172 878.337 225.999C878.41 225.831 878.492 225.74 878.511 225.722L884.167 231.378ZM886.239 226.45V207.4H878.239V226.45H886.239ZM886.239 207.4C886.239 205.47 885.467 203.771 884.167 202.472L878.511 208.128C878.492 208.11 878.41 208.019 878.337 207.851C878.263 207.678 878.239 207.514 878.239 207.4H886.239ZM884.412 202.739C883.131 201.202 881.343 200.4 879.389 200.4V208.4C879.279 208.4 879.06 208.377 878.8 208.257C878.538 208.136 878.361 207.975 878.266 207.861L884.412 202.739ZM879.389 200.4H865.889V208.4H879.389V200.4ZM865.889 200.4C860.372 200.4 856.952 198.944 854.854 196.711C852.713 194.432 851.289 190.644 851.289 184.6H843.289C843.289 191.756 844.965 197.868 849.024 202.189C853.127 206.556 859.006 208.4 865.889 208.4V200.4ZM851.289 184.6V165.25H843.289V184.6H851.289ZM851.289 165.25C851.289 159.206 852.713 155.418 854.854 153.139C856.952 150.906 860.372 149.45 865.889 149.45V141.45C859.006 141.45 853.127 143.294 849.024 147.661C844.965 151.982 843.289 158.094 843.289 165.25H851.289ZM865.889 149.45H882.539V141.45H865.889V149.45ZM882.539 149.45C888.056 149.45 891.477 150.906 893.574 153.139C895.715 155.418 897.139 159.206 897.139 165.25H905.139C905.139 158.094 903.463 151.982 899.404 147.661C895.302 143.294 889.422 141.45 882.539 141.45V149.45ZM897.139 165.25V172.45H905.139V165.25H897.139Z" fill="white"/>
</g>
<defs>
<filter id="filter0_b_872_415" x="-102" y="-100" width="1642" height="825.959" filterUnits="userSpaceOnUse" color-interpolation-filters="sRGB">
<feFlood flood-opacity="0" result="BackgroundImageFix"/>
<feGaussianBlur in="BackgroundImage" stdDeviation="50"/>
<feComposite in2="SourceAlpha" operator="in" result="effect1_backgroundBlur_872_415"/>
<feBlend mode="normal" in="SourceGraphic" in2="effect1_backgroundBlur_872_415" result="shape"/>
</filter>
<filter id="filter1_d_872_415" x="-22" y="65" width="1378.86" height="617.428" filterUnits="userSpaceOnUse" color-interpolation-filters="sRGB">
<feFlood flood-opacity="0" result="BackgroundImageFix"/>
<feColorMatrix in="SourceAlpha" type="matrix" values="0 0 0 0 0 0 0 0 0 0 0 0 0 0 0 0 0 0 127 0" result="hardAlpha"/>
<feOffset dy="4"/>
<feGaussianBlur stdDeviation="10"/>
<feComposite in2="hardAlpha" operator="out"/>
<feColorMatrix type="matrix" values="0 0 0 0 0 0 0 0 0 0 0 0 0 0 0 0 0 0 0.1 0"/>
<feBlend mode="normal" in2="BackgroundImageFix" result="effect1_dropShadow_872_415"/>
<feBlend mode="normal" in="SourceGraphic" in2="effect1_dropShadow_872_415" result="shape"/>
</filter>
<filter id="filter2_d_872_415" x="528.5" y="139.45" width="383.689" height="120.05" filterUnits="userSpaceOnUse" color-interpolation-filters="sRGB">
<feFlood flood-opacity="0" result="BackgroundImageFix"/>
<feColorMatrix in="SourceAlpha" type="matrix" values="0 0 0 0 0 0 0 0 0 0 0 0 0 0 0 0 0 0 127 0" result="hardAlpha"/>
<feOffset dy="4"/>
<feGaussianBlur stdDeviation="5"/>
<feComposite in2="hardAlpha" operator="out"/>
<feColorMatrix type="matrix" values="0 0 0 0 0 0 0 0 0 0 0 0 0 0 0 0 0 0 0.3 0"/>
<feBlend mode="normal" in2="BackgroundImageFix" result="effect1_dropShadow_872_415"/>
<feBlend mode="normal" in="SourceGraphic" in2="effect1_dropShadow_872_415" result="shape"/>
</filter>
<linearGradient id="paint0_linear_872_415" x1="667.429" y1="81" x2="667.429" y2="569" gradientUnits="userSpaceOnUse">
<stop offset="0.0447915" stop-color="#0FEFFD" stop-opacity="0"/>
<stop offset="0.543792" stop-color="#FF7500"/>
<stop offset="1" stop-color="#0FEFFD"/>
</linearGradient>
<linearGradient id="paint1_linear_872_415" x1="1137.41" y1="317.257" x2="517.847" y2="462.103" gradientUnits="userSpaceOnUse">
<stop offset="0.0489542" stop-color="#B874F1"/>
<stop offset="0.5" stop-color="#DCB1FF"/>
<stop offset="1" stop-color="#F58220"/>
</linearGradient>
</defs>
</svg>
