<svg width="26" height="35" viewBox="0 0 26 35" fill="none" xmlns="http://www.w3.org/2000/svg">
<circle cx="13" cy="16" r="13" fill="#FFAD4E"/>
<g filter="url(#filter0_b_744_911)">
<path d="M15.6517 6.88477L14.9896 17.6686L10.8261 18.3606L10.3487 7.7662L15.6517 6.88477ZM12.8429 24.5332C12.0833 24.6595 11.454 24.5764 10.955 24.2841C10.4707 23.9893 10.1799 23.5497 10.0828 22.9653C9.9978 22.454 10.0577 21.9562 10.2624 21.4718C10.4817 20.985 10.8191 20.5761 11.2745 20.2452C11.7421 19.8972 12.2827 19.6723 12.8962 19.5703C13.6413 19.4465 14.2572 19.5392 14.744 19.8486C15.2283 20.1434 15.5191 20.583 15.6162 21.1674C15.7012 21.6787 15.6413 22.1765 15.4366 22.6609C15.2295 23.1307 14.8994 23.5384 14.4464 23.8839C13.991 24.2148 13.4565 24.4312 12.8429 24.5332Z" fill="white"/>
</g>
<defs>
<filter id="filter0_b_744_911" x="4.07764" y="3.33057" width="17.9072" height="25.1611" filterUnits="userSpaceOnUse" color-interpolation-filters="sRGB">
<feFlood flood-opacity="0" result="BackgroundImageFix"/>
<feGaussianBlur in="BackgroundImage" stdDeviation="1.7771"/>
<feComposite in2="SourceAlpha" operator="in" result="effect1_backgroundBlur_744_911"/>
<feBlend mode="normal" in="SourceGraphic" in2="effect1_backgroundBlur_744_911" result="shape"/>
</filter>
</defs>
</svg>
