<svg width="176" height="176" viewBox="0 0 176 176" fill="none" xmlns="http://www.w3.org/2000/svg">
<path d="M13.6903 97.0012C13.6903 97.0012 20.3029 108.63 16.7703 118.31C13.2378 127.99 26.6263 142.472 25.2812 153.686C23.9486 164.899 36.4572 179.495 90.1749 167.753C143.893 156.024 151.033 171.185 154.603 142.837C158.174 114.488 152.378 98.0949 162.184 79.4892C171.99 60.896 167.59 36.8469 143.264 32.5475C118.938 28.248 44.4526 47.9223 36.432 50.864C28.3989 53.8058 -0.125672 55.3646 13.6903 97.0012Z" fill="#F9E0EC"/>
<path d="M110.666 166.471C110.666 166.471 124.432 163.919 128.958 167.011C133.471 170.117 98.8743 170.645 110.666 166.471Z" fill="#F9E0EC"/>
<path d="M98.9247 168.105C98.9247 168.105 104.77 167.275 103.79 168.91C102.822 170.557 92.7647 170.431 98.9247 168.105Z" fill="#F9E0EC"/>
<path opacity="0.2" d="M153.61 153.12C153.61 154.578 145.577 155.76 135.671 155.76C125.765 155.76 117.731 154.578 117.731 153.12C117.731 151.662 125.765 150.48 135.671 150.48C145.577 150.48 153.61 151.662 153.61 153.12Z" fill="#5E5E5E"/>
<path d="M142.786 141.504C133.345 94.9395 118.762 23.936 118.611 23.2195C118.548 22.9178 118.259 22.7292 117.958 22.792C117.656 22.8549 117.467 23.144 117.53 23.4458C117.631 23.9486 125.098 60.3052 132.804 98.0069C128.983 87.2709 122.446 76.3086 111.471 75.0766C111.471 75.0766 122.081 82.3555 125.287 88.9303C128.191 94.9018 134.577 115.418 137.066 118.926C138.688 126.871 140.247 134.577 141.692 141.705C141.743 141.969 141.982 142.145 142.233 142.145C142.271 142.145 142.308 142.145 142.346 142.133C142.66 142.095 142.849 141.806 142.786 141.504Z" fill="#6EA76B"/>
<path d="M140.485 94.2229C139.542 101.087 136.312 106.731 136.312 106.731C135.57 92.2114 135.004 76.648 135.092 64.3154C135.344 32.3463 139.09 13.7029 139.128 13.5143C139.19 13.2126 138.989 12.9235 138.7 12.8606C138.398 12.7977 138.109 12.9989 138.046 13.288C138.009 13.4766 134.237 32.208 133.986 64.3029C133.734 96.36 137.996 150.279 138.034 150.819C138.059 151.109 138.298 151.335 138.587 151.335C138.6 151.335 138.612 151.335 138.637 151.335C138.939 151.31 139.178 151.046 139.153 150.731C139.128 150.405 137.569 130.73 136.4 108.152C137.921 105.952 144.898 95.1657 145.137 82.456C145.401 68.2 155.646 63.4606 155.646 63.4606C141.202 67.1314 141.428 87.3589 140.485 94.2229Z" fill="#719B53"/>
<path d="M155.584 17.3612C155.282 17.2732 154.98 17.4492 154.892 17.7383C154.729 18.3166 144.181 55.1132 137.217 91.6332C136.827 88.3269 135.859 84.7315 134.703 83.0218C132.503 79.7784 129.888 67.8481 129.888 67.8481C128.656 75.8184 131.899 83.5875 133.559 87.3464C134.765 90.0744 135.784 94.5372 136.261 96.8001C132.867 115.481 130.604 133.634 131.321 146.332C131.333 146.633 131.585 146.86 131.874 146.86C131.887 146.86 131.899 146.86 131.912 146.86C132.213 146.847 132.452 146.583 132.44 146.269C130.24 107.863 155.709 18.9452 155.961 18.0526C156.049 17.7635 155.873 17.4492 155.584 17.3612Z" fill="#88BC6E"/>
<path d="M119.127 17.5371C119.127 17.5371 117.669 16.6571 117.467 19.4606C117.266 22.264 117.543 23.3577 118.825 22.2263C120.12 21.0823 120.975 16.632 119.127 17.5371Z" fill="#AC88BD"/>
<path d="M138.851 12.7223C138.851 12.7223 138.235 15.0103 141.366 13.288C144.496 11.5783 144.521 9.25258 143.289 9.32801C143.289 9.32801 142.459 7.95772 141.429 9.32801C140.385 10.6983 138.864 12.0309 138.851 12.7223Z" fill="#6B4D9E"/>
<path d="M119.441 72.9017C119.441 72.9017 118.423 71.8834 119.957 71.9714C121.49 72.0594 125.752 72.9394 127.047 75.592C128.342 78.232 124.495 77.4023 122.32 76.472C120.145 75.5417 116.525 73.3794 119.441 72.9017Z" fill="#533895"/>
<path d="M125.287 63.0206C125.287 63.0206 120.485 62.6686 119.441 60.8583C118.398 59.048 119.303 56.1943 121.39 57.1749C123.477 58.1554 128.493 62.8069 125.287 63.0206Z" fill="#533895"/>
<path d="M131.409 57.3886C131.409 57.3886 127.789 61.6252 128.493 62.6058C129.184 63.5738 134.64 60.1543 134.627 58.8092C134.615 57.464 132.943 57.8412 132.943 57.8412C132.943 57.8412 133.446 55.968 131.409 57.3886Z" fill="#533895"/>
<path d="M143 66.9555C143 66.9555 144.157 67.9737 145.64 66.264C147.123 64.5543 148.883 60.8332 146.432 61.3486C146.432 61.3486 146.068 59.6766 144.999 60.6949C143.93 61.7257 140.825 65.1577 143 66.9555Z" fill="#533895"/>
<path d="M116.575 45.6343C116.575 45.6343 115.921 44.616 116.99 44.4777C118.058 44.3394 122.835 46.6148 123.062 49.016C123.288 51.4297 115.129 48.0857 115.506 45.9611C115.506 45.9611 116.022 45.3074 116.575 45.6343Z" fill="#533895"/>
<path d="M143.931 53.3783C143.931 53.3783 143.051 54.208 140.775 52.8252C138.5 51.4297 137.859 49.8709 138.688 49.8583C138.688 49.8583 138.311 49.016 139.153 49.0663C139.983 49.104 145.225 51.8949 143.931 53.3783Z" fill="#533895"/>
<path d="M146.57 53.9315C146.57 53.9315 147.689 54.7612 149.537 54.208C151.398 53.6549 153.9 51.9326 152.831 51.1029C152.831 51.1029 153.057 50.1349 151.951 50.3612C150.832 50.6 144.534 52.6366 146.57 53.9315Z" fill="#533895"/>
<path d="M135.03 48.0731C135.03 48.0731 135.482 49.2926 137.921 48.0731C140.36 46.8537 141.29 45.0183 140.561 44.6663C140.561 44.6663 140.876 43.384 139.342 43.5223C137.808 43.648 134.678 45.9108 135.03 48.0731Z" fill="#533895"/>
<path d="M126.368 47.8092C126.368 47.8092 126.607 48.5384 127.525 48.2995C128.442 48.0606 132.101 45.1315 130.881 44.5281C130.881 44.5281 131.019 43.6103 129.913 43.7863C128.807 43.9498 125.953 46.1498 126.368 47.8092Z" fill="#533895"/>
<path d="M115.934 27.6195C115.934 27.6195 116.034 26.4 116.839 26.8149C117.644 27.2298 120.837 30.1841 120.384 31.1269C119.932 32.0698 115.758 29.5806 115.444 28.9269C115.129 28.2858 115.066 27.3052 115.934 27.6195Z" fill="#533895"/>
<path d="M129.084 29.5303C129.084 29.5303 129.121 28.4115 129.951 28.8012C130.781 29.1783 134.364 33.1509 133.773 34.8857C133.182 36.6206 127.864 32.6606 127.588 30.9886C127.374 29.744 128.669 29.04 129.084 29.5303Z" fill="#533895"/>
<path d="M137.758 25.1806C137.758 25.1806 138.726 26.1109 140.172 25.5074C141.605 24.904 144.71 21.6606 143.138 21.384C143.138 21.384 143.189 20.2651 141.932 20.8309C140.687 21.384 136.413 23.5211 137.758 25.1806Z" fill="#533895"/>
<path d="M134.188 8.77485C134.188 8.77485 133.898 7.61828 134.628 8.03313C135.357 8.44799 138.877 12.0183 138.411 13.0868C137.946 14.1554 133.584 12.4457 132.893 10.5097C132.201 8.58628 133.634 8.72456 134.188 8.77485Z" fill="#533895"/>
<path d="M138.801 9.78059C139.09 9.00116 139.845 6.78859 140.825 7.45488C140.825 7.45488 142.208 7.45488 141.944 8.34745C141.68 9.24002 140.423 13.4137 139.027 12.2697C139.04 12.2697 138.059 11.8172 138.801 9.78059Z" fill="#533895"/>
<path d="M155.106 15.5886C155.106 15.5886 155.521 17.3486 158.589 14.7966C161.644 12.2446 158.853 12.5212 158.853 12.5212C158.853 12.5212 158.325 11.5783 157.558 12.2069C156.791 12.8355 155.257 14.0172 155.106 15.5886Z" fill="#533895"/>
<path d="M151.838 26.048C151.838 26.048 151.373 27.3932 154.013 26.7017C156.653 26.0103 157.721 24.288 157.067 23.9486C157.067 23.9486 156.992 22.8549 156.25 23.2069C155.521 23.5337 153.133 24.5646 151.838 26.048Z" fill="#533895"/>
<path d="M149.587 37.1989C149.587 37.1989 151.259 38.4938 154.176 36.3189C154.176 36.3189 154.779 34.9737 152.969 34.5086C151.159 34.0435 148.82 36.8846 149.587 37.1989Z" fill="#533895"/>
<path d="M137.72 36.0172C137.72 36.0172 138.789 36.4823 140.41 36.0172C142.032 35.552 144.421 33.6034 142.824 32.736C142.824 32.736 143.151 31.856 141.994 32.0194C140.825 32.1829 136.551 35.112 137.72 36.0172Z" fill="#533895"/>
<path d="M128.405 76.0571C128.405 76.0571 126.343 76.6103 124.256 73.656C122.169 70.7017 122.408 69.4823 123.426 69.5577C123.426 69.5577 123.565 68.6149 124.47 69.1429C125.362 69.6583 132.151 75.2903 128.405 76.0571Z" fill="#6B4D9E"/>
<path d="M129.674 75.9189C129.674 75.9189 131.661 76.824 134.992 73.48C138.336 70.136 135.721 69.7212 135.721 69.7212C135.721 69.7212 135.306 68.464 134.187 68.9669C133.081 69.4823 126.858 75.7178 129.674 75.9189Z" fill="#6B4D9E"/>
<path d="M141.529 67.2571C141.529 67.2571 138.575 68.9291 136.45 65.6606C134.326 62.392 134.225 61.2103 135.445 60.8583C135.445 60.8583 135.797 59.2994 136.978 59.9908C138.16 60.6948 143.717 66.1509 141.529 67.2571Z" fill="#6B4D9E"/>
<path d="M129.184 55.2263C129.184 55.2263 125.048 59.1235 126.33 61.5749C127.612 64.0389 131.271 59.0229 131.271 59.0229C131.271 59.0229 133.244 56.8858 131.51 56.3829C129.787 55.8801 131.082 54.6732 129.184 55.2263Z" fill="#6B4D9E"/>
<path d="M143.339 45.1063C143.339 45.1063 141.692 51.5429 144.345 52.36C146.646 53.064 145.866 47.608 145.212 46.0492C144.534 44.4275 143.578 44.0126 143.339 45.1063Z" fill="#6B4D9E"/>
<path d="M119.026 42.7178C119.026 42.7178 119.994 49.7829 123.854 48.6138C127.701 47.4446 117.87 37.6138 119.026 42.7178Z" fill="#6B4D9E"/>
<path d="M115.884 31.0766C115.884 31.0766 115.695 28.9897 118.059 30.3349C120.422 31.68 122.371 34.9612 120.057 34.4583C117.732 33.9429 114.488 31.9063 115.884 31.0766Z" fill="#6B4D9E"/>
<path d="M112.54 21.4343C112.54 21.4343 111.383 19.4857 113.231 20.2274C115.092 20.9691 118.473 23.5211 117.178 23.7474C115.871 23.9863 110.503 22.4526 112.54 21.4343Z" fill="#6B4D9E"/>
<path d="M130.441 21.912C130.441 21.912 130.441 20.0892 132.39 20.8686C134.338 21.6606 137.494 25.1303 136.098 25.4572C134.703 25.784 128.995 23.7852 130.441 21.912Z" fill="#6B4D9E"/>
<path d="M147.79 21.8869C147.79 21.8869 147.89 20.6674 149.349 21.8869C150.807 23.1063 151.297 25.5703 150.631 25.7714C148.934 26.2869 145.175 22.9932 147.79 21.8869Z" fill="#6B4D9E"/>
<path d="M151.649 25.0046C151.649 25.0046 152.957 20.3532 155.106 20.9692C155.106 20.9692 156.439 20.416 156.451 21.7737C156.451 23.1315 151.335 27.5817 151.649 25.0046Z" fill="#6B4D9E"/>
<path d="M145.427 31.1017C145.427 31.1017 144.207 31.0137 144.484 32.3588C144.76 33.6914 146.923 36.8343 148.129 36.0297C149.349 35.2 147.061 28.5623 145.427 31.1017Z" fill="#6B4D9E"/>
<path d="M136.438 34.4583C136.438 34.4583 136.526 36.0046 138.198 35.0618C139.87 34.1189 142.334 31.1018 141.19 29.9452C141.19 29.9452 140.7 28.9395 139.933 29.3166C139.166 29.7063 136.476 31.9818 136.438 34.4583Z" fill="#6B4D9E"/>
<path d="M131.233 42.5417C131.233 42.5417 131.56 41.4229 132.239 42.1143C132.918 42.8057 136.853 47.7714 134.841 47.96C132.83 48.136 127.474 43.5349 131.233 42.5417Z" fill="#6B4D9E"/>
<path d="M128.405 75.5417C128.405 75.5417 126.594 73.7692 128.945 70.4629C131.309 67.1566 131.51 69.1806 131.51 69.1806C131.51 69.1806 133.773 68.4137 133.383 69.9097C133.006 71.4057 130.152 77.3143 128.405 75.5417Z" fill="#8262A9"/>
<path d="M144.069 67.6846C144.069 67.6846 144.27 69.8343 147.652 67.9486C151.046 66.0754 152.115 64.7555 150.581 64.2652C150.581 64.2652 150.769 62.8949 149.449 63.272C148.129 63.6492 144.647 64.6172 144.069 67.6846Z" fill="#8262A9"/>
<path d="M139.266 59.6514C139.266 59.6514 138.851 58.4697 140.385 58.9851C141.919 59.5131 144.484 66.352 142.61 66.528C140.725 66.704 134.954 59.928 139.266 59.6514Z" fill="#8262A9"/>
<path d="M123.791 56.4457C123.791 56.4457 124.419 54.5977 125.501 55.7543C126.582 56.8983 128.103 62.6057 126.33 62.0777C124.558 61.5623 120.07 56.4834 123.791 56.4457Z" fill="#8262A9"/>
<path d="M127.562 42.2274C127.562 42.2274 127.185 41.0206 125.89 42.5543C124.595 44.088 122.785 49.104 125.614 48.0857C128.442 47.0548 131.962 42.0011 127.562 42.2274Z" fill="#8262A9"/>
<path d="M134.464 42.2903C134.464 42.2903 135.344 40.3795 136.186 41.6618C137.016 42.944 136.475 47.6835 135.017 47.7086C133.534 47.7463 131.761 41.9132 134.464 42.2903Z" fill="#8262A9"/>
<path d="M150.832 47.5451C150.832 47.5451 150.782 45.8606 148.934 46.9291C147.074 47.9977 143.931 52.1211 145.59 52.6743C147.262 53.24 153.297 50.8011 150.832 47.5451Z" fill="#8262A9"/>
<path d="M152.039 30.5234C152.039 30.5234 150.883 29.7063 149.676 31.3406C148.469 32.9749 146.948 37.0103 148.481 37.0103C150.003 37.0103 156.314 31.6423 152.039 30.5234Z" fill="#8262A9"/>
<path d="M150.933 19.8629C150.933 19.8629 149.537 19.6492 149.776 21.1201C150.015 22.5909 150.744 26.5006 152.077 25.0172C153.384 23.5212 153.899 17.8515 150.933 19.8629Z" fill="#8262A9"/>
<path d="M156.15 10.6732C156.15 10.6732 155.383 8.93829 154.742 10.4217C154.088 11.9052 152.63 16.3554 154.742 16.0286C156.841 15.7017 159.745 10.1829 156.15 10.6732Z" fill="#8262A9"/>
<path d="M151.637 11.2012C151.637 11.2012 152.693 9.94404 153.359 11.2012C154.025 12.4583 154.842 16.0663 154.05 15.8903C153.246 15.7269 148.444 12.1692 151.637 11.2012Z" fill="#6B4D9E"/>
<path d="M138.022 7.49261C138.022 7.49261 138.864 7.06518 139.354 8.10861C139.844 9.15204 140.473 13.2503 138.914 13.2126C137.355 13.1623 134.489 6.56232 138.022 7.49261Z" fill="#8262A9"/>
<path d="M117.518 23.4835C117.518 23.4835 115.833 23.9863 115.041 20.6298C114.249 17.2732 115.431 17.8515 115.431 17.8515C115.431 17.8515 115.645 16.4309 116.562 16.6069C117.493 16.7829 119.001 23.1189 117.518 23.4835Z" fill="#8262A9"/>
<path d="M137.255 18.6938C137.255 18.6938 136.048 17.6252 135.86 19.7121C135.671 21.7989 134.98 25.3818 137.255 25.0046C139.531 24.6275 143.516 17.8138 137.255 18.6938Z" fill="#8262A9"/>
<path d="M132.729 29.6812C132.729 29.6812 132.943 27.9463 134.439 28.7258C135.947 29.5052 138.965 34.6721 136.136 35.3258C133.307 35.9669 130.265 29.0149 132.729 29.6812Z" fill="#8262A9"/>
<path d="M119.931 27.9337C119.931 27.9337 121 27.104 121.842 27.6949C122.685 28.2857 122.672 33.2263 121.842 33.5029C121.013 33.7795 116.286 29.392 119.931 27.9337Z" fill="#8262A9"/>
<path d="M126.544 28.5246C126.544 28.5246 125.853 27.9463 125.01 28.7258C124.181 29.5052 121.528 33.7921 124.407 33.3395C127.286 32.8869 129.41 27.8709 126.544 28.5246Z" fill="#6B4D9E"/>
<path d="M127.059 75.6801C127.059 75.6801 126.167 76.9498 127.059 78.8732C127.059 78.8732 127.675 77.2766 128.002 77.1635C128.329 77.0503 130.579 78.5338 130.579 78.5338L130.064 76.8869L132.075 77.7166C132.088 77.7166 130.441 73.5681 127.059 75.6801Z" fill="#B96F31"/>
<path d="M142.246 66.2515C142.246 66.2515 138.399 67.1566 137.708 70.3497L140.8 68.552L144.069 71.28V69.8217L146.256 70.8275C146.256 70.84 145.866 66.2137 142.246 66.2515Z" fill="#B96F31"/>
<path d="M127.022 61.7509C127.022 61.7509 124.369 62.4172 123.627 64.7806L125.325 63.8126V65.1954L127.022 63.0206L129.159 64.6423V63.2091L130.077 63.7497C130.064 63.7497 129.297 61.6 127.022 61.7509Z" fill="#B96F31"/>
<path d="M125.099 47.5452C125.099 47.5452 128.694 47.1555 129.147 50.4995L127.55 49.4309V50.8263L125.099 48.7395L123.841 50.8263L123.615 50.3235L122.459 51.3417C122.471 51.3417 121.905 48.9783 125.099 47.5452Z" fill="#B96F31"/>
<path d="M134.263 47.1806C134.263 47.1806 137.67 46.4263 137.896 49.8583L136.438 48.6137C136.438 48.6137 137.129 50.7383 137.004 50.688C136.878 50.6377 135.344 48.9028 135.344 48.9028L132.566 49.8583L133.584 48.4628L131.17 48.9028C131.183 48.9028 132.792 47.1931 134.263 47.1806Z" fill="#B96F31"/>
<path d="M141.567 55.088C141.567 55.088 142.472 52.5989 144.345 52.36C146.218 52.1337 147.136 52.624 147.651 55.8172L146.168 54.3966L145.879 55.3646L144.949 53.8309L142.246 56.056L143.063 54.56L141.567 55.088Z" fill="#B96F31"/>
<path d="M144.835 38.0538C144.835 38.0538 145.351 36.2435 148.481 36.3817C151.611 36.52 151.435 39.5749 151.435 39.5749L149.261 37.9657C149.261 37.9657 150.04 39.3989 149.751 39.424C149.462 39.4618 148.632 38.104 148.632 38.104L146.055 38.9715L146.897 37.5635L144.835 38.0538Z" fill="#B96F31"/>
<path d="M135.621 34.4583C135.621 34.4583 137.846 33.9555 138.751 37.0103L137.18 36.0172L136.941 37.576L135.759 35.3635L133.32 37.0103L133.635 35.6149L131.824 36.1429C131.824 36.1429 132.516 33.4652 135.621 34.4583Z" fill="#B96F31"/>
<path d="M121.981 32.6229C121.981 32.6229 123.879 31.416 124.671 34.232L123.489 33.3017L124.256 34.6846L122.245 33.6412L121.453 35.2126V33.7794L119.114 36.3691C119.102 36.3817 118.687 33.2514 121.981 32.6229Z" fill="#B96F31"/>
<path d="M117.832 22.1006C117.832 22.1006 119.014 21.5852 119.793 23.5086L118.813 22.9052L119.051 23.6343L118.083 23.32L117.719 24.7155C117.706 24.7155 116.147 23.2823 117.832 22.1006Z" fill="#B96F31"/>
<path d="M132.98 26.7143C132.98 26.7143 134.036 24.4892 136.425 24.6777C138.814 24.8663 139.442 27.0663 139.442 27.0663L138.097 26.136L139.04 27.7326L137.041 26.0857L135.306 27.1543L135.444 26.0354L132.98 26.7143Z" fill="#B96F31"/>
<path d="M148.029 26.6515C148.029 26.6515 149.525 24.4766 152.177 24.8538C154.843 25.2309 153.347 28.5246 153.347 28.5246L152.793 26.4378L152.24 27.4812L151.637 26.1989L149.751 27.4812L150.367 25.8218L148.029 26.6515Z" fill="#B96F31"/>
<path d="M151.875 16.984C151.875 16.984 153.045 15.1234 154.691 15.6263C156.338 16.1291 156.451 18.0651 156.451 18.0651L155.27 16.8834L155.232 18.1531L154.038 16.7326L152.894 17.5497L153.107 16.6571L151.875 16.984Z" fill="#B96F31"/>
<path d="M135.332 14.608C135.332 14.608 136.89 12.3074 138.65 12.5212C140.41 12.7349 141.856 15.0983 141.856 15.0983L139.996 14.0926C139.996 14.0926 140.549 16.2172 140.322 16.1794C140.096 16.1417 139.103 14.344 139.103 14.344L136.89 15.2869L137.117 14.1932L135.332 14.608Z" fill="#B96F31"/>
<path d="M117.845 55.5406C117.845 55.5406 116.563 52.448 119.479 54.1829C121.465 55.3646 121.038 56.9737 121.038 56.9737C121.038 56.9737 122.094 55.1509 123.062 56.232C124.03 57.3132 121.83 60.368 121.83 60.368C121.83 60.368 122.459 64.5794 121.516 64.3029C120.573 64.0263 119.529 62.2537 119.529 62.2537C119.529 62.2537 117.267 64.7177 116.852 63.2092C116.437 61.7006 117.795 59.8149 117.795 59.8149C117.795 59.8149 114.174 57.6275 114.664 56.0686C115.167 54.4972 117.845 55.5406 117.845 55.5406Z" fill="#AC88BD"/>
<path d="M152.303 45.144C152.303 45.144 150.103 42.24 149.437 43.4972C148.758 44.7543 149.914 46.0492 149.914 46.0492C149.914 46.0492 146.407 46.0869 147.375 47.5326C148.343 48.9657 150.292 48.9029 150.292 48.9029C150.292 48.9029 149.588 51.6812 150.669 51.9326C151.75 52.1714 152.831 49.8834 152.831 49.8834C152.831 49.8834 154.151 51.4046 154.842 50.7006C155.534 49.9966 154.264 47.5452 154.264 47.5452C154.264 47.5452 156.037 46.5897 155.546 45.5463C155.069 44.4903 154.252 43.9246 152.303 45.144Z" fill="#AC88BD"/>
<path d="M146.08 22.7543C146.08 22.7543 143.051 25.784 144.823 25.5075C146.596 25.2309 147.262 24.0492 147.262 24.0492C147.262 24.0492 148.595 26.1235 148.896 25.4572C149.198 24.7909 148.708 23.2069 148.708 23.2069C148.708 23.2069 150.267 23.8103 150.644 22.7669C151.033 21.7235 148.884 21.208 148.884 21.208C148.884 21.208 147.916 17.2732 146.86 18.7063C145.804 20.1269 146.86 20.7052 146.86 20.7052C146.86 20.7052 144.446 19.624 144.245 20.7052C144.069 21.7486 146.08 22.7543 146.08 22.7543Z" fill="#AC88BD"/>
<path d="M128.027 40.216C128.027 40.216 126.142 36.5452 125.45 38.7326C124.759 40.92 126.406 41.9635 126.406 41.9635C126.406 41.9635 124.218 42.1018 124.797 43.6858C125.375 45.2698 127.952 43.1452 127.952 43.1452C127.952 43.1452 128.103 46.2126 129.976 45.6469C131.849 45.0812 130.014 43.0446 130.014 43.0446C130.014 43.0446 132.98 42.5669 132.138 40.9326C131.296 39.2983 129.8 40.8195 129.8 40.8195C129.8 40.8195 130.341 39.0218 129.41 38.5943C128.467 38.1669 128.027 40.216 128.027 40.216Z" fill="#AC88BD"/>
<path d="M117.153 41.2217C117.153 41.2217 114.702 40.4172 114.639 42.0892C114.576 43.7612 117.153 43.5097 117.153 43.5097C117.153 43.5097 117.065 46.904 118.574 46.5897C120.082 46.2755 120.522 44.1886 120.522 44.1886C120.522 44.1886 123.451 44.2892 123.552 43.1452C123.653 42.0012 122.923 40.7692 121.088 41.0457C121.088 41.0457 122.534 39.776 121.49 38.5189C120.447 37.2617 119.077 39.1475 119.077 39.1475C119.077 39.1475 118.184 37.4126 116.977 38.3177C115.758 39.1977 117.153 41.2217 117.153 41.2217Z" fill="#D2B9D9"/>
<path d="M141.24 42.9189C141.24 42.9189 142.61 42.2274 143.754 44.1006C143.754 44.1006 144.069 41.3223 145.741 42.3154C147.413 43.296 146.168 44.2389 146.168 44.2389C146.168 44.2389 147.677 43.9623 147.84 44.7543C148.004 45.5589 145.703 46.0491 145.703 46.0491C145.703 46.0491 146.885 46.6651 146.168 47.7086C145.464 48.752 143.993 46.5897 143.993 46.5897C143.993 46.5897 142.598 47.9977 141.466 47.5577C140.335 47.1177 142.56 45.2446 142.56 45.2446C142.56 45.2446 140.071 44.4149 141.24 42.9189Z" fill="#D2B9D9"/>
<path d="M131.183 55.5406C131.183 55.5406 132.981 54.0823 131.661 52.9634C130.341 51.8446 129.159 54.8366 129.159 54.8366C129.159 54.8366 128.015 52.0206 126.846 52.7497C125.677 53.4789 127.148 56.1943 127.148 56.1943C127.148 56.1943 122.961 55.2263 125.224 58.0674C127.487 60.9212 128.732 57.5394 128.732 57.5394C128.732 57.5394 128.631 60.9463 130.404 60.5692C132.176 60.192 131.183 57.9669 131.183 57.9669C131.183 57.9669 133.848 58.1177 133.949 56.848C134.049 55.5783 131.497 55.3017 131.183 55.5406Z" fill="#D2B9D9"/>
<path d="M139.204 28.3109C139.204 28.3109 137.506 26.7143 137.305 28.3989C137.117 30.096 138.575 30.2343 139.455 29.9703C139.455 29.9703 137.833 31.6046 139.103 32.0069C140.373 32.4092 141.139 31.3406 141.139 31.3406C141.139 31.3406 142.661 32.6103 143.566 31.7177C144.471 30.8126 142.761 29.8697 142.761 29.8697C142.761 29.8697 144.71 29.8194 144.597 28.3109C144.483 26.8023 141.655 28.3109 141.655 28.3109C141.655 28.3109 142.459 26.0606 140.435 26.1989C138.399 26.3372 139.204 28.3109 139.204 28.3109Z" fill="#D2B9D9"/>
<path d="M120.082 26.9406C120.082 26.9406 117.882 25.1177 117.48 26.4754C117.078 27.8331 118.448 28.4114 118.448 28.4114C118.448 28.4114 117.191 28.5246 117.794 29.8948C118.398 31.2651 120.887 28.8011 120.887 28.8011C120.887 28.8011 120.56 30.448 122.119 30.536C123.69 30.624 122.748 28.4994 122.748 28.4994C122.748 28.4994 125.073 27.9211 124.306 26.7143C123.54 25.5074 121.968 27.016 121.968 27.016C121.968 27.016 122.194 24.728 120.937 24.9417C119.68 25.168 120.082 26.9406 120.082 26.9406Z" fill="#D2B9D9"/>
<path d="M119.743 58.8218C119.743 59.3749 119.504 59.8149 119.203 59.8149C118.901 59.8149 118.662 59.3623 118.662 58.8218C118.662 58.2686 118.901 57.8286 119.203 57.8286C119.504 57.8286 119.743 58.2686 119.743 58.8218Z" fill="#533895"/>
<path d="M130.517 56.6469C130.391 56.9863 129.913 57.112 129.436 56.9486C128.958 56.7726 128.669 56.3703 128.782 56.0309C128.908 55.6915 129.385 55.5657 129.863 55.7292C130.353 55.8926 130.642 56.3074 130.517 56.6469Z" fill="#6B4D9E"/>
<path d="M118.284 41.0835C118.284 41.0961 118.259 41.1086 118.222 41.1086C118.184 41.1086 118.159 41.0961 118.159 41.0835C118.159 41.0709 118.184 41.0583 118.222 41.0583C118.259 41.0709 118.284 41.0709 118.284 41.0835Z" fill="#6B4D9E"/>
<path d="M119.869 41.1337C120.032 41.3726 119.856 41.8 119.454 42.064C119.064 42.3406 118.599 42.3657 118.436 42.1143C118.272 41.8754 118.448 41.4606 118.851 41.184C119.253 40.9074 119.705 40.8823 119.869 41.1337Z" fill="#6B4D9E"/>
<path d="M144.835 45.32C144.835 45.5463 144.446 45.7223 143.968 45.7223C143.49 45.7223 143.101 45.5463 143.101 45.32C143.101 45.0937 143.49 44.9177 143.968 44.9177C144.446 44.9177 144.835 45.1063 144.835 45.32Z" fill="#6B4D9E"/>
<path d="M122.094 27.5943C122.094 27.7954 121.717 27.9589 121.264 27.9589C120.812 27.9589 120.435 27.7954 120.435 27.5943C120.435 27.3932 120.812 27.2172 121.264 27.2172C121.717 27.2297 122.094 27.3932 122.094 27.5943Z" fill="#8262A9"/>
<path d="M129.109 41.5863C129.109 41.8629 128.807 42.0891 128.43 42.0891C128.053 42.0891 127.751 41.8629 127.751 41.5863C127.751 41.3097 128.053 41.0834 128.43 41.0834C128.807 41.0834 129.109 41.3097 129.109 41.5863Z" fill="#8262A9"/>
<path d="M152.416 47.8217C152.266 47.9726 151.863 47.7966 151.536 47.4446C151.21 47.0926 151.059 46.6778 151.222 46.5395C151.373 46.3886 151.775 46.5646 152.102 46.9166C152.429 47.2686 152.567 47.6709 152.416 47.8217Z" fill="#8262A9"/>
<path d="M141.743 29.6811C141.592 29.92 141.152 29.92 140.75 29.6686C140.347 29.4171 140.146 29.0274 140.297 28.7886C140.448 28.5497 140.888 28.5623 141.29 28.8012C141.693 29.0526 141.894 29.4423 141.743 29.6811Z" fill="#6B4D9E"/>
<path d="M148.142 21.5978C148.255 21.7361 148.117 22.0503 147.815 22.3018C147.513 22.5532 147.174 22.6412 147.061 22.5029C146.948 22.3646 147.086 22.0503 147.388 21.7989C147.689 21.5601 148.029 21.4595 148.142 21.5978Z" fill="#6B4D9E"/>
<path opacity="0.2" d="M150.216 120.095C150.216 120.107 150.216 120.12 150.216 120.133V150.907C150.216 151.473 150.053 152.001 149.763 152.454C149.261 153.258 148.355 153.786 147.337 153.786H124.13C124.03 153.786 123.929 153.786 123.841 153.774C123.715 153.761 123.577 153.736 123.451 153.711C123.426 153.698 123.389 153.698 123.363 153.686C122.672 153.497 122.081 153.057 121.704 152.454C121.415 152.014 121.251 151.486 121.251 150.907V120.133C121.251 120.12 121.251 120.107 121.251 120.095C121.251 120.07 121.251 120.045 121.251 120.007C121.251 112.741 123.69 114.224 126.519 109.258C127.386 107.737 126.984 103.325 126.707 101.049C126.682 100.798 126.645 100.571 126.619 100.37C126.582 100.081 126.544 99.8675 126.531 99.7543H126.293C125.928 99.7543 125.601 99.5657 125.413 99.264C125.312 99.1132 125.262 98.9246 125.262 98.7235C125.262 98.4469 125.375 98.1829 125.563 97.9943C125.752 97.8057 126.003 97.6926 126.293 97.6926H126.531V97.5543C126.531 97.4915 126.531 97.4412 126.544 97.3909C126.619 96.976 126.984 96.6617 127.437 96.6617H143.93C144.37 96.6617 144.735 96.976 144.823 97.3909C144.835 97.4412 144.835 97.504 144.835 97.5543V97.7177H145.162C145.728 97.7177 146.181 98.1703 146.181 98.736C146.181 98.9372 146.13 99.1132 146.03 99.2766C145.854 99.5657 145.527 99.7669 145.162 99.7669H144.923C144.911 99.88 144.873 100.094 144.835 100.383C144.81 100.571 144.785 100.798 144.747 101.062C144.471 103.337 144.069 107.75 144.936 109.271C147.777 114.237 150.203 112.741 150.203 120.019C150.216 120.032 150.216 120.07 150.216 120.095Z" fill="#B4B4B5"/>
<path opacity="0.2" d="M145.716 149.789H125.601C124.747 149.789 124.005 150.216 123.552 150.87C124.005 151.523 124.747 151.951 125.601 151.951H145.703C146.558 151.951 147.3 151.523 147.752 150.87C147.312 150.216 146.558 149.789 145.716 149.789Z" fill="#B4B4B5"/>
<path opacity="0.6" d="M148.28 120.61C148.28 120.623 148.28 120.635 148.28 120.635V149.449C148.28 150.819 147.161 151.938 145.791 151.938H125.689C124.319 151.938 123.2 150.819 123.2 149.449V120.648C123.2 120.635 123.2 120.623 123.2 120.623C123.2 120.598 123.2 120.573 123.2 120.547C123.2 119.064 123.2 117.518 123.917 116.512H147.576C148.293 117.681 148.293 119.064 148.293 120.547C148.28 120.573 148.28 120.598 148.28 120.61Z" fill="white"/>
<path opacity="0.2" d="M127.738 98.7989C127.738 99.528 128.317 99.7669 128.317 99.7669C128.317 112.627 126.242 110.691 124.445 113.922C122.634 117.153 122.923 121.264 122.923 121.264C122.923 121.264 122.923 142.032 122.923 147.639C122.923 151.486 123.489 153.133 123.854 153.774C123.728 153.761 123.59 153.736 123.464 153.711C123.439 153.698 123.401 153.698 123.376 153.686C121.893 152.73 121.943 150.656 121.943 150.656C121.943 150.656 121.943 130.743 121.943 124.105C121.943 118.347 121.264 115.795 124.671 112.552C127.713 109.661 127.575 106.669 127.575 106.669C127.751 103.802 127.223 99.7795 127.223 99.7795C127.223 99.7795 126.846 99.5155 126.846 98.7486C126.846 97.9817 127.399 97.7052 127.399 97.7052C127.399 96.6743 128.053 96.6617 128.078 96.6617H128.442C127.55 96.6617 127.738 97.7429 127.738 97.7429H128.317C128.317 97.7429 127.738 98.0823 127.738 98.7989Z" fill="#B4B4B5"/>
<path opacity="0.2" d="M142.284 98.7989C142.284 99.528 141.705 99.7669 141.705 99.7669C141.705 112.627 143.78 110.691 145.577 113.922C147.388 117.153 147.099 121.264 147.099 121.264C147.099 121.264 147.099 142.032 147.099 147.639C147.099 151.523 146.52 153.158 146.168 153.786H146.998C147.262 153.786 147.526 153.749 147.765 153.686C149.248 152.73 149.198 150.656 149.198 150.656C149.198 150.656 149.198 130.743 149.198 124.105C149.198 118.347 149.877 115.795 146.47 112.552C143.428 109.661 143.566 106.669 143.566 106.669C143.39 103.802 143.918 99.7795 143.918 99.7795C143.918 99.7795 144.295 99.5155 144.295 98.7486C144.295 97.9817 143.742 97.7052 143.742 97.7052C143.742 96.6743 143.088 96.6617 143.063 96.6617H141.592C142.485 96.6617 142.296 97.7429 142.296 97.7429H141.718C141.705 97.7429 142.284 98.0823 142.284 98.7989Z" fill="#B4B4B5"/>
<path opacity="0.8" d="M138.097 98.3715C138.097 98.5349 137.984 98.6732 137.833 98.6732H126.556C126.406 98.6732 126.292 98.5349 126.292 98.3715C126.292 98.208 126.406 98.0698 126.556 98.0698H137.833C137.984 98.0698 138.097 98.208 138.097 98.3715Z" fill="white"/>
<path opacity="0.8" d="M140.549 98.3715C140.549 98.5349 140.436 98.6732 140.285 98.6732H139.367C139.216 98.6732 139.103 98.5349 139.103 98.3715C139.103 98.208 139.216 98.0698 139.367 98.0698H140.285C140.436 98.0698 140.549 98.208 140.549 98.3715Z" fill="white"/>
<path d="M139.983 118.247H131.686C124.696 118.247 123.338 117.166 123.087 116.826C123.087 116.826 122.66 116.374 123.024 116.047C123.301 115.795 123.665 115.909 123.904 116.148C123.917 116.16 125.086 117.178 131.686 117.178H139.983C140.272 117.178 140.511 117.417 140.511 117.706C140.511 118.008 140.272 118.247 139.983 118.247Z" fill="white"/>
<path d="M145.187 118.247H142.535C142.246 118.247 142.007 118.008 142.007 117.719C142.007 117.43 142.246 117.191 142.535 117.191H145.187C145.477 117.191 145.715 117.43 145.715 117.719C145.715 118.008 145.477 118.247 145.187 118.247Z" fill="white"/>
<path d="M126.531 114.174C126.406 114.174 126.293 114.123 126.205 114.023C126.054 113.847 126.079 113.57 126.255 113.419C126.443 113.256 127.11 112.64 127.751 111.383C127.851 111.169 128.115 111.094 128.329 111.194C128.543 111.295 128.618 111.559 128.518 111.773C127.826 113.118 127.097 113.822 126.808 114.061C126.733 114.136 126.632 114.174 126.531 114.174Z" fill="white"/>
<path d="M128.694 110.717C128.644 110.717 128.593 110.704 128.556 110.691C128.329 110.616 128.216 110.365 128.292 110.151C128.845 108.592 128.468 103.224 128.267 101.288C128.241 101.049 128.417 100.848 128.644 100.823C128.883 100.798 129.084 100.974 129.109 101.2C129.134 101.489 129.825 108.378 129.084 110.44C129.033 110.616 128.87 110.717 128.694 110.717Z" fill="white"/>
<path opacity="0.2" d="M146.055 99.2766C145.879 99.5658 145.552 99.7669 145.188 99.7669H144.949C144.936 99.8801 144.899 100.094 144.861 100.383H126.645C126.607 100.094 126.569 99.8801 126.557 99.7669H126.318C125.953 99.7669 125.627 99.5783 125.438 99.2766H146.055Z" fill="#B4B4B5"/>
<path opacity="0.2" d="M144.848 97.5544V97.7178H126.544V97.5544C126.544 97.4915 126.544 97.4412 126.557 97.3909H144.823C144.848 97.4412 144.848 97.5041 144.848 97.5544Z" fill="#B4B4B5"/>
<path opacity="0.2" d="M144.936 99.7669C144.923 99.88 144.886 100.094 144.848 100.383C144.823 100.571 144.798 100.798 144.76 101.062H126.72C126.695 100.81 126.657 100.584 126.632 100.383C126.594 100.094 126.557 99.88 126.544 99.7669H144.936Z" fill="#B4B4B5"/>
<path opacity="0.2" d="M149.776 152.454C149.273 153.258 148.368 153.786 147.35 153.786H124.13C124.03 153.786 123.929 153.786 123.841 153.774C123.716 153.761 123.577 153.736 123.452 153.711C123.426 153.698 123.389 153.698 123.364 153.686C122.672 153.497 122.081 153.057 121.704 152.454H149.776Z" fill="#B4B4B5"/>
<path opacity="0.2" d="M29.0653 137.519C32.1328 136.262 31.3533 136.475 38.3305 138.562C45.3076 140.649 46.3133 141.466 51.9956 141.466C57.6779 141.466 68.9168 141.378 76.4722 139.493C84.0276 137.607 87.6608 139.493 87.6608 139.493C87.6608 139.493 94.9145 143.352 87.6608 146.495C80.407 149.638 83.7008 153.837 72.663 155.735C50.6002 159.532 45.0939 154.352 34.4459 153.987C25.3191 153.686 17.8391 142.12 29.0653 137.519Z" fill="#5E5E5E"/>
<path d="M90.8035 137.041C89.3452 144.144 67.7224 148.682 54.4469 148.003C41.159 147.325 37.9407 145.363 28.1475 144.71C23.7853 144.421 21.2961 142.145 20.8058 139.317C20.2024 135.784 22.6915 131.384 28.5498 128.882C28.5498 128.882 29.983 128.266 32.4847 127.575C36.3315 126.506 42.6927 125.249 50.2229 125.739C62.6435 126.557 63.4229 124.457 72.9018 125.802C75.8561 126.217 78.8606 126.783 81.5384 127.575C85.6869 128.794 89.0686 130.554 90.3761 133.194C90.9292 134.313 91.1052 135.583 90.8035 137.041Z" fill="#868686"/>
<path d="M81.5385 127.575C81.0105 130.755 60.1671 130.982 49.4814 133.76C38.7957 136.551 37.262 132.365 33.7545 129.687C32.774 128.945 32.4471 128.216 32.4848 127.575C36.3317 126.506 42.6928 125.249 50.2231 125.739C62.6437 126.557 63.4231 124.457 72.902 125.802C75.8688 126.23 78.8608 126.783 81.5385 127.575Z" fill="#727273"/>
<path d="M79.1121 120.661C79.1121 120.673 79.1121 120.673 79.1121 120.661C77.9933 121.981 76.4973 122.961 76.4973 122.961C68.9921 128.178 61.927 127.059 54.0824 127.826C46.8916 128.53 38.9464 133.169 34.6218 124.57C34.2196 123.778 33.855 122.873 33.5281 121.855C31.4916 115.557 34.823 111.861 39.5247 110.189C43.9247 108.63 49.5316 108.843 53.0516 110.377C60.079 113.432 56.9487 112.954 70.6893 114.186C71.1544 114.224 71.6321 114.274 72.135 114.312C81.8527 115.192 81.0356 118.41 79.1121 120.661Z" fill="#868686"/>
<path d="M70.6768 114.186C70.3122 115.28 69.3819 116.386 67.3579 117.153C61.9774 119.165 58.6711 117.229 53.8939 116.499C49.1294 115.77 50.2231 115.406 48.9156 114.903C47.6082 114.4 48.6516 113.457 44.0128 113.168C40.0402 112.917 39.5625 110.817 39.5122 110.214C43.9122 108.655 49.5191 108.869 53.0391 110.402C60.0665 113.445 56.9488 112.967 70.6768 114.186Z" fill="#727273"/>
<path d="M67.6092 104.971C65.4972 111.219 49.1795 112.715 42.2023 109.384C39.9269 108.303 38.1417 107.159 37.1109 105.99C34.9989 103.626 35.9166 101.125 41.9006 98.5977C43.736 97.8308 46.0366 97.0514 48.8777 96.2846C51.2915 95.6308 53.3909 95.2663 55.2137 95.1154C66.0126 94.2228 67.1817 100.986 67.1817 100.986C67.8983 102.482 67.9989 103.815 67.6092 104.971Z" fill="#868686"/>
<path d="M67.6091 104.971C65.4971 111.219 49.1794 112.715 42.2023 109.384C39.9268 108.303 38.1417 107.159 37.1108 105.99C37.5257 106.128 38.0411 106.229 38.6194 106.229C40.0526 106.229 40.9451 106.832 41.8251 107.058C42.7177 107.272 48.1234 107.109 48.9028 107.712C49.6823 108.328 49.6823 109.283 50.776 108.894C51.8697 108.504 51.5554 107.373 53.7428 107.259C55.9177 107.146 56.7097 107.197 57.6148 107.259C58.5325 107.322 58.8343 108.064 61.8011 107.259C64.768 106.455 65.1074 106.065 65.5474 106.065C65.7988 106.065 66.8045 105.613 67.6091 104.971Z" fill="#5E5E5E"/>
<path d="M54.0698 99.616C51.7189 101.049 49.9338 100.446 48.4881 100.144C47.0549 99.8423 47.1806 100.056 44.6538 99.8423C42.7052 99.6789 42.0641 98.9372 41.8755 98.6103C43.7109 97.8435 46.0115 97.064 48.8526 96.2972C51.2663 95.6435 53.3658 95.2789 55.1886 95.1281C55.8298 95.8823 56.3326 98.2332 54.0698 99.616Z" fill="#727273"/>
<path d="M55.9678 88.7166C55.8798 91.3314 55.7415 93.6069 55.0124 95.304C54.2581 97.0766 52.8626 98.1954 50.2101 98.3966C46.9792 98.6354 44.3266 98.1829 42.9061 96.4732C42.0512 95.4297 41.6489 93.9337 41.8626 91.8594C42.4158 86.3657 41.3095 79.5771 43.3461 73.04C45.3826 66.5028 53.9186 66.792 53.1769 75.4034C53.1266 75.9943 53.1015 76.5349 53.1015 77.0503C53.1015 77.3143 53.1015 77.5657 53.1141 77.8171V77.8297C53.3152 81.928 55.1255 83.4366 55.7415 86.3029C55.9175 86.9943 55.9929 87.7863 55.9678 88.7166Z" fill="#868686"/>
<path d="M55.0125 95.304C54.2582 97.0766 52.8628 98.1954 50.2102 98.3965C46.9794 98.6354 44.3268 98.1828 42.9062 96.4731C43.2205 96.6114 43.5977 96.6869 44.0502 96.6869C46.0491 96.6869 45.1942 96.36 47.1177 96.2343C49.0411 96.1086 48.9782 95.9326 49.3051 95.8697C49.632 95.8069 50.5748 95.5429 51.2285 95.8697C51.8822 96.1966 52.6994 96.2594 53.5417 96.0709C54.1074 95.9326 54.6731 95.5554 55.0125 95.304Z" fill="#5E5E5E"/>
<path d="M53.1266 77.8171C53.3278 81.9154 55.1381 83.424 55.7541 86.2903C55.4272 85.6994 55.1129 85.3977 55.0124 85.2217C54.7861 84.8697 54.3838 85.5234 53.3404 84.7943C52.2969 84.0777 52.2592 83.3234 52.0958 83.0594C51.9323 82.7954 51.4672 82.7829 51.2786 81.7897C51.2661 81.6891 51.6432 80.9097 51.8695 80.7086C52.0958 80.5074 51.9952 80.256 52.6489 79.3383C52.9884 78.8606 53.1015 78.2823 53.1266 77.8171Z" fill="#727273"/>
<path d="M47.143 136.915C47.3567 136.853 47.8344 136.928 47.8847 137.104C47.9475 137.28 48.2744 137.192 48.0733 137.406C47.8847 137.619 47.9475 137.67 47.6333 137.544C47.319 137.406 47.231 137.368 46.967 137.368C46.7155 137.355 46.2378 137.192 47.143 136.915Z" fill="#727273"/>
<path d="M53.9313 136.991C53.9313 136.991 54.0696 137.167 54.2707 137.179C54.4719 137.192 54.3461 137.117 54.5096 137.142C54.673 137.167 54.5347 137.066 54.321 136.991C54.1199 136.915 53.8307 136.765 53.9313 136.991Z" fill="#727273"/>
<path d="M51.0148 134.954C51.1405 135.042 51.2034 135.168 51.3165 135.193C51.4171 135.218 51.5051 135.306 51.6308 135.256C51.7565 135.206 51.8948 135.181 51.5302 134.954C51.1531 134.728 51.4422 134.803 51.1531 134.728C50.8639 134.653 50.5496 134.653 51.0148 134.954Z" fill="#727273"/>
<path d="M49.9084 136.966C49.9084 136.966 49.9838 137.167 50.0718 137.179C50.1598 137.192 50.1221 137.117 50.2604 137.066C50.4112 137.016 50.4992 137.192 50.0844 136.953C49.6695 136.727 49.7449 136.739 49.9084 136.966Z" fill="#727273"/>
<path d="M66.05 138.763C65.8489 138.826 65.4215 138.751 65.3712 138.587C65.3209 138.424 65.0192 138.512 65.1952 138.311C65.3712 138.122 65.3209 138.059 65.5975 138.185C65.8866 138.311 65.962 138.349 66.2135 138.349C66.4523 138.349 66.8797 138.512 66.05 138.763Z" fill="#727273"/>
<path d="M58.7336 139.342C58.7336 139.342 58.6582 139.241 58.5451 139.241C58.4319 139.241 58.5073 139.279 58.4193 139.266C58.3313 139.254 58.4068 139.304 58.5199 139.342C58.633 139.379 58.7965 139.467 58.7336 139.342Z" fill="#727273"/>
<path d="M60.1667 137.267C60.041 137.192 59.9907 137.066 59.8901 137.054C59.7896 137.041 59.7141 136.953 59.601 136.991C59.4878 137.029 59.3496 137.054 59.7016 137.267C60.041 137.469 59.7896 137.406 60.041 137.469C60.305 137.544 60.6067 137.544 60.1667 137.267Z" fill="#727273"/>
<path d="M62.6562 139.53C62.6562 139.53 62.5933 139.342 62.5053 139.329C62.4173 139.317 62.4676 139.379 62.3293 139.43C62.191 139.48 62.1156 139.317 62.4927 139.53C62.8699 139.744 62.807 139.731 62.6562 139.53Z" fill="#727273"/>
<path d="M64.6799 135.558C64.6799 135.558 64.5165 135.394 64.3153 135.419C64.1142 135.432 64.2525 135.495 64.0891 135.482C63.9256 135.47 64.0765 135.558 64.2902 135.608C64.4913 135.658 64.7931 135.772 64.6799 135.558Z" fill="#727273"/>
<path d="M68.678 135.13C68.678 135.13 68.5774 134.942 68.4894 134.929C68.4014 134.917 68.4517 134.992 68.3135 135.055C68.1752 135.118 68.062 134.954 68.502 135.143C68.942 135.344 68.8666 135.331 68.678 135.13Z" fill="#727273"/>
<path d="M59.6388 133.76C59.6388 133.76 59.7268 133.848 59.84 133.835C59.9531 133.823 59.8777 133.798 59.9657 133.798C60.0537 133.798 59.9783 133.76 59.8525 133.735C59.7394 133.71 59.5634 133.647 59.6388 133.76Z" fill="#727273"/>
<path d="M55.7167 134.024C55.7167 134.024 55.8047 134.2 55.8927 134.213C55.9807 134.225 55.9304 134.15 56.0561 134.087C56.1818 134.024 56.2824 134.175 55.8801 134.011C55.4778 133.823 55.5533 133.835 55.7167 134.024Z" fill="#727273"/>
<path d="M43.8367 137.267C43.623 137.28 43.2207 137.117 43.1956 136.941C43.1704 136.765 42.8687 136.79 43.0824 136.626C43.2962 136.463 43.2584 136.413 43.5099 136.589C43.7613 136.765 43.8367 136.827 44.0882 136.878C44.3144 136.941 44.7167 137.179 43.8367 137.267Z" fill="#727273"/>
<path d="M37.664 135.885C37.664 135.885 37.576 135.696 37.3874 135.646C37.1989 135.595 37.312 135.696 37.1612 135.633C37.0103 135.583 37.1234 135.696 37.2994 135.797C37.488 135.91 37.7143 136.098 37.664 135.885Z" fill="#727273"/>
<path d="M39.927 138.298C39.8264 138.198 39.7887 138.072 39.7007 138.022C39.6127 137.984 39.5499 137.883 39.4241 137.909C39.311 137.921 39.1601 137.921 39.4618 138.198C39.7636 138.474 39.5121 138.349 39.7636 138.474C40.015 138.6 40.3041 138.663 39.927 138.298Z" fill="#727273"/>
<path d="M41.3223 136.689C41.3223 136.689 41.2972 136.488 41.2092 136.463C41.1337 136.425 41.1589 136.513 41.008 136.526C40.8572 136.538 40.8194 136.362 41.1463 136.664C41.4983 136.953 41.4355 136.915 41.3223 136.689Z" fill="#727273"/>
<path d="M26.9783 131.937C27.1669 131.925 27.5441 132.075 27.5692 132.226C27.5818 132.39 27.8709 132.365 27.6823 132.515C27.4812 132.654 27.5189 132.717 27.2926 132.553C27.0538 132.39 26.9909 132.339 26.7646 132.289C26.5383 132.226 26.1738 132 26.9783 131.937Z" fill="#727273"/>
<path d="M33.7542 132.817C33.7542 132.817 33.8045 132.918 33.9051 132.943C34.0057 132.968 33.9428 132.918 34.0308 132.943C34.1062 132.968 34.0434 132.905 33.9554 132.855C33.8548 132.792 33.7291 132.691 33.7542 132.817Z" fill="#727273"/>
<path d="M32.0445 134.426C32.1451 134.514 32.1702 134.64 32.2582 134.678C32.3462 134.715 32.3965 134.803 32.5096 134.791C32.6228 134.778 32.7485 134.778 32.4719 134.527C32.1953 134.275 32.4216 134.389 32.1953 134.275C31.9691 134.15 31.7051 134.087 32.0445 134.426Z" fill="#727273"/>
<path d="M30.2216 131.887C30.2216 131.887 30.2467 132.063 30.3222 132.1C30.3976 132.138 30.3725 132.063 30.4982 132.038C30.6365 132.025 30.6742 132.188 30.3725 131.912C30.0582 131.648 30.121 131.673 30.2216 131.887Z" fill="#727273"/>
<path d="M27.6197 135.105C27.6197 135.105 27.7328 135.281 27.9214 135.306C28.11 135.331 27.9968 135.256 28.1477 135.294C28.2985 135.331 28.1728 135.231 27.9843 135.143C27.7957 135.055 27.5443 134.904 27.6197 135.105Z" fill="#727273"/>
<path d="M23.8982 134.728C23.8982 134.728 23.9485 134.917 24.0365 134.942C24.1245 134.967 24.0868 134.891 24.2251 134.854C24.3633 134.816 24.4388 134.992 24.0742 134.741C23.6971 134.489 23.7599 134.514 23.8982 134.728Z" fill="#727273"/>
<path d="M31.8558 137.72C31.8558 137.72 31.793 137.619 31.6924 137.607C31.5918 137.594 31.6547 137.632 31.5667 137.619C31.4787 137.594 31.5541 137.657 31.6547 137.707C31.7553 137.745 31.8935 137.846 31.8558 137.72Z" fill="#727273"/>
<path d="M35.4767 138.248C35.4767 138.248 35.4265 138.072 35.351 138.047C35.2756 138.022 35.3133 138.097 35.175 138.122C35.0493 138.147 34.9864 137.997 35.3133 138.235C35.6527 138.462 35.5899 138.449 35.4767 138.248Z" fill="#727273"/>
<path d="M87.8743 135.809C87.6606 135.834 87.2583 135.658 87.2332 135.495C87.208 135.319 86.9063 135.344 87.12 135.181C87.3337 135.017 87.296 134.967 87.5475 135.143C87.7989 135.331 87.8743 135.382 88.1257 135.432C88.3646 135.482 88.7543 135.734 87.8743 135.809Z" fill="#727273"/>
<path d="M81.7141 134.439C81.7141 134.439 81.6261 134.25 81.4375 134.2C81.249 134.15 81.3621 134.25 81.2112 134.187C81.0729 134.137 81.1735 134.25 81.3495 134.351C81.5255 134.464 81.7644 134.653 81.7141 134.439Z" fill="#727273"/>
<path d="M83.9773 136.84C83.8767 136.739 83.839 136.614 83.751 136.563C83.663 136.526 83.6001 136.425 83.4744 136.45C83.3613 136.463 83.2104 136.463 83.5121 136.739C83.8139 137.016 83.5624 136.89 83.8139 137.016C84.0527 137.142 84.3544 137.205 83.9773 136.84Z" fill="#727273"/>
<path d="M85.3726 135.231C85.3726 135.231 85.3475 135.03 85.2595 135.005C85.184 134.967 85.2092 135.055 85.0583 135.067C84.9075 135.08 84.8697 134.904 85.1966 135.206C85.536 135.495 85.4732 135.457 85.3726 135.231Z" fill="#727273"/>
<path d="M71.0286 130.479C71.2172 130.466 71.5944 130.617 71.6195 130.768C71.6321 130.931 71.9212 130.906 71.7326 131.045C71.5315 131.183 71.5818 131.246 71.3429 131.082C71.1041 130.919 71.0412 130.869 70.8149 130.818C70.5761 130.768 70.224 130.554 71.0286 130.479Z" fill="#727273"/>
<path d="M77.7923 131.359C77.7923 131.359 77.8426 131.459 77.9432 131.485C78.0437 131.51 77.9809 131.459 78.0689 131.485C78.1443 131.522 78.0815 131.447 77.9935 131.397C77.8929 131.346 77.7672 131.246 77.7923 131.359Z" fill="#727273"/>
<path d="M76.0821 132.968C76.1827 133.056 76.2078 133.182 76.2958 133.219C76.3838 133.257 76.4341 133.345 76.5473 133.333C76.6604 133.32 76.7861 133.32 76.5095 133.069C76.233 132.817 76.4593 132.93 76.233 132.817C76.0193 132.691 75.7427 132.641 76.0821 132.968Z" fill="#727273"/>
<path d="M74.2595 130.441C74.2595 130.441 74.2846 130.617 74.3601 130.655C74.4355 130.693 74.4104 130.617 74.5361 130.592C74.6744 130.579 74.7121 130.743 74.4104 130.466C74.1086 130.19 74.1589 130.227 74.2595 130.441Z" fill="#727273"/>
<path d="M71.6573 133.659C71.6573 133.659 71.7704 133.836 71.959 133.861C72.1476 133.886 72.0344 133.81 72.1853 133.848C72.3361 133.886 72.2104 133.785 72.0218 133.697C71.8458 133.609 71.5818 133.446 71.6573 133.659Z" fill="#727273"/>
<path d="M67.9358 133.27C67.9358 133.27 67.9861 133.458 68.0741 133.483C68.1495 133.509 68.1244 133.433 68.2627 133.395C68.4009 133.358 68.4764 133.534 68.1118 133.282C67.7347 133.031 67.7975 133.056 67.9358 133.27Z" fill="#727273"/>
<path d="M75.8939 136.274C75.8939 136.274 75.8311 136.174 75.7305 136.161C75.6299 136.149 75.6928 136.186 75.6048 136.174C75.5168 136.149 75.5922 136.211 75.6928 136.262C75.7933 136.299 75.9442 136.387 75.8939 136.274Z" fill="#727273"/>
<path d="M79.5143 136.79C79.5143 136.79 79.4641 136.614 79.3886 136.589C79.3132 136.563 79.3509 136.639 79.2126 136.664C79.0869 136.689 79.024 136.538 79.3509 136.777C79.7029 137.016 79.6401 136.991 79.5143 136.79Z" fill="#727273"/>
<path d="M81.5379 139.002C81.3242 139.027 80.9219 138.851 80.8968 138.688C80.8716 138.512 80.5573 138.537 80.7836 138.374C80.9973 138.21 80.9596 138.16 81.211 138.336C81.4625 138.525 81.5379 138.575 81.7893 138.625C82.0282 138.675 82.4179 138.927 81.5379 139.002Z" fill="#727273"/>
<path d="M75.3784 137.619C75.3784 137.619 75.2904 137.431 75.1018 137.381C74.9132 137.33 75.0264 137.431 74.8755 137.368C74.7247 137.318 74.8378 137.431 75.0138 137.531C75.1898 137.657 75.4287 137.846 75.3784 137.619Z" fill="#727273"/>
<path d="M77.6409 140.033C77.5403 139.933 77.5026 139.794 77.4146 139.757C77.3266 139.719 77.2637 139.618 77.138 139.643C77.0249 139.656 76.874 139.656 77.1757 139.933C77.4774 140.209 77.226 140.083 77.4774 140.209C77.7163 140.335 78.018 140.398 77.6409 140.033Z" fill="#727273"/>
<path d="M79.0367 138.424C79.0367 138.424 79.0115 138.223 78.9235 138.198C78.8481 138.16 78.8732 138.248 78.7224 138.261C78.5715 138.273 78.5338 138.097 78.8607 138.399C79.2001 138.688 79.1372 138.65 79.0367 138.424Z" fill="#727273"/>
<path d="M64.6927 133.672C64.8812 133.659 65.2584 133.81 65.2835 133.961C65.2961 134.125 65.5852 134.099 65.3967 134.25C65.1955 134.389 65.2458 134.451 65.007 134.288C64.7681 134.125 64.7053 134.074 64.479 134.024C64.2401 133.961 63.8881 133.747 64.6927 133.672Z" fill="#727273"/>
<path d="M71.4561 134.552C71.4561 134.552 71.5064 134.653 71.607 134.678C71.7075 134.703 71.6447 134.653 71.7327 134.678C71.8081 134.703 71.7453 134.64 71.6573 134.59C71.5693 134.539 71.431 134.426 71.4561 134.552Z" fill="#727273"/>
<path d="M69.7462 136.161C69.8468 136.249 69.8719 136.375 69.9599 136.413C70.0479 136.45 70.0982 136.538 70.2113 136.526C70.3245 136.513 70.4502 136.513 70.1736 136.262C69.8971 136.01 70.1233 136.123 69.897 136.01C69.6833 135.885 69.4068 135.834 69.7462 136.161Z" fill="#727273"/>
<path d="M67.9236 133.634C67.9236 133.634 67.9487 133.81 68.0241 133.848C68.0996 133.886 68.0744 133.81 68.2001 133.785C68.3384 133.773 68.3761 133.936 68.0744 133.659C67.7727 133.383 67.823 133.42 67.9236 133.634Z" fill="#727273"/>
<path d="M65.3214 136.853C65.3214 136.853 65.4345 137.029 65.6231 137.054C65.8117 137.079 65.6985 137.003 65.8494 137.041C66.0003 137.079 65.8746 136.978 65.686 136.89C65.51 136.802 65.2585 136.639 65.3214 136.853Z" fill="#727273"/>
<path d="M61.5999 136.463C61.5999 136.463 61.6501 136.651 61.7381 136.677C61.8136 136.702 61.7884 136.626 61.9267 136.589C62.065 136.551 62.1404 136.727 61.7759 136.475C61.3987 136.224 61.4616 136.249 61.5999 136.463Z" fill="#727273"/>
<path d="M69.5575 139.467C69.5575 139.467 69.4946 139.367 69.3941 139.354C69.2935 139.342 69.3563 139.379 69.2683 139.367C69.1803 139.342 69.2558 139.405 69.3563 139.455C69.4569 139.493 69.6078 139.581 69.5575 139.467Z" fill="#727273"/>
<path d="M73.1779 139.983C73.1779 139.983 73.1276 139.807 73.0522 139.782C72.9768 139.757 73.0145 139.832 72.8762 139.857C72.7505 139.882 72.6876 139.731 73.0145 139.97C73.3665 140.209 73.3036 140.184 73.1779 139.983Z" fill="#727273"/>
<path d="M70.8274 134.841C70.6137 134.866 70.2114 134.69 70.1863 134.514C70.1612 134.338 69.8594 134.363 70.0732 134.2C70.2869 134.049 70.2492 133.986 70.5006 134.162C70.752 134.338 70.8274 134.401 71.0789 134.451C71.3052 134.514 71.7075 134.753 70.8274 134.841Z" fill="#727273"/>
<path d="M64.6672 133.458C64.6672 133.458 64.5792 133.27 64.3906 133.219C64.2021 133.169 64.3152 133.27 64.1644 133.207C64.0261 133.157 64.1266 133.27 64.3026 133.37C64.4786 133.483 64.7049 133.672 64.6672 133.458Z" fill="#727273"/>
<path d="M66.9177 135.872C66.8172 135.771 66.7794 135.646 66.6914 135.595C66.6034 135.558 66.5406 135.457 66.4149 135.482C66.3017 135.495 66.1509 135.495 66.4526 135.771C66.7543 136.048 66.5029 135.922 66.7543 136.048C67.0057 136.174 67.2949 136.237 66.9177 135.872Z" fill="#727273"/>
<path d="M68.313 134.263C68.313 134.263 68.2879 134.062 68.1999 134.037C68.1244 133.999 68.1496 134.087 67.9987 134.099C67.8479 134.112 67.8102 133.936 68.137 134.238C68.489 134.527 68.4262 134.489 68.313 134.263Z" fill="#727273"/>
<path d="M70.7393 117.769C70.7393 117.769 70.8776 117.907 70.953 117.882C71.0285 117.87 70.9656 117.819 71.0662 117.719C71.1667 117.618 71.305 117.731 70.8776 117.694C70.4502 117.669 70.513 117.656 70.7393 117.769Z" fill="#727273"/>
<path d="M54.2207 122.483C54.3967 122.408 54.7864 122.433 54.8493 122.584C54.9121 122.722 55.1761 122.622 55.0378 122.81C54.8996 122.999 54.9498 123.049 54.6858 122.961C54.4218 122.873 54.3464 122.848 54.1201 122.873C53.9064 122.898 53.5041 122.798 54.2207 122.483Z" fill="#727273"/>
<path d="M59.8399 121.955C59.8399 121.955 59.9656 122.094 60.1416 122.081C60.305 122.069 60.1919 122.018 60.3302 122.031C60.4685 122.043 60.3428 121.968 60.1668 121.93C59.9908 121.88 59.7393 121.792 59.8399 121.955Z" fill="#727273"/>
<path d="M57.263 120.535C57.3762 120.598 57.439 120.698 57.527 120.698C57.615 120.711 57.703 120.774 57.791 120.723C57.8916 120.673 58.0047 120.635 57.6779 120.485C57.351 120.334 57.5899 120.371 57.351 120.334C57.1122 120.296 56.8356 120.321 57.263 120.535Z" fill="#727273"/>
<path d="M56.521 122.282C56.521 122.282 56.5964 122.446 56.6719 122.446C56.7473 122.458 56.7096 122.395 56.8227 122.332C56.9359 122.282 57.0364 122.42 56.6593 122.257C56.2947 122.106 56.3576 122.119 56.521 122.282Z" fill="#727273"/>
<path d="M70.0227 122.37C69.8593 122.433 69.5073 122.408 69.4444 122.282C69.3816 122.157 69.1427 122.245 69.2684 122.069C69.3941 121.893 69.3439 121.855 69.5953 121.93C69.8467 122.006 69.9096 122.031 70.1107 122.018C70.3119 122.006 70.689 122.094 70.0227 122.37Z" fill="#727273"/>
<path d="M64.0263 123.489C64.0263 123.489 63.9508 123.414 63.8628 123.426C63.7748 123.439 63.8377 123.464 63.7497 123.451C63.6743 123.451 63.7497 123.489 63.8377 123.514C63.9383 123.539 64.0765 123.59 64.0263 123.489Z" fill="#727273"/>
<path d="M65.0321 121.654C64.9315 121.603 64.8687 121.503 64.7933 121.503C64.7178 121.49 64.6424 121.44 64.5544 121.478C64.4664 121.515 64.3532 121.553 64.655 121.691C64.9567 121.83 64.7304 121.792 64.9567 121.83C65.1704 121.867 65.4092 121.842 65.0321 121.654Z" fill="#727273"/>
<path d="M67.2825 123.301C67.2825 123.301 67.207 123.15 67.1442 123.15C67.0688 123.137 67.119 123.2 67.0059 123.25C66.8928 123.301 66.8173 123.175 67.1442 123.326C67.4836 123.464 67.4208 123.451 67.2825 123.301Z" fill="#727273"/>
<path d="M68.6022 119.843C68.6022 119.843 68.4639 119.718 68.2879 119.755C68.1245 119.781 68.2376 119.818 68.0993 119.831C67.9611 119.843 68.0993 119.894 68.2753 119.919C68.4639 119.944 68.7279 120.007 68.6022 119.843Z" fill="#727273"/>
<path d="M71.8708 119.152C71.8708 119.152 71.7702 119.001 71.6948 119.001C71.6194 119.001 71.6697 119.051 71.5565 119.127C71.4434 119.19 71.3428 119.064 71.72 119.19C72.1097 119.303 72.0468 119.303 71.8708 119.152Z" fill="#727273"/>
<path d="M64.2775 118.8C64.2775 118.8 64.353 118.863 64.4535 118.85C64.5415 118.838 64.4787 118.813 64.5541 118.813C64.6295 118.813 64.5541 118.775 64.4535 118.762C64.353 118.75 64.2147 118.712 64.2775 118.8Z" fill="#727273"/>
<path d="M61.0595 119.353C61.0595 119.353 61.1475 119.491 61.2229 119.491C61.2983 119.491 61.248 119.441 61.3486 119.378C61.4492 119.315 61.5497 119.441 61.1977 119.328C60.8458 119.215 60.9086 119.215 61.0595 119.353Z" fill="#727273"/>
<path d="M74.5232 117.92C74.3598 117.983 74.0078 117.958 73.9449 117.832C73.8821 117.706 73.6432 117.794 73.7689 117.618C73.8946 117.442 73.8444 117.405 74.0958 117.48C74.3346 117.555 74.4101 117.581 74.6112 117.568C74.8249 117.543 75.1895 117.631 74.5232 117.92Z" fill="#727273"/>
<path d="M68.5268 119.026C68.5268 119.026 68.4513 118.951 68.3633 118.963C68.2753 118.976 68.3382 119.001 68.2502 118.988C68.1747 118.988 68.2502 119.026 68.3382 119.051C68.4388 119.076 68.5771 119.127 68.5268 119.026Z" fill="#727273"/>
<path d="M69.5326 117.191C69.432 117.141 69.3692 117.04 69.2937 117.04C69.2183 117.027 69.1429 116.977 69.0549 117.015C68.9669 117.053 68.8537 117.09 69.1555 117.229C69.4572 117.367 69.2309 117.329 69.4572 117.367C69.6709 117.405 69.9223 117.379 69.5326 117.191Z" fill="#727273"/>
<path d="M71.7827 118.838C71.7827 118.838 71.7073 118.687 71.6444 118.687C71.569 118.674 71.6193 118.737 71.5061 118.787C71.393 118.838 71.3176 118.712 71.657 118.85C71.9839 119.001 71.921 119.001 71.7827 118.838Z" fill="#727273"/>
<path d="M73.1154 115.393C73.1154 115.393 72.9771 115.267 72.8011 115.305C72.6377 115.33 72.7508 115.368 72.6125 115.381C72.4742 115.393 72.6125 115.443 72.7885 115.469C72.9645 115.481 73.2285 115.544 73.1154 115.393Z" fill="#727273"/>
<path d="M68.9921 118.612C69.1681 118.536 69.5578 118.561 69.6207 118.712C69.6836 118.85 69.9476 118.75 69.8093 118.938C69.671 119.127 69.7213 119.177 69.4573 119.089C69.1933 119.001 69.1179 118.976 68.8916 119.001C68.6653 119.026 68.263 118.926 68.9921 118.612Z" fill="#727273"/>
<path d="M72.0218 116.663C72.135 116.726 72.1978 116.826 72.2858 116.826C72.3738 116.839 72.4492 116.902 72.5498 116.851C72.6504 116.801 72.7635 116.763 72.4367 116.612C72.1098 116.462 72.3487 116.499 72.1098 116.462C71.871 116.424 71.5944 116.462 72.0218 116.663Z" fill="#727273"/>
<path d="M71.2798 118.423C71.2798 118.423 71.3552 118.586 71.4306 118.586C71.5061 118.599 71.4558 118.536 71.5815 118.473C71.6946 118.423 71.7952 118.561 71.4181 118.398C71.0535 118.247 71.1164 118.247 71.2798 118.423Z" fill="#727273"/>
<path d="M53.9691 129.498C54.1576 129.486 54.5348 129.637 54.5599 129.787C54.5725 129.951 54.8616 129.926 54.673 130.064C54.4719 130.202 54.5222 130.265 54.2833 130.102C54.0445 129.938 53.9816 129.888 53.7554 129.838C53.5291 129.8 53.1645 129.574 53.9691 129.498Z" fill="#727273"/>
<path d="M60.745 130.391C60.745 130.391 60.7952 130.491 60.8958 130.517C60.9964 130.542 60.9335 130.491 61.0215 130.517C61.097 130.542 61.0341 130.479 60.9461 130.429C60.8455 130.366 60.7198 130.265 60.745 130.391Z" fill="#727273"/>
<path d="M59.0352 132C59.1358 132.088 59.1609 132.214 59.2489 132.251C59.3369 132.289 59.3872 132.377 59.5004 132.365C59.6135 132.352 59.7392 132.352 59.4627 132.101C59.1861 131.849 59.4124 131.962 59.1861 131.849C58.9598 131.723 58.6958 131.661 59.0352 132Z" fill="#727273"/>
<path d="M57.2123 129.461C57.2123 129.461 57.2375 129.637 57.3129 129.674C57.3883 129.712 57.3632 129.637 57.4889 129.611C57.6272 129.599 57.6649 129.762 57.3632 129.486C57.0489 129.222 57.1117 129.247 57.2123 129.461Z" fill="#727273"/>
<path d="M54.6104 132.679C54.6104 132.679 54.7235 132.855 54.9121 132.88C55.1007 132.905 54.9875 132.83 55.1384 132.867C55.2892 132.905 55.1635 132.805 54.9875 132.717C54.7864 132.629 54.535 132.478 54.6104 132.679Z" fill="#727273"/>
<path d="M50.8894 132.302C50.8894 132.302 50.9397 132.49 51.0277 132.515C51.1031 132.541 51.078 132.465 51.2163 132.427C51.3546 132.39 51.43 132.566 51.0654 132.314C50.6883 132.063 50.7511 132.088 50.8894 132.302Z" fill="#727273"/>
<path d="M58.8465 135.294C58.8465 135.294 58.7837 135.193 58.6831 135.181C58.5825 135.168 58.6454 135.206 58.5574 135.193C58.4694 135.168 58.5448 135.231 58.6454 135.281C58.746 135.319 58.8843 135.407 58.8465 135.294Z" fill="#727273"/>
<path d="M62.4674 135.822C62.4674 135.822 62.4172 135.646 62.3417 135.621C62.2663 135.595 62.304 135.671 62.1657 135.696C62.04 135.721 61.9772 135.57 62.304 135.809C62.6434 136.035 62.5806 136.01 62.4674 135.822Z" fill="#727273"/>
<path d="M42.3782 140.159C42.1645 140.171 41.7497 140.008 41.7371 139.832C41.7119 139.656 41.4102 139.681 41.6239 139.518C41.8377 139.367 41.7999 139.304 42.0514 139.48C42.3028 139.656 42.3782 139.719 42.6296 139.769C42.8685 139.832 43.2582 140.071 42.3782 140.159Z" fill="#727273"/>
<path d="M36.2182 138.776C36.2182 138.776 36.1302 138.587 35.9416 138.537C35.7531 138.487 35.8662 138.587 35.7154 138.525C35.5645 138.474 35.6776 138.587 35.8536 138.688C36.0296 138.801 36.2685 138.99 36.2182 138.776Z" fill="#727273"/>
<path d="M38.4812 141.19C38.3806 141.089 38.3429 140.963 38.2549 140.913C38.1669 140.875 38.1041 140.775 37.9783 140.8C37.8652 140.813 37.7143 140.813 38.016 141.089C38.3178 141.366 38.0663 141.24 38.3178 141.366C38.5566 141.491 38.8583 141.554 38.4812 141.19Z" fill="#727273"/>
<path d="M39.8765 139.581C39.8765 139.581 39.8514 139.379 39.7634 139.354C39.6879 139.317 39.7131 139.405 39.5622 139.417C39.4114 139.43 39.3736 139.254 39.7005 139.555C40.0399 139.845 39.9771 139.807 39.8765 139.581Z" fill="#727273"/>
<path d="M25.5327 134.816C25.7212 134.803 26.0984 134.954 26.1235 135.105C26.1361 135.269 26.4252 135.243 26.2366 135.394C26.0355 135.533 26.0858 135.595 25.8469 135.432C25.6081 135.269 25.5452 135.218 25.3189 135.168C25.0801 135.118 24.7155 134.891 25.5327 134.816Z" fill="#727273"/>
<path d="M32.2962 135.709C32.2962 135.709 32.3465 135.809 32.4471 135.834C32.5476 135.859 32.4848 135.809 32.5728 135.834C32.6482 135.859 32.5854 135.797 32.4974 135.746C32.3968 135.683 32.2711 135.583 32.2962 135.709Z" fill="#727273"/>
<path d="M30.586 137.318C30.6866 137.406 30.7117 137.531 30.7872 137.569C30.8752 137.607 30.9255 137.695 31.0386 137.682C31.1517 137.67 31.2775 137.67 31.0009 137.418C30.7243 137.167 30.9506 137.28 30.7243 137.167C30.5232 137.041 30.2466 136.978 30.586 137.318Z" fill="#727273"/>
<path d="M28.7636 134.778C28.7636 134.778 28.7887 134.954 28.8642 134.992C28.9396 135.03 28.9144 134.954 29.0402 134.929C29.1784 134.917 29.2162 135.08 28.9144 134.803C28.6002 134.539 28.663 134.565 28.7636 134.778Z" fill="#727273"/>
<path d="M26.1612 137.997C26.1612 137.997 26.2743 138.173 26.4629 138.198C26.6515 138.223 26.5383 138.147 26.6892 138.185C26.84 138.223 26.7143 138.122 26.5258 138.034C26.3498 137.946 26.0858 137.795 26.1612 137.997Z" fill="#727273"/>
<path d="M22.4402 137.619C22.4402 137.619 22.4905 137.808 22.5785 137.833C22.6539 137.858 22.6288 137.783 22.7671 137.745C22.9053 137.707 22.9808 137.883 22.6162 137.632C22.2391 137.381 22.3019 137.406 22.4402 137.619Z" fill="#727273"/>
<path d="M57.0867 99.2514C57.2753 99.2388 57.6525 99.3897 57.6776 99.5406C57.6902 99.704 57.9793 99.6788 57.7907 99.8297C57.5896 99.968 57.6273 100.031 57.401 99.8674C57.1622 99.704 57.0993 99.6537 56.873 99.6034C56.6467 99.5406 56.2822 99.3268 57.0867 99.2514Z" fill="#727273"/>
<path d="M62.1529 101.741C62.2535 101.829 62.2786 101.954 62.3666 101.992C62.4546 102.03 62.5049 102.118 62.618 102.105C62.7312 102.093 62.8569 102.093 62.5803 101.841C62.3037 101.59 62.53 101.703 62.3037 101.59C62.0775 101.464 61.8135 101.414 62.1529 101.741Z" fill="#727273"/>
<path d="M60.3305 99.2011C60.3305 99.2011 60.3556 99.3771 60.4311 99.4148C60.5065 99.4526 60.4813 99.3771 60.6071 99.352C60.7453 99.3394 60.7831 99.5028 60.4813 99.2263C60.1671 98.9623 60.2299 99 60.3305 99.2011Z" fill="#727273"/>
<path d="M57.7281 102.432C57.7281 102.432 57.8412 102.608 58.0298 102.633C58.2184 102.658 58.1052 102.583 58.2561 102.621C58.4069 102.658 58.2812 102.558 58.0926 102.47C57.9041 102.382 57.6527 102.218 57.7281 102.432Z" fill="#727273"/>
<path d="M54.0066 102.042C54.0066 102.042 54.0569 102.231 54.1449 102.256C54.2203 102.281 54.1952 102.206 54.3335 102.168C54.4717 102.13 54.5472 102.306 54.1826 102.055C53.8055 101.803 53.8683 101.828 54.0066 102.042Z" fill="#727273"/>
<path d="M61.9647 105.034C61.9647 105.034 61.9019 104.934 61.8013 104.921C61.7007 104.909 61.7636 104.946 61.6756 104.934C61.5876 104.909 61.663 104.971 61.7636 105.022C61.8641 105.072 62.0024 105.16 61.9647 105.034Z" fill="#727273"/>
<path d="M55.6414 102.143C55.83 102.13 56.2071 102.281 56.2323 102.432C56.2448 102.595 56.534 102.57 56.3454 102.709C56.1443 102.847 56.1946 102.91 55.9557 102.746C55.7168 102.583 55.654 102.533 55.4277 102.482C55.1888 102.432 54.8369 102.206 55.6414 102.143Z" fill="#727273"/>
<path d="M60.6949 104.632C60.7955 104.72 60.8206 104.846 60.9086 104.883C60.9966 104.921 61.0469 105.009 61.1601 104.997C61.2732 104.984 61.3989 104.984 61.1224 104.733C60.8458 104.481 61.0721 104.594 60.8458 104.481C60.6321 104.355 60.3555 104.305 60.6949 104.632Z" fill="#727273"/>
<path d="M58.8718 102.093C58.8718 102.093 58.897 102.269 58.9724 102.306C59.0478 102.344 59.0227 102.269 59.1484 102.243C59.2867 102.231 59.3244 102.394 59.0227 102.118C58.721 101.854 58.7712 101.891 58.8718 102.093Z" fill="#727273"/>
<path d="M56.2696 105.323C56.2696 105.323 56.3827 105.499 56.5713 105.525C56.7599 105.55 56.6467 105.474 56.7976 105.512C56.9484 105.55 56.8227 105.449 56.6341 105.361C56.4581 105.273 56.1941 105.11 56.2696 105.323Z" fill="#727273"/>
<path d="M52.5486 104.934C52.5486 104.934 52.5989 105.122 52.6869 105.147C52.7749 105.173 52.7372 105.097 52.8754 105.059C53.0137 105.022 53.0892 105.198 52.7246 104.946C52.3475 104.695 52.4103 104.72 52.5486 104.934Z" fill="#727273"/>
<path d="M49.6318 92.6515C49.5313 92.7772 49.2295 92.9029 49.129 92.8275C49.0284 92.7395 48.8775 92.928 48.9027 92.7269C48.9278 92.5258 48.8775 92.5258 49.1038 92.4755C49.3301 92.4378 49.4055 92.4252 49.5564 92.3246C49.7198 92.2366 50.0467 92.1486 49.6318 92.6515Z" fill="#727273"/>
<path d="M45.2698 94.1348C45.1567 94.1348 45.0812 94.0846 45.0058 94.1097C44.943 94.1348 44.855 94.1223 44.8047 94.1977C44.7544 94.2731 44.679 94.3486 44.9807 94.336C45.2824 94.3234 45.0938 94.3863 45.2824 94.3234C45.471 94.2606 45.6595 94.1348 45.2698 94.1348Z" fill="#727273"/>
<path d="M47.7841 94.5498C47.7841 94.5498 47.6583 94.4618 47.608 94.4869C47.5452 94.5121 47.608 94.5372 47.5326 94.6252C47.4698 94.7132 47.344 94.6378 47.6835 94.6252C48.0104 94.6001 47.9601 94.6126 47.7841 94.5498Z" fill="#727273"/>
<path d="M46.5144 89.9109C46.5144 89.9109 46.351 89.8731 46.2253 89.9737C46.0996 90.0743 46.2127 90.0491 46.0996 90.112C45.9864 90.1749 46.1247 90.1623 46.2756 90.112C46.439 90.0366 46.6778 89.9863 46.5144 89.9109Z" fill="#727273"/>
<path d="M48.8778 87.9748C48.8778 87.9748 48.7396 87.8994 48.6767 87.9246C48.6139 87.9623 48.6767 87.9748 48.6139 88.088C48.551 88.1885 48.4127 88.1257 48.7773 88.0628C49.1293 88 49.079 88.0251 48.8778 87.9748Z" fill="#727273"/>
<path d="M42.5542 90.8411C42.5542 90.8411 42.6422 90.8663 42.7176 90.8034C42.7805 90.7531 42.7176 90.7657 42.7805 90.728C42.8434 90.6903 42.7679 90.7028 42.6799 90.728C42.6045 90.7783 42.4662 90.8034 42.5542 90.8411Z" fill="#727273"/>
<path d="M48.8022 90.1497C48.7017 90.2754 48.3999 90.4012 48.2994 90.3257C48.1988 90.2377 48.048 90.4263 48.0731 90.2252C48.0982 90.024 48.048 90.024 48.2742 89.9737C48.5005 89.936 48.5759 89.9234 48.7268 89.8229C48.8902 89.7223 49.2171 89.6469 48.8022 90.1497Z" fill="#727273"/>
<path d="M43.5223 90.3508C43.4091 90.3508 43.3337 90.3006 43.2583 90.3257C43.1954 90.3508 43.1074 90.3383 43.0571 90.4137C43.0068 90.4891 42.9314 90.5646 43.2331 90.552C43.5348 90.5394 43.3463 90.6023 43.5348 90.5394C43.7234 90.464 43.912 90.3383 43.5223 90.3508Z" fill="#727273"/>
<path d="M46.9544 92.0355C46.9544 92.0355 46.8413 91.9475 46.7784 91.9726C46.7156 91.9977 46.7784 92.0229 46.703 92.1109C46.6402 92.1989 46.5144 92.1235 46.8539 92.1109C47.1807 92.0857 47.1304 92.1109 46.9544 92.0355Z" fill="#727273"/>
<path d="M45.6848 87.3966C45.6848 87.3966 45.5214 87.3589 45.3957 87.4594C45.27 87.56 45.3831 87.5349 45.27 87.5977C45.1568 87.6606 45.2951 87.648 45.446 87.5977C45.6094 87.5349 45.8483 87.4846 45.6848 87.3966Z" fill="#727273"/>
<path d="M48.0483 85.4731C48.0483 85.4731 47.91 85.3977 47.8471 85.4229C47.7843 85.4606 47.8471 85.4857 47.7843 85.5863C47.7214 85.6868 47.5831 85.624 47.9477 85.5611C48.3123 85.4983 48.2494 85.5234 48.0483 85.4731Z" fill="#727273"/>
<path d="M30.3978 140.611C30.3978 140.611 30.335 140.511 30.2344 140.498C30.1338 140.486 30.1967 140.523 30.1087 140.511C30.0207 140.486 30.0961 140.549 30.1967 140.599C30.2972 140.637 30.4355 140.737 30.3978 140.611Z" fill="#727273"/>
<path d="M34.0182 141.139C34.0182 141.139 33.9679 140.963 33.8925 140.938C33.8171 140.913 33.8548 140.989 33.7165 141.014C33.5908 141.039 33.5279 140.888 33.8548 141.127C34.1942 141.353 34.1314 141.341 34.0182 141.139Z" fill="#727273"/>
<path d="M55.3646 122.785C55.1508 122.798 54.7486 122.634 54.7234 122.458C54.6983 122.282 54.384 122.307 54.6103 122.144C54.824 121.993 54.7863 121.93 55.0377 122.106C55.2891 122.282 55.3646 122.345 55.616 122.395C55.8548 122.458 56.2446 122.71 55.3646 122.785Z" fill="#727273"/>
<path d="M49.2048 121.415C49.2048 121.415 49.1168 121.226 48.9282 121.176C48.7397 121.126 48.8528 121.226 48.702 121.163C48.5637 121.113 48.6642 121.226 48.8402 121.327C49.0162 121.44 49.2551 121.628 49.2048 121.415Z" fill="#727273"/>
<path d="M51.4675 123.816C51.367 123.716 51.3292 123.59 51.2412 123.539C51.1532 123.502 51.0904 123.401 50.9647 123.426C50.8515 123.439 50.7007 123.439 51.0024 123.715C51.3041 123.992 51.0527 123.866 51.3041 123.992C51.543 124.118 51.8447 124.181 51.4675 123.816Z" fill="#727273"/>
<path d="M52.8628 122.207C52.8628 122.207 52.8377 122.006 52.7497 121.981C52.6743 121.943 52.6994 122.031 52.5485 122.043C52.3977 122.056 52.36 121.88 52.6868 122.182C53.0263 122.471 52.9634 122.446 52.8628 122.207Z" fill="#727273"/>
<path d="M38.5189 117.455C38.7074 117.442 39.0846 117.593 39.1097 117.744C39.1223 117.907 39.4114 117.882 39.2229 118.021C39.0217 118.159 39.072 118.222 38.8331 118.058C38.5943 117.895 38.5314 117.832 38.3051 117.794C38.0663 117.757 37.7143 117.53 38.5189 117.455Z" fill="#727273"/>
<path d="M45.2821 118.335C45.2821 118.335 45.3323 118.435 45.4329 118.461C45.5335 118.486 45.4706 118.435 45.5586 118.461C45.634 118.486 45.5712 118.423 45.4832 118.373C45.3826 118.322 45.2569 118.222 45.2821 118.335Z" fill="#727273"/>
<path d="M43.5724 119.944C43.6729 120.032 43.6981 120.158 43.7735 120.195C43.8615 120.233 43.9118 120.321 44.0249 120.309C44.1381 120.296 44.2638 120.296 43.9872 120.045C43.7106 119.793 43.9369 119.906 43.7107 119.793C43.5095 119.68 43.2329 119.617 43.5724 119.944Z" fill="#727273"/>
<path d="M41.7497 117.417C41.7497 117.417 41.7749 117.593 41.8503 117.631C41.9257 117.669 41.9006 117.593 42.0263 117.568C42.1646 117.555 42.2023 117.719 41.9006 117.442C41.5989 117.178 41.6492 117.203 41.7497 117.417Z" fill="#727273"/>
<path d="M39.1475 120.635C39.1475 120.635 39.2607 120.811 39.4492 120.837C39.6378 120.862 39.5247 120.786 39.6755 120.824C39.8264 120.862 39.7007 120.761 39.5121 120.673C39.3361 120.585 39.0721 120.422 39.1475 120.635Z" fill="#727273"/>
<path d="M35.426 120.246C35.426 120.246 35.4763 120.434 35.5643 120.459C35.6397 120.485 35.6146 120.409 35.7529 120.371C35.8912 120.334 35.9666 120.51 35.602 120.258C35.2249 120.007 35.2878 120.032 35.426 120.246Z" fill="#727273"/>
<path d="M43.3841 123.25C43.3841 123.25 43.3213 123.15 43.2207 123.137C43.1201 123.125 43.183 123.162 43.095 123.15C43.007 123.125 43.0824 123.187 43.183 123.238C43.2836 123.275 43.4344 123.363 43.3841 123.25Z" fill="#727273"/>
<path d="M47.0046 123.766C47.0046 123.766 46.9543 123.59 46.8789 123.565C46.8034 123.539 46.8411 123.615 46.7029 123.64C46.5771 123.665 46.5143 123.514 46.8411 123.753C47.1806 123.992 47.1303 123.967 47.0046 123.766Z" fill="#727273"/>
<path d="M90.8034 137.041C89.3451 144.144 67.7222 148.682 54.4468 148.003C41.1588 147.325 37.9405 145.363 28.1474 144.71C23.7851 144.421 21.2959 142.145 20.8057 139.317C21.7485 139.819 23.2571 140.159 25.6582 139.845C31.3782 139.09 34.6845 139.744 37.6514 140.41C40.6182 141.077 49.2674 136.538 56.4834 140.234C63.6994 143.93 62.8571 140.951 65.0319 141.265C67.2068 141.567 77.0377 138.877 81.6639 136.991C85.4102 135.47 90.112 135.357 90.376 133.207C90.9291 134.313 91.1051 135.583 90.8034 137.041Z" fill="#5E5E5E"/>
<path d="M79.1123 120.673C77.9935 121.981 76.4975 122.974 76.4975 122.974C68.9923 128.191 61.9272 127.072 54.0826 127.839C46.8918 128.543 38.9466 133.182 34.6221 124.583C35.4266 124.885 37.6266 125.576 39.8644 125.01C42.6929 124.306 43.7866 124.269 44.5661 124.445C45.3455 124.621 48.0106 121.528 51.4552 122.307C54.8998 123.087 54.8118 123.565 57.0369 123.917C59.2621 124.269 59.7146 124.093 63.5112 124.294C67.3078 124.495 69.1935 123.753 70.7272 123.879C72.2483 124.005 73.782 122.747 75.7809 122.182C77.1889 121.792 78.2952 121.277 79.1123 120.673Z" fill="#5E5E5E"/>
<path opacity="0.2" d="M89.2697 145.326C89.2697 145.326 88.1886 145.665 86.416 146.231C84.2663 143.779 79.6525 142.07 74.2971 142.07C66.8925 142.07 60.896 145.313 60.896 149.311C60.896 150.895 61.8388 152.366 63.4354 153.547C60.2674 154.566 57.8663 155.333 57.1245 155.571C54.1828 156.527 53.7428 157.193 53.2148 157.621C52.6868 158.048 44.5657 159.142 44.4902 159.821C44.3268 159.733 44.0502 159.67 43.7485 159.67C43.2582 159.67 42.856 159.821 42.856 159.997C42.856 160.185 43.2582 160.323 43.7485 160.323C44.2388 160.323 44.6411 160.173 44.6411 159.997C44.6411 159.971 44.6285 159.946 44.616 159.934C45.6468 160.223 52.8251 158.589 53.2274 158.752C54.5725 159.293 58.0674 158.4 58.0674 158.4L69.344 156.037C69.696 156.112 70.0605 156.175 70.4251 156.238C70.9154 157.168 73.7691 157.897 77.2263 157.897C81.0228 157.897 84.1028 157.03 84.1028 155.961C84.1028 155.823 84.0525 155.697 83.952 155.559L83.5874 154.515C84.7063 153.925 85.6366 153.246 86.328 152.479L88.3771 152.051C88.2388 152.202 88.176 152.353 88.176 152.517C88.176 153.912 93.7326 155.056 100.571 155.056C107.423 155.056 112.967 153.925 112.967 152.517C112.992 145.615 89.2697 145.326 89.2697 145.326Z" fill="#5E5E5E"/>
<path d="M112.577 114.086V147.815C112.577 150.87 112.577 153.346 100.609 153.346C94.6251 153.346 91.6331 152.73 90.1371 151.725C88.6411 150.731 88.6411 149.336 88.6411 147.815V114.086C88.6411 110.742 92.048 110.867 92.048 106.015C92.048 105.6 92.048 104.343 92.048 104.343H109.145C109.145 104.343 109.145 105.6 109.145 106.015C109.158 110.654 112.577 110.654 112.577 114.086Z" fill="#6D2613"/>
<path d="M110.163 103.589C110.101 104.205 109.711 104.72 109.17 104.959C108.969 105.047 108.73 105.097 108.491 105.097H92.7394C92.5005 105.097 92.2742 105.047 92.0605 104.959C91.5199 104.72 91.1177 104.205 91.0674 103.589H110.163Z" fill="#6D2613"/>
<path opacity="0.7" d="M112.577 143.792V144.672C112.414 144.898 112.2 145.125 111.961 145.338C110.415 146.646 107.222 147.45 100.622 147.45C94.0094 147.45 90.8162 146.633 89.2825 145.338C89.0311 145.137 88.8299 144.911 88.6665 144.685V143.805C90.3636 145.125 93.7705 145.942 100.622 145.942C107.473 145.942 110.88 145.125 112.577 143.792Z" fill="#472820"/>
<path opacity="0.7" d="M109.158 104.971V105.814H92.0605V104.971C92.2617 105.059 92.5006 105.11 92.7394 105.11H108.491C108.73 105.11 108.957 105.059 109.158 104.971Z" fill="#472820"/>
<path d="M110.931 91.7212V103.601H90.3008V91.7212C90.3008 91.6961 90.3008 91.6709 90.3008 91.6458C90.3259 90.6652 90.8162 89.7978 91.5579 89.2698C92.0608 88.9052 92.6768 88.6915 93.3431 88.6915H107.901C109.573 88.6789 110.931 90.0492 110.931 91.7212Z" fill="#F7AE19"/>
<path d="M107.813 88.6789H93.4058C93.808 87.7737 94.3738 86.9692 95.0652 86.2777V74.888C95.0652 71.8206 97.5543 69.344 100.609 69.344C103.677 69.344 106.153 71.8331 106.153 74.888V86.2777C106.845 86.9692 107.423 87.7737 107.813 88.6789Z" fill="#1E201B"/>
<path opacity="0.6" d="M98.0695 74.9383L98.1072 86.2148C98.0444 87.2583 97.5667 88.2011 97.1392 88.6663H94.8638C95.1529 88.088 95.5426 87.56 95.9952 87.12V75.328C95.9952 73.2789 97.4284 71.5566 99.3518 71.1417C98.5724 71.9212 98.0695 73.3291 98.0695 74.9383Z" fill="#FFFFFC"/>
<path opacity="0.6" d="M105.713 88.6789H103.815C103.626 88.0755 103.375 87.5349 103.073 87.0698V74.9257C103.073 73.5932 102.847 72.3989 102.394 71.5943C103.701 72.336 104.581 73.7314 104.581 75.328V87.12C105.034 87.5852 105.411 88.1006 105.713 88.6789Z" fill="#FFFFFC"/>
<path d="M110.93 91.7212V103.601H101.715V88.6789H107.888C109.572 88.6789 110.93 90.0492 110.93 91.7212Z" fill="#D57028"/>
<path d="M91.5579 89.2571V103.589H90.3008V91.6457C90.3259 90.6651 90.8162 89.7977 91.5579 89.2571Z" fill="#FCBD4B"/>
<path d="M110.93 91.7212V103.601H107.222V88.6789H107.901C109.573 88.6789 110.93 90.0492 110.93 91.7212Z" fill="#825528"/>
<path opacity="0.6" d="M97.7681 103.576C97.6423 103.589 97.5292 103.601 97.4035 103.601H95.1532C93.6069 103.601 92.3623 102.344 92.3623 100.81V91.344C92.3623 90.0995 93.1795 89.0435 94.3109 88.6789H97.2903C96.1589 89.0435 95.3418 90.0995 95.3418 91.344V100.81C95.3418 102.218 96.3978 103.387 97.7681 103.576Z" fill="#FFFFFC"/>
<path opacity="0.7" d="M92.3623 108.793C92.8652 107.448 93.3554 113.067 89.4835 113.784C89.4835 113.784 89.3578 112.854 89.9109 112.301C90.464 111.747 92.312 108.944 92.3623 108.793Z" fill="#281C1B"/>
<path opacity="0.7" d="M111.383 147.375C111.383 140.209 111.383 117.568 111.383 115.129C111.383 112.225 110.126 110.842 109.07 109.497C108.014 108.152 107.926 105.814 107.926 105.814H105.877C105.877 105.814 106.053 109.459 107.75 111.194C109.434 112.929 109.082 116.701 109.082 116.701V148.091C107.096 148.531 104.368 148.77 100.622 148.77C93.8584 148.77 90.4138 147.978 88.6538 146.696V147.827C88.6538 149.349 88.6538 150.731 90.1498 151.737C91.6458 152.743 94.6378 153.359 100.622 153.359C112.59 153.359 112.59 150.882 112.59 147.827V146.696C112.238 146.947 111.848 147.161 111.383 147.375Z" fill="#281C1B"/>
<path opacity="0.6" d="M107.951 110.113C106.933 110.289 105.914 110.402 104.909 110.478C104.104 108.969 103.765 106.933 103.765 105.801H106.241C106.241 105.801 106.618 108.705 107.951 110.113Z" fill="#FFFFFC"/>
<path opacity="0.6" d="M109.874 116.688C109.874 121.113 109.874 148.745 109.874 148.745C109.874 148.745 109.296 151.347 107.222 151.41V115.971C107.222 115.971 107.159 114.299 106.543 112.879C107.725 112.917 108.781 112.891 109.61 112.816C109.786 113.671 109.874 114.865 109.874 116.688Z" fill="#FFFFFC"/>
<path opacity="0.6" d="M94.9141 106.279C94.9141 106.279 94.6124 112.011 97.8558 112.703C101.112 113.394 93.0912 113.91 92.7015 120.246C92.3118 126.569 88.9175 115.23 90.9415 112.703C92.9655 110.189 93.5312 105.814 93.5312 105.814H94.9141V106.279Z" fill="#FFFFFC"/>
<path d="M87.4849 141.554C87.4849 143.968 86.8438 146.231 85.7124 148.179C85.1718 149.11 84.5307 149.977 83.7764 150.757C82.5821 152.001 81.1489 153.007 79.5524 153.711C78.5718 154.151 77.5409 154.465 76.4598 154.654C75.7181 154.779 74.9512 154.855 74.1844 154.855C66.8426 154.855 60.8838 148.909 60.8838 141.554C60.8838 134.213 66.8301 128.254 74.1844 128.254C81.5261 128.254 87.4849 134.2 87.4849 141.554Z" fill="#6D2613"/>
<path opacity="0.7" d="M74.1844 128.254C66.8426 128.254 60.8838 134.213 60.8838 141.554C60.8838 148.896 66.8301 154.855 74.1844 154.855C74.9638 154.855 75.7306 154.792 76.4598 154.654C77.5409 154.465 78.5844 154.151 79.5524 153.711C81.1489 153.007 82.5821 152.001 83.7764 150.757C84.5181 149.977 85.1718 149.122 85.7124 148.179C86.8438 146.231 87.4849 143.968 87.4849 141.554C87.4849 134.2 81.5261 128.254 74.1844 128.254ZM68.1501 150.078C67.8484 149.889 67.5466 149.675 67.2701 149.462C67.1821 149.399 67.0941 149.323 67.0061 149.261C66.9432 149.21 66.8929 149.16 66.8301 149.11C66.7798 149.072 66.7421 149.034 66.6918 148.997C66.5158 148.846 66.3524 148.695 66.1889 148.531C66.1009 148.443 66.0129 148.355 65.9375 148.28C65.8495 148.192 65.7741 148.104 65.6986 148.016C65.6232 147.928 65.5352 147.84 65.4598 147.739C65.3844 147.651 65.3089 147.563 65.2335 147.475C65.2335 147.475 65.2335 147.463 65.2209 147.463C65.1455 147.375 65.0826 147.274 65.0072 147.186C64.9318 147.086 64.8689 146.998 64.8061 146.897C64.7306 146.797 64.6678 146.696 64.6049 146.595C64.5421 146.495 64.4792 146.394 64.4164 146.294C64.3535 146.193 64.2906 146.08 64.2278 145.979C64.1649 145.879 64.1146 145.766 64.0518 145.665C64.0015 145.577 63.9512 145.477 63.9135 145.389C63.8506 145.25 63.7752 145.112 63.7249 144.974C63.6872 144.873 63.6369 144.785 63.5992 144.685C63.5741 144.622 63.5364 144.546 63.5112 144.471C63.4861 144.395 63.4484 144.32 63.4232 144.257C63.3855 144.169 63.3604 144.081 63.3352 143.993C63.3101 143.93 63.2975 143.88 63.2724 143.817C63.2221 143.641 63.1592 143.465 63.1215 143.289C63.0838 143.163 63.0586 143.05 63.0335 142.925C63.0084 142.824 62.9832 142.723 62.9706 142.623C62.9581 142.535 62.9329 142.447 62.9204 142.371C62.9078 142.296 62.8952 142.221 62.8826 142.145C62.8701 142.057 62.8575 141.982 62.8449 141.894C62.8324 141.831 62.8324 141.755 62.8198 141.693C62.8072 141.567 62.7946 141.441 62.7821 141.315C62.7821 141.24 62.7695 141.177 62.7695 141.102C62.7695 141.077 62.7695 141.064 62.7695 141.039C62.7569 140.926 62.7569 140.8 62.7569 140.687C62.7569 140.561 62.7444 140.423 62.7444 140.297C62.7444 133.923 67.8735 128.757 74.2095 128.757C80.5329 128.757 85.6746 133.923 85.6746 140.297C85.6746 140.41 85.6746 140.523 85.6746 140.637C85.6746 140.75 85.6621 140.863 85.6621 140.976C85.6621 141.089 85.6495 141.202 85.6369 141.315C85.6244 141.429 85.6118 141.529 85.5992 141.642C85.5741 141.818 85.5615 141.982 85.5238 142.158C85.4986 142.334 85.4735 142.497 85.4358 142.661C85.4106 142.761 85.3981 142.849 85.3729 142.937C85.3101 143.214 85.2346 143.503 85.1466 143.767C85.1215 143.842 85.0964 143.918 85.0712 143.993C85.0461 144.081 85.0209 144.157 84.9832 144.232C84.8952 144.471 84.8072 144.71 84.6941 144.949C84.6438 145.049 84.6061 145.162 84.5558 145.263C84.4552 145.464 84.3547 145.665 84.2541 145.854C84.2038 145.954 84.1409 146.067 84.0781 146.155C84.0781 146.155 84.0781 146.168 84.0655 146.168C83.9901 146.294 83.9146 146.432 83.8266 146.558C83.7261 146.709 83.6255 146.859 83.5249 146.998C83.5124 147.01 83.5124 147.023 83.4998 147.023C83.3992 147.161 83.2986 147.287 83.1981 147.425C83.0849 147.563 82.9718 147.702 82.8586 147.84C82.6198 148.117 82.3684 148.381 82.1169 148.619C82.0289 148.707 81.9409 148.783 81.8529 148.858C81.1238 149.512 80.3067 150.078 79.4392 150.53C79.3387 150.581 79.2255 150.643 79.1249 150.694C79.0118 150.744 78.8861 150.807 78.7729 150.857C78.6598 150.907 78.5467 150.958 78.4335 150.995C78.3204 151.046 78.2072 151.083 78.0941 151.121C78.0061 151.146 77.9306 151.184 77.8426 151.209C77.7798 151.234 77.7169 151.259 77.6415 151.272C77.4529 151.335 77.2518 151.385 77.0507 151.435C77.0381 151.435 77.0255 151.448 77.0129 151.448C76.9878 151.448 76.9626 151.461 76.9375 151.461C76.8621 151.473 76.7992 151.498 76.7238 151.511C76.6609 151.523 76.5981 151.536 76.5352 151.549C76.4472 151.574 76.3466 151.586 76.2586 151.599C76.1706 151.611 76.0701 151.637 75.9821 151.649C75.8689 151.662 75.7684 151.687 75.6552 151.699C75.5421 151.712 75.4289 151.725 75.3032 151.737C75.1901 151.75 75.0769 151.762 74.9512 151.762C74.8758 151.762 74.8004 151.775 74.7375 151.775C74.6746 151.775 74.5992 151.787 74.5364 151.787C74.4358 151.787 74.3352 151.787 74.2346 151.787C74.0964 151.787 73.9581 151.787 73.8198 151.775C73.7946 151.775 73.7821 151.775 73.7569 151.775C73.6564 151.775 73.5558 151.762 73.4552 151.762C73.3546 151.75 73.2541 151.75 73.1535 151.737C72.5501 151.687 71.9718 151.574 71.4061 151.435C71.3935 151.435 71.3809 151.435 71.3809 151.423C71.3306 151.41 71.2804 151.398 71.2301 151.385C71.1421 151.36 71.0541 151.335 70.9661 151.31C70.6895 151.222 70.4004 151.134 70.1364 151.021C70.0609 150.995 69.9981 150.97 69.9226 150.933C69.8221 150.895 69.7215 150.857 69.6335 150.807C69.5455 150.769 69.4701 150.731 69.3946 150.694C69.3192 150.656 69.2438 150.631 69.1809 150.593C68.9672 150.493 68.7535 150.379 68.5524 150.254C68.4769 150.203 68.3889 150.166 68.3135 150.115C68.2129 150.115 68.1752 150.09 68.1501 150.078Z" fill="#281C1B"/>
<path d="M85.649 140.259C85.649 146.633 80.5199 151.8 74.1839 151.8C67.8605 151.8 62.7188 146.633 62.7188 140.259C62.7188 133.886 67.8479 128.719 74.1839 128.719C80.5073 128.706 85.649 133.886 85.649 140.259Z" fill="#6D2613"/>
<path opacity="0.8" d="M80.9976 132.427C80.9976 132.427 85.6615 134.099 86.0135 139.933C86.3655 145.766 84.1027 139.015 84.1027 139.015C84.1027 139.015 83.2101 136.224 81.8398 135.231C80.7964 134.477 82.8078 133.936 80.9976 132.427Z" fill="#FFFFFC"/>
<path d="M86.0134 145.866C86.0134 146.671 85.9003 147.438 85.7117 148.179C85.1712 149.11 84.53 149.977 83.7757 150.757C82.5814 152.001 81.1483 153.007 79.5517 153.711C78.5712 154.151 77.5403 154.465 76.4592 154.654C74.8626 154.515 73.3792 153.962 72.1472 153.082C71.3426 152.517 70.6386 151.825 70.0729 151.033C69.7712 150.606 69.4946 150.166 69.2683 149.688C68.9289 148.997 68.69 148.242 68.5392 147.463C68.5392 147.463 68.5392 147.463 68.5392 147.45C68.4512 146.935 68.4009 146.407 68.4009 145.854C68.4009 140.989 72.3483 137.041 77.2134 137.041C79.0237 137.041 80.6957 137.582 82.0912 138.512C82.7449 138.952 83.3483 139.48 83.8637 140.071C84.5049 140.813 85.0329 141.667 85.41 142.598C85.5986 143.063 85.7369 143.541 85.8374 144.031C85.9506 144.647 86.0134 145.25 86.0134 145.866Z" fill="#1E201B"/>
<path opacity="0.7" d="M85.8377 143.905C85.8377 149.386 81.4 153.824 75.9189 153.824C70.4377 153.824 66 149.386 66 143.905C66 138.424 70.4377 133.986 75.9189 133.986C81.3874 133.986 85.8377 138.424 85.8377 143.905Z" fill="#281C1B"/>
<path opacity="0.7" d="M85.3974 145.866C85.3974 146.294 85.3597 146.721 85.2968 147.136C85.0831 148.469 84.5551 149.701 83.7883 150.744C82.594 151.989 81.1608 152.994 79.5643 153.698C78.8226 153.925 78.0306 154.038 77.2134 154.038C76.4968 154.038 75.818 153.95 75.1643 153.774C73.6054 153.371 72.2351 152.529 71.1917 151.385C71.1414 151.335 71.0911 151.285 71.0534 151.234C70.5506 150.669 70.1357 150.027 69.8088 149.323C69.3186 148.267 69.042 147.086 69.042 145.854C69.042 141.328 72.7128 137.67 77.226 137.67C79.6648 137.67 81.8523 138.738 83.3483 140.423C83.8511 140.989 84.2786 141.617 84.6054 142.296C84.8191 142.749 84.9951 143.226 85.1334 143.717C85.2968 144.408 85.3974 145.125 85.3974 145.866Z" fill="#281C1B"/>
<path opacity="0.7" d="M84.7316 143.905C84.7316 148.77 80.7842 152.718 75.919 152.718C71.0539 152.718 67.1064 148.77 67.1064 143.905C67.1064 139.04 71.0539 135.093 75.919 135.093C80.7842 135.093 84.7316 139.04 84.7316 143.905Z" fill="#281C1B"/>
<path d="M84.1029 143.905C84.1029 148.431 80.432 152.089 75.9189 152.089C71.3932 152.089 67.7349 148.418 67.7349 143.905C67.7349 139.379 71.4057 135.721 75.9189 135.721C80.432 135.721 84.1029 139.379 84.1029 143.905Z" fill="#6D2613"/>
<path opacity="0.6" d="M81.8398 140.259C81.8398 140.259 84.505 141.806 84.505 145.866C84.505 145.866 85.4353 141.567 81.8398 140.259Z" fill="#FFFFFC"/>
<path d="M84.0652 145.866C84.0652 149.65 80.9977 152.718 77.2137 152.718C73.4297 152.718 70.3623 149.65 70.3623 145.866C70.3623 144.27 70.9029 142.799 71.8206 141.642C73.0652 140.033 75.0263 139.015 77.2137 139.015C79.4012 139.015 81.3623 140.046 82.6069 141.642C83.512 142.799 84.0652 144.27 84.0652 145.866Z" fill="#3A271A"/>
<path d="M82.808 145.866C82.808 148.959 80.3062 151.473 77.2011 151.473C75.6045 151.473 74.1714 150.807 73.1531 149.738C72.7508 149.311 72.4114 148.821 72.1474 148.293C71.9337 147.853 71.7828 147.387 71.6948 146.885C71.632 146.558 71.5942 146.218 71.5942 145.866C71.5942 144.182 72.336 142.661 73.5177 141.642C74.4982 140.787 75.7931 140.259 77.2011 140.259C77.8045 140.259 78.3954 140.36 78.936 140.536C79.4137 140.687 79.8537 140.901 80.2685 141.177C80.4822 141.315 80.6834 141.466 80.872 141.642C81.1234 141.856 81.3622 142.107 81.5634 142.371C82.3554 143.327 82.808 144.534 82.808 145.866Z" fill="#7C4924"/>
<path d="M80.2812 141.177C79.8664 140.913 79.4264 140.687 78.9486 140.536C78.4081 140.36 77.8172 140.259 77.2138 140.259C74.1212 140.259 71.6069 142.774 71.6069 145.866C71.6069 146.206 71.6447 146.558 71.7075 146.885C71.7955 147.375 71.9464 147.853 72.1601 148.293C72.4241 148.833 72.7635 149.323 73.1658 149.738C73.2538 149.738 73.3544 149.738 73.4424 149.738C77.6915 149.738 81.1864 146.507 81.5886 142.359C81.2115 141.906 80.7715 141.504 80.2812 141.177Z" fill="#B74926"/>
<path d="M80.2812 141.177C79.8664 140.913 79.4264 140.687 78.9486 140.536C78.4081 140.36 77.8172 140.259 77.2138 140.259C74.1212 140.259 71.6069 142.774 71.6069 145.866C71.6069 146.206 71.6447 146.558 71.7075 146.885C71.7955 147.375 71.9464 147.853 72.1601 148.293C72.5749 148.368 73.0024 148.418 73.4424 148.418C77.2264 148.418 80.2938 145.351 80.2938 141.567C80.2938 141.429 80.2938 141.303 80.2812 141.177Z" fill="#E47425"/>
<path d="M79.0365 141.554C79.0365 144.647 76.5222 147.161 73.4297 147.161C72.8262 147.161 72.2354 147.061 71.6948 146.885C71.632 146.558 71.5942 146.218 71.5942 145.866C71.5942 142.774 74.1085 140.259 77.2011 140.259C77.8045 140.259 78.3954 140.36 78.936 140.536C79.0114 140.863 79.0365 141.202 79.0365 141.554Z" fill="#C46A28"/>
<path opacity="0.8" d="M71.7827 148.406C71.7827 148.406 73.2661 151.926 77.201 151.989C77.201 151.989 72.625 152.818 71.7827 148.406Z" fill="#FFFFFC"/>
<path opacity="0.6" d="M69.2809 142.547C69.2809 142.547 69.7334 140.511 71.7826 139.002C73.8192 137.506 75.5792 137.67 75.5792 137.67C75.5792 137.67 74.3723 137.091 73.8066 136.941C73.1026 136.752 72.298 136.89 70.9277 137.946C69.9974 138.663 68.5392 140.134 69.2809 142.547Z" fill="#FFFFFC"/>
<path opacity="0.6" d="M69.8973 144.634C69.8973 144.634 70.2367 142.045 72.6127 140.197C74.9887 138.349 77.2012 138.638 77.2012 138.638C77.2012 138.638 74.1464 137.783 71.783 139.92C69.4321 142.045 69.8973 144.634 69.8973 144.634Z" fill="#FFFFFC"/>
<path opacity="0.6" d="M69.8596 131.296C69.8596 131.296 65.6607 132.792 65.3213 137.355C65.3213 137.355 66.8173 133.81 69.8596 131.296Z" fill="#FFFFFC"/>
<path opacity="0.6" d="M72.575 133.219C72.575 133.219 69.231 133.006 67.5967 136.388C67.5967 136.388 69.3315 134.502 72.575 133.219Z" fill="#FFFFFC"/>
<path opacity="0.3" d="M82.808 145.866C82.808 148.959 80.3062 151.473 77.2011 151.473C75.6045 151.473 74.1714 150.807 73.1531 149.738C72.7508 149.311 72.4114 148.821 72.1474 148.293C71.9337 147.853 71.7828 147.387 71.6948 146.885C71.632 146.558 71.5942 146.218 71.5942 145.866C71.5942 144.182 72.336 142.661 73.5177 141.642H80.872C81.1234 141.856 81.3622 142.107 81.5634 142.371C82.3554 143.327 82.808 144.534 82.808 145.866Z" fill="#533895"/>
<path opacity="0.4" d="M86.0766 129.674L82.3932 132.302L62.4423 146.545L55.1886 151.737C55.1509 151.762 53.2903 153.095 53.2526 153.107C51.1406 154.151 49.4434 154.465 48.0857 155.157C46.0869 156.15 44.0754 157.595 44.0754 157.595C43.9623 157.683 43.7863 157.658 43.6229 157.558C43.5349 157.507 43.4594 157.432 43.384 157.331L43.3714 157.319C43.3463 157.281 43.3211 157.243 43.296 157.206C43.2709 157.168 43.2583 157.13 43.2457 157.093C43.2331 157.055 43.2206 157.017 43.2206 156.992C43.208 156.942 43.208 156.891 43.208 156.854C43.208 156.741 43.2583 156.64 43.3337 156.577C43.3337 156.577 45.3452 155.131 46.9166 153.547C47.9977 152.466 48.8274 150.958 50.4869 149.286C50.512 149.248 52.3726 147.903 52.3977 147.878L54.2206 146.545L79.4263 128.191L83.0846 125.526L85.1966 128.455L86.0766 129.674Z" fill="#B4B4B5"/>
<path opacity="0.7" d="M82.7452 126.481C82.7452 126.481 81.6137 127.298 79.7532 128.643C74.1966 132.654 62.1783 141.315 54.912 146.558C53.5794 147.513 52.4103 148.355 51.4674 149.034C50.512 149.726 50.3863 149.839 48.928 151.725C47.432 153.635 47.0172 154.377 43.2457 157.105C43.2331 157.067 43.2206 157.03 43.2206 157.005C43.208 156.954 43.208 156.904 43.208 156.866C45.0686 155.521 46.5143 154.515 47.96 152.655C49.984 150.053 50.3109 149.575 51.6434 148.645C51.8697 148.481 52.9257 147.727 54.5223 146.57C60.4057 142.309 73.6183 132.704 79.552 128.392C81.4 127.047 82.5314 126.217 82.5314 126.217L82.7452 126.481Z" fill="#472820"/>
<path opacity="0.7" d="M85.1339 129.8C85.1339 129.8 83.9899 130.617 82.1293 131.95C77.4653 135.294 68.3133 141.831 61.7133 146.558C57.5773 149.512 54.447 151.762 54.0447 152.064C52.7373 153.032 52.1464 153.12 49.0664 154.302C47.1682 155.018 45.647 156.099 43.6104 157.57C43.5224 157.52 43.447 157.445 43.3716 157.344C47.2939 154.578 48.8779 153.598 50.4744 153.095C52.0836 152.592 53.2779 151.637 53.2779 151.637L60.2802 146.558L81.5384 131.12L84.5304 128.958L85.1339 129.8Z" fill="#472820"/>
<path d="M95.9701 131.623L86.705 138.298L75.1016 122.207L84.3667 115.531C84.3918 115.519 84.4044 115.506 84.4296 115.494C85.209 114.966 86.1518 114.853 86.9941 115.129C87.5598 115.318 88.0753 115.67 88.4524 116.198L96.6364 127.55C97.5793 128.845 97.2776 130.68 95.9701 131.623Z" fill="#F7AE19"/>
<path d="M96.5861 127.487L88.4775 116.248C89.4078 116.047 90.3507 116.034 91.281 116.185L100.156 109.786C102.545 108.064 105.876 108.605 107.599 110.993C109.321 113.382 108.78 116.713 106.392 118.435L97.5164 124.834C97.3781 125.765 97.0764 126.67 96.5861 127.487Z" fill="#1E201B"/>
<path opacity="0.6" d="M101.828 112.162L93.0534 118.536C92.1985 119.077 91.1928 119.24 90.5894 119.165L89.3071 117.392C89.9231 117.291 90.5517 117.304 91.1551 117.405L100.357 110.767C101.954 109.61 104.104 109.774 105.512 111.031C104.456 110.855 103.085 111.257 101.828 112.162Z" fill="#FFFFFC"/>
<path opacity="0.6" d="M95.4045 125.84L94.3359 124.357C94.7005 123.866 94.9771 123.363 95.1656 122.873L104.632 116.047C105.663 115.305 106.467 114.45 106.844 113.646C107.008 115.079 106.404 116.55 105.16 117.455L95.9828 124.08C95.8822 124.696 95.6936 125.287 95.4045 125.84Z" fill="#FFFFFC"/>
<path d="M95.97 131.623L86.7048 138.298L81.5254 131.107L93.154 122.722L96.6237 127.537C97.5791 128.845 97.2774 130.68 95.97 131.623Z" fill="#D57028"/>
<path d="M86.9943 115.129L75.8183 123.187L75.1143 122.207L84.4297 115.481C85.2091 114.953 86.152 114.853 86.9943 115.129Z" fill="#FCBD4B"/>
<path d="M95.9702 131.623L86.705 138.298L84.6182 135.407L96.2467 127.022L96.6239 127.55C97.5793 128.845 97.2776 130.68 95.9702 131.623Z" fill="#825528"/>
<path opacity="0.6" d="M79.3256 128.015C79.2502 127.927 79.1748 127.839 79.0993 127.738L77.8296 125.991C76.9622 124.784 77.2388 123.112 78.433 122.245L85.8125 116.927C86.7805 116.223 88.0627 116.273 88.9805 116.952L90.6525 119.278C89.7347 118.599 88.4525 118.549 87.4845 119.253L80.105 124.57C79.0113 125.362 78.697 126.846 79.3256 128.015Z" fill="#FFFFFC"/>
<path opacity="0.3" d="M61.8385 146.809L54.9242 151.737C54.8865 151.762 53.114 153.032 53.0762 153.045C51.0648 154.038 49.4557 154.339 48.1483 154.993C46.25 155.936 44.3391 157.319 44.3391 157.319C44.226 157.394 44.0625 157.382 43.9117 157.294C43.8237 157.243 43.7483 157.168 43.6854 157.08L43.6728 157.068C43.6477 157.03 43.6225 156.992 43.61 156.967C43.5974 156.929 43.5723 156.891 43.5597 156.854C43.5471 156.816 43.5345 156.791 43.5345 156.753C43.522 156.703 43.522 156.665 43.522 156.615C43.522 156.502 43.5723 156.414 43.6477 156.351C43.6477 156.351 45.5585 154.968 47.0545 153.459C48.0728 152.429 48.8774 150.995 50.4614 149.399C50.4865 149.374 52.2591 148.079 52.2842 148.054L54.0191 146.797H61.8385V146.809Z" fill="#533895"/>
<path opacity="0.3" d="M44.1884 157.017C44.1884 157.017 43.9872 157.331 44.1632 158.149C44.3392 158.966 43.7484 159.506 43.2832 159.267C42.8181 159.016 42.6421 158.425 43.2204 157.872C43.7861 157.306 44.1884 157.017 44.1884 157.017Z" fill="#533895"/>
</svg>
