<svg width="172" height="120" viewBox="0 0 172 120" fill="none" xmlns="http://www.w3.org/2000/svg">
<g clip-path="url(#clip0_190_4524)">
<path fill-rule="evenodd" clip-rule="evenodd" d="M86.0001 12.8694C106.136 12.8694 122.452 29.1428 122.452 49.2C122.452 69.2694 106.124 85.5306 86.0001 85.5306C65.8638 85.5306 49.5483 69.2571 49.5483 49.2C49.5483 29.1306 65.8638 12.8694 86.0001 12.8694ZM86.1475 18.7347L87.1181 40.7877L93.7769 19.7388C92.5729 19.3469 91.8604 18.0857 92.1429 16.849C90.9389 16.6286 89.7104 16.4571 88.4695 16.3714C88.4204 17.6326 87.4129 18.6612 86.1475 18.7347ZM94.0472 19.8122L89.2558 41.3632L101.161 22.751C100.104 22.0531 99.7355 20.6571 100.338 19.5429C99.2318 19.0041 98.0769 18.5388 96.9098 18.1224C96.5412 19.3347 95.3004 20.0694 94.0472 19.8122ZM101.406 22.8857L91.1846 42.4653L107.512 27.551C106.665 26.6082 106.677 25.1755 107.549 24.2449C106.616 23.4367 105.633 22.6898 104.613 21.9918C103.937 23.0694 102.549 23.449 101.406 22.8857ZM107.721 27.7592L92.7572 44.0326L112.402 33.8449C111.837 32.7184 112.218 31.3347 113.299 30.6612C112.599 29.6449 111.849 28.6653 111.038 27.7347C110.105 28.5918 108.667 28.6041 107.721 27.7592ZM112.55 34.0898L93.8752 45.9551L115.498 41.1796C115.24 39.9428 115.977 38.7061 117.194 38.3265C116.788 37.151 116.309 36.0122 115.768 34.9102C114.638 35.5102 113.25 35.1551 112.55 34.0898ZM115.572 41.4612L94.4526 48.0979L116.579 49.0653C116.653 47.8041 117.673 46.8 118.95 46.751C118.852 45.5143 118.692 44.2898 118.471 43.0898C117.218 43.3592 115.965 42.6612 115.572 41.4612ZM116.567 49.3469L94.4404 50.3143L115.56 56.951C115.953 55.751 117.218 55.0408 118.459 55.3347C118.68 54.1347 118.852 52.9102 118.938 51.6734C117.673 51.6122 116.641 50.6081 116.567 49.3469ZM115.498 57.2326L93.8752 52.4571L112.55 64.3224C113.25 63.2694 114.65 62.902 115.768 63.502C116.309 62.4 116.776 61.249 117.194 60.0857C115.965 59.7061 115.24 58.4694 115.498 57.2326ZM112.402 64.5673L92.7572 54.3796L107.721 70.653C108.667 69.8081 110.105 69.8204 111.038 70.6898C111.849 69.7592 112.599 68.7796 113.299 67.7632C112.218 67.0775 111.837 65.6938 112.402 64.5673ZM107.512 70.8489L91.1846 55.9469L101.406 75.5265C102.537 74.9632 103.925 75.3428 104.601 76.4204C105.62 75.7224 106.603 74.9755 107.537 74.1673C106.689 73.2245 106.677 71.7918 107.512 70.8489ZM101.161 75.6612L89.2558 57.049L94.0472 78.6C95.2881 78.3428 96.5289 79.0775 96.9098 80.2898C98.0892 79.8857 99.2318 79.4081 100.338 78.8694C99.7355 77.7551 100.104 76.3592 101.161 75.6612ZM93.7769 78.6734L87.1181 57.6245L86.1475 79.6775C87.4129 79.751 88.4204 80.7673 88.4695 82.0408C89.7104 81.9428 90.9389 81.7836 92.1429 81.5632C91.8604 80.3265 92.5729 79.0653 93.7769 78.6734ZM85.8526 79.6775L84.8821 57.6245L78.2232 78.6734C79.4272 79.0653 80.1398 80.3265 79.8572 81.5632C81.0612 81.7836 82.2898 81.9551 83.5306 82.0408C83.5798 80.7673 84.5872 79.751 85.8526 79.6775ZM77.9529 78.6L82.7444 57.049L70.8395 75.6612C71.8961 76.3592 72.2646 77.7551 71.6626 78.8694C72.7683 79.4081 73.9109 79.8734 75.0904 80.2898C75.4589 79.0775 76.6998 78.3428 77.9529 78.6ZM70.5938 75.5143L80.8155 55.9347L64.4878 70.8489C65.3355 71.7918 65.3232 73.2245 64.4509 74.1551C65.3846 74.9632 66.3675 75.7102 67.3995 76.4081C68.0629 75.3306 69.4512 74.951 70.5938 75.5143ZM64.2789 70.653L79.2429 54.3796L59.5981 64.5673C60.1632 65.6938 59.7823 67.0775 58.7012 67.751C59.4015 68.7673 60.1509 69.7469 60.9618 70.6775C61.8955 69.8204 63.3329 69.8081 64.2789 70.653ZM59.4506 64.3102L78.1249 52.4449L56.5021 57.2204C56.7601 58.4571 56.0229 59.6939 54.8066 60.0734C55.2121 61.249 55.6912 62.3877 56.2318 63.4898C57.3498 62.902 58.7503 63.2571 59.4506 64.3102ZM56.4283 56.951L77.5475 50.3143L55.4209 49.3469C55.3472 50.6081 54.3275 51.6122 53.0498 51.6612C53.1358 52.9102 53.3078 54.1224 53.5289 55.3224C54.7821 55.0408 56.0352 55.751 56.4283 56.951ZM55.4209 49.053L77.5475 48.0857L56.4283 41.449C56.0352 42.649 54.7698 43.3592 53.5289 43.0775C53.3078 44.2775 53.1358 45.502 53.0498 46.7388C54.3275 46.7877 55.3595 47.7918 55.4209 49.053ZM56.5021 41.1796L78.1249 45.9551L59.4506 34.0898C58.7503 35.1428 57.3498 35.5102 56.2318 34.9102C55.6912 36.0122 55.2243 37.151 54.8066 38.3265C56.0352 38.6939 56.7601 39.9428 56.5021 41.1796ZM59.5981 33.8449L79.2429 44.0326L64.2789 27.7592C63.3329 28.6041 61.8955 28.5918 60.9618 27.7224C60.1509 28.6531 59.4015 29.6326 58.7012 30.6612C59.7823 31.3347 60.1632 32.7184 59.5981 33.8449ZM64.4878 27.551L80.8155 42.4653L70.5938 22.8857C69.4635 23.449 68.0752 23.0694 67.3995 21.9918C66.3798 22.6898 65.3969 23.4367 64.4632 24.2449C65.3109 25.1755 65.3232 26.6082 64.4878 27.551ZM70.8395 22.7388L82.7444 41.351L77.9529 19.8C76.7121 20.0571 75.4712 19.3224 75.0904 18.1102C73.9109 18.5143 72.7683 18.9918 71.6626 19.5306C72.2646 20.6571 71.8961 22.0531 70.8395 22.7388ZM78.2232 19.7388L84.8821 40.7877L85.8526 18.7347C84.5872 18.6612 83.5798 17.6449 83.5306 16.3714C82.2898 16.4694 81.0612 16.6286 79.8572 16.849C80.1398 18.0857 79.4272 19.3347 78.2232 19.7388Z" fill="#EBDFCC"/>
<path fill-rule="evenodd" clip-rule="evenodd" d="M172 48V96.8081L0 97.1632V72.2816C7.32229 70.1877 21.8931 64.1633 32.7537 47.6449C47.8529 24.6857 72.6823 85.9224 108.262 84.1102C140.18 82.4939 154.579 52.249 172 48Z" fill="#E0CAA2"/>
<path fill-rule="evenodd" clip-rule="evenodd" d="M49.6712 46.2122C51.3912 47.4367 53.1726 48.9183 55.0278 50.5592C54.5978 51.1959 53.8852 51.6367 53.062 51.6612C53.148 52.9102 53.32 54.1224 53.5412 55.3224C54.782 55.0408 56.0352 55.7387 56.4406 56.951L60.4949 55.6775L61.06 56.2285L56.5143 57.2326C56.7723 58.4694 56.0352 59.7061 54.8189 60.0857C55.2243 61.2612 55.7035 62.4 56.244 63.502C57.3743 62.902 58.7626 63.2571 59.4629 64.3224L65.4706 60.5143L66.1586 61.1755L59.6103 64.5673C60.1755 65.6938 59.7946 67.0775 58.7135 67.751C59.4138 68.7673 60.1632 69.7469 60.974 70.6775C61.9078 69.8081 63.3452 69.8081 64.2912 70.6408L69.8075 64.6408C70.0532 64.8734 70.2989 65.0938 70.5446 65.3265L64.5 70.8489C65.3478 71.7918 65.3355 73.2244 64.4632 74.1551C65.3969 74.9632 66.3797 75.7102 67.4117 76.4081C68.0875 75.3306 69.4757 74.951 70.606 75.5142L74.2057 68.6081C74.4515 68.8285 74.6972 69.0367 74.9429 69.2449L70.8517 75.6489C71.9083 76.3469 72.2769 77.7428 71.6749 78.8571C72.7806 79.3959 73.9232 79.8612 75.1026 80.2775C75.4712 79.0653 76.7243 78.3306 77.9652 78.5877L79.2552 72.7836C79.4763 72.9551 79.7097 73.1265 79.9432 73.3102L78.2477 78.6734C79.4517 79.0653 80.1643 80.3265 79.8817 81.5632C81.0857 81.7836 82.3143 81.9551 83.5552 82.0408C83.6043 80.7673 84.6117 79.751 85.8772 79.6775L85.7789 77.3632C85.9386 77.4612 86.0983 77.5591 86.258 77.6571L86.172 79.6653C87.4375 79.7387 88.4449 80.7551 88.494 82.0285C89.7349 81.9306 90.9634 81.7714 92.1674 81.551C92.106 81.2938 92.0937 81.0244 92.1183 80.7673C94.3543 81.7714 96.6394 82.5918 98.9737 83.1673C94.9563 84.6857 90.5826 85.5306 86.0246 85.5306C65.8883 85.5306 49.5729 69.2571 49.5729 49.2C49.5483 48.1959 49.5852 47.1918 49.6712 46.2122Z" fill="#D3B98C"/>
<path fill-rule="evenodd" clip-rule="evenodd" d="M0 94.0163H172V82.5551C159.96 83.1674 140.893 82.6286 126.051 75.1714C102.549 63.3674 81.8229 55.3347 46.956 76.1755C25.7509 88.849 9.48457 88.8 0 86.8163V94.0163Z" fill="#CEB68C"/>
<path fill-rule="evenodd" clip-rule="evenodd" d="M115.719 70.249C114.638 69.7715 113.569 69.3184 112.488 68.8776C112.021 69.4898 111.542 70.0898 111.039 70.6776C110.105 69.8082 108.667 69.8082 107.721 70.6409L103.114 65.6204C102.5 65.449 101.886 65.2898 101.271 65.1306L107.525 70.8368C106.677 71.7796 106.689 73.2123 107.562 74.1429C106.628 74.9511 105.645 75.698 104.625 76.396C103.95 75.3184 102.561 74.9388 101.431 75.5021L95.3866 63.9306C94.7723 63.8327 94.1458 63.7592 93.5315 63.6857L101.185 75.649C100.129 76.347 99.7603 77.7429 100.362 78.8572C99.2566 79.396 98.1018 79.8613 96.9346 80.2776C96.566 79.0653 95.3252 78.3306 94.072 78.5878L90.6812 63.4286C90.1038 63.3919 89.514 63.3551 88.9243 63.3429L93.7772 78.6735C92.5732 79.0653 91.8606 80.3266 92.1432 81.5633C90.9392 81.7837 89.7106 81.9551 88.4698 82.0408C88.4206 80.7674 87.4132 79.7511 86.1478 79.6776L86.8726 63.3062C86.2952 63.3062 85.73 63.3184 85.1526 63.3306L85.8652 79.6776C84.5998 79.7511 83.5923 80.7674 83.5432 82.0408C82.3023 81.9429 81.0738 81.7837 79.8698 81.5633C80.1523 80.3266 79.452 79.0776 78.2358 78.6735L83.0518 63.4286C82.462 63.4653 81.8846 63.5143 81.2949 63.5755L77.9532 78.6C76.7123 78.3429 75.4715 79.0776 75.0906 80.2898C73.9112 79.8857 72.7686 79.4082 71.6629 78.8694C72.2649 77.7429 71.9086 76.3592 70.8398 75.6613L78.334 63.9429C77.7198 64.0408 77.0932 64.1388 76.4789 64.249L70.594 75.5143C69.4638 74.9511 68.0755 75.3306 67.3998 76.4082C66.38 75.7102 65.3972 74.9633 64.4512 74.1551C65.3235 73.2245 65.3235 71.7919 64.4881 70.849L70.0658 65.7551C69.476 65.9266 68.8863 66.098 68.2843 66.2939L64.2792 70.6531C63.3332 69.8082 61.8958 69.8204 60.962 70.6898C60.6058 70.2857 60.274 69.8694 59.93 69.4408C58.8858 69.8939 57.8169 70.3837 56.748 70.898C63.3946 79.7755 74.0218 85.5429 86.0003 85.5429C98.2615 85.5429 109.11 79.5062 115.719 70.249Z" fill="#BDA176"/>
<path fill-rule="evenodd" clip-rule="evenodd" d="M10.4183 29.0571C11.6592 29.0571 12.9 29.0571 14.1286 29.0571L20.3452 96.0245C14.964 96.0245 9.58288 96.0245 4.18945 96.0245L10.4183 29.0571Z" fill="#584223"/>
<path fill-rule="evenodd" clip-rule="evenodd" d="M10.4179 29.0571H13.5999L19.7673 95.498H4.25049L10.4179 29.0571Z" fill="#72582E"/>
<path fill-rule="evenodd" clip-rule="evenodd" d="M4.80359 91.0531H19.743L21.7825 88.0531V86.5592H2.76416V88.0531L4.80359 91.0531Z" fill="#291E0B"/>
<path fill-rule="evenodd" clip-rule="evenodd" d="M21.5122 86.5592H2.76416V87.9796L4.5333 90.5755H19.4727L21.5122 87.5755V86.5592Z" fill="#372B15"/>
<path fill-rule="evenodd" clip-rule="evenodd" d="M2.76416 85.0531H21.7825V88.0531H2.76416V85.0531Z" fill="#291E0B"/>
<path fill-rule="evenodd" clip-rule="evenodd" d="M2.76416 85.0531H21.4753V87.7347H2.76416V85.0531Z" fill="#372B15"/>
<path fill-rule="evenodd" clip-rule="evenodd" d="M6.10601 73.3592H17.9003L19.522 70.9837V69.8082H4.49658V70.9837L6.10601 73.3592Z" fill="#291E0B"/>
<path fill-rule="evenodd" clip-rule="evenodd" d="M19.3009 69.8082H4.49658V70.9225L5.89715 72.9796H17.6914L19.3009 70.6163V69.8082Z" fill="#372B15"/>
<path fill-rule="evenodd" clip-rule="evenodd" d="M4.49658 68.6204H19.522V70.9959H4.49658V68.6204Z" fill="#291E0B"/>
<path fill-rule="evenodd" clip-rule="evenodd" d="M4.49658 68.6204H19.2886V70.7388H4.49658V68.6204Z" fill="#372B15"/>
<path fill-rule="evenodd" clip-rule="evenodd" d="M7.56785 58.1021H16.4504L17.6544 56.3266V55.4327H6.35156V56.3266L7.56785 58.1021Z" fill="#291E0B"/>
<path fill-rule="evenodd" clip-rule="evenodd" d="M17.4947 55.4327H6.35156V56.2776L7.40813 57.8204H16.2784L17.4947 56.0449V55.4327Z" fill="#372B15"/>
<path fill-rule="evenodd" clip-rule="evenodd" d="M6.35156 54.5388H17.6544V56.3265H6.35156V54.5388Z" fill="#291E0B"/>
<path fill-rule="evenodd" clip-rule="evenodd" d="M6.35156 54.5388H17.4701V56.1306H6.35156V54.5388Z" fill="#372B15"/>
<path fill-rule="evenodd" clip-rule="evenodd" d="M8.58752 44.5102H15.4307L16.3644 43.1388V42.4531H7.65381V43.1388L8.58752 44.5102Z" fill="#291E0B"/>
<path fill-rule="evenodd" clip-rule="evenodd" d="M16.2415 42.4531H7.65381V43.102L8.46467 44.2898H15.3078L16.2415 42.9184V42.4531Z" fill="#372B15"/>
<path fill-rule="evenodd" clip-rule="evenodd" d="M7.65381 41.7673H16.3644V43.1388H7.65381V41.7673Z" fill="#291E0B"/>
<path fill-rule="evenodd" clip-rule="evenodd" d="M7.65381 41.7673H16.2292V42.9918H7.65381V41.7673Z" fill="#372B15"/>
<path fill-rule="evenodd" clip-rule="evenodd" d="M9.58286 34.102H14.4357L15.0991 33.1224V32.6449H8.91943V33.1224L9.58286 34.102Z" fill="#291E0B"/>
<path fill-rule="evenodd" clip-rule="evenodd" d="M15.0132 32.6449H8.91943V33.098L9.49686 33.9429H14.3497L15.0132 32.9755V32.6449Z" fill="#372B15"/>
<path fill-rule="evenodd" clip-rule="evenodd" d="M8.91943 32.1551H15.0991V33.1347H8.91943V32.1551Z" fill="#291E0B"/>
<path fill-rule="evenodd" clip-rule="evenodd" d="M8.91943 32.1551H15.0009V33.0245H8.91943V32.1551Z" fill="#372B15"/>
<path fill-rule="evenodd" clip-rule="evenodd" d="M65.1997 90.0735H70.114V93.7837H65.1997V90.0735Z" fill="#3A3018"/>
<path fill-rule="evenodd" clip-rule="evenodd" d="M65.1997 90.0735H69.9297V93.3674H65.1997V90.0735Z" fill="#54482F"/>
<path fill-rule="evenodd" clip-rule="evenodd" d="M65.1997 93.5144H71.7603V95.8409H65.1997V93.5144Z" fill="#1C1808"/>
<path fill-rule="evenodd" clip-rule="evenodd" d="M65.1997 93.5144H71.6497V95.7062H65.1997V93.5144Z" fill="#2D2711"/>
<path fill-rule="evenodd" clip-rule="evenodd" d="M54.6221 90.0735H59.5364V93.7837H54.6221V90.0735Z" fill="#3A3018"/>
<path fill-rule="evenodd" clip-rule="evenodd" d="M54.6221 90.0735H59.3521V93.3674H54.6221V90.0735Z" fill="#54482F"/>
<path fill-rule="evenodd" clip-rule="evenodd" d="M52.9634 93.5144H59.524V95.8409H52.9634V93.5144Z" fill="#1C1808"/>
<path fill-rule="evenodd" clip-rule="evenodd" d="M52.9634 93.5144H59.4134V95.7062H52.9634V93.5144Z" fill="#2D2711"/>
<path fill-rule="evenodd" clip-rule="evenodd" d="M70.4462 65.0694H54.2905V90.4286H59.7454C60.2737 88.1878 61.2442 86.6939 62.3622 86.6939C63.4802 86.6939 64.4631 88.2 64.9791 90.4286H70.434V65.0694H70.4462Z" fill="#534628"/>
<path fill-rule="evenodd" clip-rule="evenodd" d="M70.0285 65.0694H54.2905V89.9755H59.3277C59.856 87.7347 60.8265 86.2286 61.9445 86.2286C62.4605 86.2286 62.952 86.5469 63.3697 87.1102C63.984 87.649 64.5 88.6531 64.8562 89.9633H70.0162V65.0694H70.0285Z" fill="#65553A"/>
<path fill-rule="evenodd" clip-rule="evenodd" d="M54.2905 74.1183H71.3554V76.1143H54.2905V74.1183Z" fill="#201606"/>
<path fill-rule="evenodd" clip-rule="evenodd" d="M54.2905 74.1183H71.2448V75.9918H54.2905V74.1183Z" fill="#372B15"/>
<path fill-rule="evenodd" clip-rule="evenodd" d="M71.3554 74.5592H54.2905V72.5755H72.4488L71.3554 74.5592Z" fill="#201606"/>
<path fill-rule="evenodd" clip-rule="evenodd" d="M54.2905 74.4245V72.5755H72.2645L71.2325 74.4245H54.2905Z" fill="#372B15"/>
<path fill-rule="evenodd" clip-rule="evenodd" d="M71.3554 68.302H54.2905V67.6408V66.9918H71.3554L72.4488 67.6408L71.3554 68.302Z" fill="#201606"/>
<path fill-rule="evenodd" clip-rule="evenodd" d="M54.2905 68.1061V67.6408V66.9918H71.3554L72.2768 67.5428L71.3185 68.1061H54.2905Z" fill="#372B15"/>
<path fill-rule="evenodd" clip-rule="evenodd" d="M23.8462 90.0735H28.7605V93.7837H23.8462V90.0735Z" fill="#3A3018"/>
<path fill-rule="evenodd" clip-rule="evenodd" d="M23.8462 90.0735H28.5762V93.3674H23.8462V90.0735Z" fill="#54482F"/>
<path fill-rule="evenodd" clip-rule="evenodd" d="M23.8462 93.5144H30.4068V95.8409H23.8462V93.5144Z" fill="#1C1808"/>
<path fill-rule="evenodd" clip-rule="evenodd" d="M23.8462 93.5144H30.2962V95.7062H23.8462V93.5144Z" fill="#2D2711"/>
<path fill-rule="evenodd" clip-rule="evenodd" d="M13.2563 90.0735H18.1706V93.7837H13.2563V90.0735Z" fill="#3A3018"/>
<path fill-rule="evenodd" clip-rule="evenodd" d="M13.2563 90.0735H17.9863V93.3674H13.2563V90.0735Z" fill="#54482F"/>
<path fill-rule="evenodd" clip-rule="evenodd" d="M11.6099 93.5144H18.1704V95.8409H11.6099V93.5144Z" fill="#1C1808"/>
<path fill-rule="evenodd" clip-rule="evenodd" d="M11.6099 93.5144H18.0599V95.7062H11.6099V93.5144Z" fill="#2D2711"/>
<path fill-rule="evenodd" clip-rule="evenodd" d="M29.0928 65.0694H12.9248V90.4286H18.3797C18.9079 88.1878 19.8785 86.6939 20.9965 86.6939C22.1145 86.6939 23.0974 88.2 23.6134 90.4286H29.0682V65.0694H29.0928Z" fill="#534628"/>
<path fill-rule="evenodd" clip-rule="evenodd" d="M28.6751 65.0694H12.9248V89.9755H17.9619C18.4902 87.7347 19.4608 86.2286 20.5788 86.2286C21.0948 86.2286 21.5862 86.5469 22.0039 87.1102C22.6182 87.649 23.1342 88.6531 23.4905 89.9633H28.6505V65.0694H28.6751Z" fill="#65553A"/>
<path fill-rule="evenodd" clip-rule="evenodd" d="M12.0156 74.1184H29.0805V76.1143H12.0156V74.1184Z" fill="#201606"/>
<path fill-rule="evenodd" clip-rule="evenodd" d="M12.0156 74.1184H28.9699V75.9919H12.0156V74.1184Z" fill="#372B15"/>
<path fill-rule="evenodd" clip-rule="evenodd" d="M12.0153 74.5592H29.0924V72.5755H10.9219L12.0153 74.5592Z" fill="#201606"/>
<path fill-rule="evenodd" clip-rule="evenodd" d="M28.8959 74.4245V72.5755H10.9219L11.9416 74.4245H28.8959Z" fill="#372B15"/>
<path fill-rule="evenodd" clip-rule="evenodd" d="M12.0153 68.302H29.0924V67.6408V66.9918H12.0153L10.9219 67.6408L12.0153 68.302Z" fill="#201606"/>
<path fill-rule="evenodd" clip-rule="evenodd" d="M28.8959 66.9918H12.0153L10.9219 67.6408L11.7082 68.1061H28.8959V67.6408V66.9918Z" fill="#372B15"/>
<path fill-rule="evenodd" clip-rule="evenodd" d="M28.0605 84.4652H33.712V92.253H28.0605V84.4652Z" fill="#54482F"/>
<path fill-rule="evenodd" clip-rule="evenodd" d="M28.0605 84.4652H33.54V91.8244H28.0605V84.4652Z" fill="#615137"/>
<path fill-rule="evenodd" clip-rule="evenodd" d="M27.1636 89.4856H33.6996V90.6121H27.1636V89.4856Z" fill="#2D2711"/>
<path fill-rule="evenodd" clip-rule="evenodd" d="M27.1636 89.4856H33.589V90.4774H27.1636V89.4856Z" fill="#38301C"/>
<path fill-rule="evenodd" clip-rule="evenodd" d="M26.4756 92.0081H33.6996V93.9183H26.4756V92.0081Z" fill="#38301C"/>
<path fill-rule="evenodd" clip-rule="evenodd" d="M24.9399 93.6735H33.7119V95.8408H24.9399V93.6735Z" fill="#2D2711"/>
<path fill-rule="evenodd" clip-rule="evenodd" d="M24.9399 93.6735H33.5768V95.6939H24.9399V93.6735Z" fill="#38301C"/>
<path fill-rule="evenodd" clip-rule="evenodd" d="M26.4756 92.0081H33.6996V93.6734H26.4756V92.0081Z" fill="#2D2711"/>
<path fill-rule="evenodd" clip-rule="evenodd" d="M26.4756 92.0081H33.5645V93.5264H26.4756V92.0081Z" fill="#38301C"/>
<path fill-rule="evenodd" clip-rule="evenodd" d="M49.6587 84.4652H55.3101V92.253H49.6587V84.4652Z" fill="#54482F"/>
<path fill-rule="evenodd" clip-rule="evenodd" d="M49.6587 84.4652H55.1381V91.8244H49.6587V84.4652Z" fill="#615137"/>
<path fill-rule="evenodd" clip-rule="evenodd" d="M49.6587 89.4856H56.1947V90.6121H49.6587V89.4856Z" fill="#2D2711"/>
<path fill-rule="evenodd" clip-rule="evenodd" d="M49.6587 89.4856H56.0841V90.4774H49.6587V89.4856Z" fill="#38301C"/>
<path fill-rule="evenodd" clip-rule="evenodd" d="M49.6587 92.0081H56.8827V93.9183H49.6587V92.0081Z" fill="#38301C"/>
<path fill-rule="evenodd" clip-rule="evenodd" d="M49.6587 93.6735H58.4307V95.8408H49.6587V93.6735Z" fill="#2D2711"/>
<path fill-rule="evenodd" clip-rule="evenodd" d="M49.6587 93.6735H58.2956V95.6939H49.6587V93.6735Z" fill="#38301C"/>
<path fill-rule="evenodd" clip-rule="evenodd" d="M49.6587 92.0081H56.8827V93.6734H49.6587V92.0081Z" fill="#2D2711"/>
<path fill-rule="evenodd" clip-rule="evenodd" d="M49.6587 92.0081H56.7476V93.5264H49.6587V92.0081Z" fill="#38301C"/>
<path fill-rule="evenodd" clip-rule="evenodd" d="M52.3252 57.5143H55.2615V53.4367C55.2615 52.2 54.3523 51.4653 53.9469 51.2694V50.6082H53.6398V51.2694C53.2343 51.4531 52.3252 52.2 52.3252 53.4367V57.5143Z" fill="#5A4525"/>
<path fill-rule="evenodd" clip-rule="evenodd" d="M52.3252 57.5143H55.0158V53.4367C55.0158 52.2 54.1066 51.4653 53.7012 51.2694V50.6082H53.6398V51.2694C53.2343 51.4531 52.3252 52.2 52.3252 53.4367V57.5143Z" fill="#72582E"/>
<path fill-rule="evenodd" clip-rule="evenodd" d="M51.7725 53.853H55.8145V54.3796H51.7725V53.853Z" fill="#201606"/>
<path fill-rule="evenodd" clip-rule="evenodd" d="M51.7725 53.853H55.753V54.3306H51.7725V53.853Z" fill="#372B15"/>
<path fill-rule="evenodd" clip-rule="evenodd" d="M28.5029 57.5143H31.4392V53.4367C31.4392 52.2 30.5301 51.4653 30.1246 51.2694V50.6082H29.8175V51.2694C29.4121 51.4531 28.5029 52.2 28.5029 53.4367V57.5143V57.5143Z" fill="#5A4525"/>
<path fill-rule="evenodd" clip-rule="evenodd" d="M28.5029 57.5143H31.1935V53.4367C31.1935 52.2 30.2843 51.4653 29.8789 51.2694V50.6082H29.8175V51.2694C29.4121 51.4531 28.5029 52.2 28.5029 53.4367V57.5143V57.5143Z" fill="#72582E"/>
<path fill-rule="evenodd" clip-rule="evenodd" d="M27.9502 53.853H31.9922V54.3796H27.9502V53.853Z" fill="#201606"/>
<path fill-rule="evenodd" clip-rule="evenodd" d="M27.9502 53.853H31.9308V54.3306H27.9502V53.853Z" fill="#372B15"/>
<path fill-rule="evenodd" clip-rule="evenodd" d="M28.5029 57.3061H55.2612V68.9265H28.5029V57.3061Z" fill="#5A4525"/>
<path fill-rule="evenodd" clip-rule="evenodd" d="M28.5029 57.3061H55.0155V66.1469H28.5029V57.3061Z" fill="#72582E"/>
<path fill-rule="evenodd" clip-rule="evenodd" d="M27.79 66.9673H55.9734V85.2735H49.4866C48.258 80.3388 45.3217 76.8612 41.8817 76.8612C38.4417 76.8612 35.5055 80.3388 34.2769 85.2735H27.79V66.9673V66.9673Z" fill="#65553A"/>
<path fill-rule="evenodd" clip-rule="evenodd" d="M27.79 66.9673H55.5803V84.8694H49.3883C48.6757 82.2245 47.4472 80.0204 45.9237 78.6C44.646 77.2408 43.1226 76.4571 41.4886 76.4571C38.0486 76.4571 35.1123 79.9347 33.8837 84.8694H27.79V66.9673V66.9673Z" fill="#7C684F"/>
<path fill-rule="evenodd" clip-rule="evenodd" d="M27.79 59.3755H55.9734V60.5632H27.79V59.3755Z" fill="#201606"/>
<path fill-rule="evenodd" clip-rule="evenodd" d="M27.79 59.3755H55.826V60.4163H27.79V59.3755Z" fill="#372B15"/>
<path fill-rule="evenodd" clip-rule="evenodd" d="M26.918 72.5755H56.846V73.7633H26.918V72.5755Z" fill="#201606"/>
<path fill-rule="evenodd" clip-rule="evenodd" d="M26.918 72.5755H56.6494V73.5551H26.918V72.5755Z" fill="#372B15"/>
<path fill-rule="evenodd" clip-rule="evenodd" d="M26.918 66.3673H56.846V67.5551H26.918V66.3673Z" fill="#201606"/>
<path fill-rule="evenodd" clip-rule="evenodd" d="M26.918 66.3673H56.6494V67.3469H26.918V66.3673Z" fill="#372B15"/>
<path fill-rule="evenodd" clip-rule="evenodd" d="M151.717 82.8H158.928V96.0368H151.717V82.8Z" fill="#70522B"/>
<path fill-rule="evenodd" clip-rule="evenodd" d="M151.717 82.8H158.806V95.9143H151.717V82.8Z" fill="#846432"/>
<path fill-rule="evenodd" clip-rule="evenodd" d="M151.717 88.947H158.928V89.8776H151.717V88.947Z" fill="#261004"/>
<path fill-rule="evenodd" clip-rule="evenodd" d="M153.708 88.9469H156.926V85.5428C156.926 84.3428 155.563 83.6938 155.317 83.6938C155.071 83.6938 153.708 84.3428 153.708 85.5428V88.9469V88.9469Z" fill="#1A0701"/>
<path fill-rule="evenodd" clip-rule="evenodd" d="M154.002 88.9469H156.926V85.5429C156.926 84.7347 156.312 84.1837 155.833 83.902C155.734 83.8653 155.648 83.8408 155.599 83.8408C155.353 83.8408 153.99 84.4898 153.99 85.6898V88.9469H154.002Z" fill="#1B0802"/>
<path fill-rule="evenodd" clip-rule="evenodd" d="M153.708 96.0369H156.926V92.6328C156.926 91.4328 155.563 90.7838 155.317 90.7838C155.071 90.7838 153.708 91.4328 153.708 92.6328V96.0369V96.0369Z" fill="#1A0701"/>
<path fill-rule="evenodd" clip-rule="evenodd" d="M154.002 96.0368H156.926V92.6327C156.926 91.8245 156.312 91.2735 155.833 90.9919C155.734 90.9552 155.648 90.9307 155.599 90.9307C155.353 90.9307 153.99 91.5796 153.99 92.7796V96.0368H154.002Z" fill="#1B0802"/>
<path fill-rule="evenodd" clip-rule="evenodd" d="M151.717 88.947H158.806V89.7429H151.717V88.947Z" fill="#442313"/>
<path fill-rule="evenodd" clip-rule="evenodd" d="M110.498 82.8H117.71V96.0368H110.498V82.8Z" fill="#70522B"/>
<path fill-rule="evenodd" clip-rule="evenodd" d="M110.498 82.8H117.587V95.9143H110.498V82.8Z" fill="#846432"/>
<path fill-rule="evenodd" clip-rule="evenodd" d="M110.498 88.947H117.71V89.8776H110.498V88.947Z" fill="#261004"/>
<path fill-rule="evenodd" clip-rule="evenodd" d="M112.488 88.9469H115.707V85.5428C115.707 84.3428 114.343 83.6938 114.098 83.6938C113.852 83.6938 112.488 84.3428 112.488 85.5428V88.9469Z" fill="#1A0701"/>
<path fill-rule="evenodd" clip-rule="evenodd" d="M112.783 88.9469H115.707V85.5429C115.707 84.7347 115.093 84.1837 114.614 83.902C114.516 83.8653 114.43 83.8408 114.38 83.8408C114.135 83.8408 112.771 84.4898 112.771 85.6898V88.9469H112.783Z" fill="#1B0802"/>
<path fill-rule="evenodd" clip-rule="evenodd" d="M112.488 96.0369H115.707V92.6328C115.707 91.4328 114.343 90.7838 114.098 90.7838C113.852 90.7838 112.488 91.4328 112.488 92.6328V96.0369Z" fill="#1A0701"/>
<path fill-rule="evenodd" clip-rule="evenodd" d="M112.783 96.0368H115.707V92.6327C115.707 91.8245 115.093 91.2735 114.614 90.9919C114.516 90.9552 114.43 90.9307 114.38 90.9307C114.135 90.9307 112.771 91.5796 112.771 92.7796V96.0368H112.783Z" fill="#1B0802"/>
<path fill-rule="evenodd" clip-rule="evenodd" d="M110.498 88.947H117.587V89.7429H110.498V88.947Z" fill="#442313"/>
<path fill-rule="evenodd" clip-rule="evenodd" d="M144.615 77.155H151.323V81.3428H144.615V77.155Z" fill="#95754A"/>
<path fill-rule="evenodd" clip-rule="evenodd" d="M144.259 80.2776H151.68V81.3429H144.259V80.2776Z" fill="#261004"/>
<path fill-rule="evenodd" clip-rule="evenodd" d="M144.259 80.2776H151.618V80.7674H144.259V80.2776Z" fill="#442313"/>
<path fill-rule="evenodd" clip-rule="evenodd" d="M143.817 80.8041H152.11V96.0245H143.817V80.8041Z" fill="#846432"/>
<path fill-rule="evenodd" clip-rule="evenodd" d="M143.817 80.8041H151.839V95.8286H143.817V80.8041Z" fill="#95754A"/>
<path fill-rule="evenodd" clip-rule="evenodd" d="M143.817 87.8817H152.11V88.947H143.817V87.8817Z" fill="#261004"/>
<path fill-rule="evenodd" clip-rule="evenodd" d="M143.817 87.8817H151.999V88.8491H143.817V87.8817Z" fill="#442313"/>
<path fill-rule="evenodd" clip-rule="evenodd" d="M146.114 87.8816H149.812V83.9633C149.812 82.5796 148.252 81.8326 147.957 81.8326C147.675 81.8326 146.102 82.5796 146.102 83.9633V87.8816H146.114Z" fill="#1A0701"/>
<path fill-rule="evenodd" clip-rule="evenodd" d="M146.385 87.8816H149.813V83.9633C149.813 83.2163 149.358 82.653 148.891 82.2979C148.596 82.1143 148.338 82.0286 148.228 82.0286C147.945 82.0286 146.373 82.7755 146.373 84.1592V87.8816H146.385Z" fill="#1B0802"/>
<path fill-rule="evenodd" clip-rule="evenodd" d="M146.114 96.0368H149.812V92.1184C149.812 90.7347 148.252 89.9878 147.957 89.9878C147.675 89.9878 146.102 90.7347 146.102 92.1184V96.0368H146.114Z" fill="#1A0701"/>
<path fill-rule="evenodd" clip-rule="evenodd" d="M146.385 96.0368H149.813V92.1184C149.813 91.3715 149.358 90.8082 148.891 90.4531C148.596 90.2694 148.338 90.1837 148.228 90.1837C147.945 90.1837 146.373 90.9307 146.373 92.3143V96.0368H146.385Z" fill="#1B0802"/>
<path fill-rule="evenodd" clip-rule="evenodd" d="M144.615 77.155H151.323V80.2775H144.615V77.155Z" fill="#846432"/>
<path fill-rule="evenodd" clip-rule="evenodd" d="M144.615 77.155H151.164V80.155H144.615V77.155Z" fill="#95754A"/>
<path fill-rule="evenodd" clip-rule="evenodd" d="M148.756 73.1633C150.488 73.5306 151.79 75.049 151.79 76.8857H144.148C144.148 75.049 145.451 73.5184 147.183 73.1633V72.7347C147.183 72.5755 147.318 72.4408 147.478 72.4408H147.724V72C147.343 71.8408 147.06 71.3388 147.06 70.7265C147.06 70.1265 147.343 69.6122 147.724 69.4531V68.4245C147.724 68.2898 147.834 68.1918 147.969 68.1918C148.104 68.1918 148.215 68.302 148.215 68.4245V69.4531C148.596 69.6122 148.878 70.1143 148.878 70.7265C148.878 71.3265 148.596 71.8408 148.215 72V72.4531H148.461C148.62 72.4531 148.756 72.5877 148.756 72.7469V73.1633V73.1633Z" fill="#574123"/>
<path fill-rule="evenodd" clip-rule="evenodd" d="M151.557 76.8979H144.148C144.148 75.0612 145.451 73.5306 147.183 73.1755V72.7469C147.183 72.5877 147.318 72.453 147.478 72.453H147.502H147.736V72C147.355 71.8408 147.072 71.3388 147.072 70.7265C147.072 70.1265 147.355 69.6122 147.736 69.453V68.4245C147.736 68.3388 147.785 68.253 147.859 68.2163C147.932 68.253 147.982 68.3388 147.982 68.4245V69.453C148.362 69.6122 148.645 70.1143 148.645 70.7265C148.645 71.3265 148.362 71.8408 147.982 72V72.453H148.215H148.24C148.399 72.453 148.534 72.5877 148.534 72.7469V73.1755C150.254 73.5306 151.557 75.0612 151.557 76.8979Z" fill="#72582E"/>
<path fill-rule="evenodd" clip-rule="evenodd" d="M143.817 76.849H152.11V77.4857H143.817V76.849Z" fill="#261004"/>
<path fill-rule="evenodd" clip-rule="evenodd" d="M143.817 76.849H152.024V77.4H143.817V76.849Z" fill="#442313"/>
<path fill-rule="evenodd" clip-rule="evenodd" d="M118.103 77.155H124.811V81.3428H118.103V77.155Z" fill="#95754A"/>
<path fill-rule="evenodd" clip-rule="evenodd" d="M117.747 80.2776H125.167V81.3429H117.747V80.2776Z" fill="#261004"/>
<path fill-rule="evenodd" clip-rule="evenodd" d="M117.747 80.2776H125.106V80.7674H117.747V80.2776Z" fill="#442313"/>
<path fill-rule="evenodd" clip-rule="evenodd" d="M117.304 80.8041H125.597V96.0245H117.304V80.8041Z" fill="#846432"/>
<path fill-rule="evenodd" clip-rule="evenodd" d="M117.304 80.8041H125.327V95.8286H117.304V80.8041Z" fill="#95754A"/>
<path fill-rule="evenodd" clip-rule="evenodd" d="M117.304 87.8817H125.597V88.947H117.304V87.8817Z" fill="#261004"/>
<path fill-rule="evenodd" clip-rule="evenodd" d="M117.304 87.8817H125.486V88.8491H117.304V87.8817Z" fill="#442313"/>
<path fill-rule="evenodd" clip-rule="evenodd" d="M119.602 87.8816H123.3V83.9633C123.3 82.5796 121.739 81.8326 121.444 81.8326C121.162 81.8326 119.589 82.5796 119.589 83.9633V87.8816H119.602Z" fill="#1A0701"/>
<path fill-rule="evenodd" clip-rule="evenodd" d="M119.872 87.8816H123.3V83.9633C123.3 83.2163 122.845 82.653 122.378 82.2979C122.084 82.1143 121.826 82.0286 121.715 82.0286C121.432 82.0286 119.86 82.7755 119.86 84.1592V87.8816H119.872Z" fill="#1B0802"/>
<path fill-rule="evenodd" clip-rule="evenodd" d="M119.602 96.0368H123.3V92.1184C123.3 90.7347 121.739 89.9878 121.444 89.9878C121.162 89.9878 119.589 90.7347 119.589 92.1184V96.0368H119.602Z" fill="#1A0701"/>
<path fill-rule="evenodd" clip-rule="evenodd" d="M119.872 96.0368H123.3V92.1184C123.3 91.3715 122.845 90.8082 122.378 90.4531C122.084 90.2694 121.826 90.1837 121.715 90.1837C121.432 90.1837 119.86 90.9307 119.86 92.3143V96.0368H119.872Z" fill="#1B0802"/>
<path fill-rule="evenodd" clip-rule="evenodd" d="M118.103 77.155H124.811V80.2775H118.103V77.155Z" fill="#846432"/>
<path fill-rule="evenodd" clip-rule="evenodd" d="M118.103 77.155H124.651V80.155H118.103V77.155Z" fill="#95754A"/>
<path fill-rule="evenodd" clip-rule="evenodd" d="M122.243 73.1633C123.975 73.5306 125.277 75.049 125.277 76.8857H117.636C117.636 75.049 118.938 73.5184 120.67 73.1633V72.7347C120.67 72.5755 120.805 72.4408 120.965 72.4408H121.211V72C120.83 71.8408 120.547 71.3388 120.547 70.7265C120.547 70.1265 120.83 69.6122 121.211 69.4531V68.4245C121.211 68.2898 121.321 68.1918 121.457 68.1918C121.592 68.1918 121.702 68.302 121.702 68.4245V69.4531C122.083 69.6122 122.366 70.1143 122.366 70.7265C122.366 71.3265 122.083 71.8408 121.702 72V72.4531H121.948C122.108 72.4531 122.243 72.5877 122.243 72.7469V73.1633Z" fill="#574123"/>
<path fill-rule="evenodd" clip-rule="evenodd" d="M125.044 76.8979H117.636C117.636 75.0612 118.938 73.5306 120.67 73.1755V72.7469C120.67 72.5877 120.805 72.453 120.965 72.453H120.99H121.223V72C120.842 71.8408 120.56 71.3388 120.56 70.7265C120.56 70.1265 120.842 69.6122 121.223 69.453V68.4245C121.223 68.3388 121.272 68.253 121.346 68.2163C121.42 68.253 121.469 68.3388 121.469 68.4245V69.453C121.85 69.6122 122.132 70.1143 122.132 70.7265C122.132 71.3265 121.85 71.8408 121.469 72V72.453H121.702H121.727C121.887 72.453 122.022 72.5877 122.022 72.7469V73.1755C123.742 73.5306 125.044 75.0612 125.044 76.8979Z" fill="#72582E"/>
<path fill-rule="evenodd" clip-rule="evenodd" d="M117.304 76.849H125.597V77.4857H117.304V76.849Z" fill="#261004"/>
<path fill-rule="evenodd" clip-rule="evenodd" d="M117.304 76.849H125.511V77.4H117.304V76.849Z" fill="#442313"/>
<path fill-rule="evenodd" clip-rule="evenodd" d="M134.713 55.2C134.946 55.2 135.143 55.3959 135.143 55.6286V57.4776C135.831 57.7592 136.322 58.6653 136.322 59.7551C136.322 60.8449 135.819 61.7633 135.143 62.0327V62.8408H135.585C135.88 62.8408 136.126 63.0857 136.126 63.3796V64.9837C136.126 65.2776 135.88 65.5225 135.585 65.5225H134.713H133.841C133.546 65.5225 133.3 65.2776 133.3 64.9837V63.3796C133.3 63.0857 133.546 62.8408 133.841 62.8408H134.283V62.0327C133.595 61.751 133.104 60.8449 133.104 59.7551C133.104 58.6653 133.607 57.747 134.283 57.4776V55.6286C134.283 55.3959 134.467 55.2 134.713 55.2Z" fill="#8F7041"/>
<path fill-rule="evenodd" clip-rule="evenodd" d="M124.688 96.0368H144.738V73.4939C144.738 68.2653 140.229 63.9796 134.713 63.9796C129.197 63.9796 124.688 68.2653 124.688 73.4939V96.0368Z" fill="#95754A"/>
<path fill-rule="evenodd" clip-rule="evenodd" d="M124.688 96.0368H143.989V73.8245C143.989 68.596 139.48 64.3102 133.964 64.3102C132.612 64.3102 131.31 64.5674 130.131 65.0449C126.912 66.6368 124.688 69.8327 124.688 73.4939V96.0368V96.0368Z" fill="#A2815A"/>
<path fill-rule="evenodd" clip-rule="evenodd" d="M131.126 96.0368H137.895V89.2409C137.895 86.8409 135.033 85.5552 134.517 85.5552C133.989 85.5552 131.138 86.8409 131.138 89.2409V96.0368H131.126Z" fill="#1B0802"/>
<path fill-rule="evenodd" clip-rule="evenodd" d="M124.688 76.7878H144.738V79.6041H124.688V76.7878Z" fill="#574123"/>
<path fill-rule="evenodd" clip-rule="evenodd" d="M124.688 76.7878H144.517V79.3715H124.688V76.7878Z" fill="#72582E"/>
<path fill-rule="evenodd" clip-rule="evenodd" d="M128.19 82.6898V96.0367H126.372C126.372 90.9796 126.372 85.9347 126.372 80.8776H142.65C142.65 85.9347 142.65 90.9796 142.65 96.0367H140.832V82.6898H128.19Z" fill="#574123"/>
<path fill-rule="evenodd" clip-rule="evenodd" d="M126.372 96.0367V80.8776H142.49V96.0367H140.844C140.844 91.5918 140.844 86.9633 140.844 82.5184H128.018V96.0367H126.372Z" fill="#72582E"/>
<path fill-rule="evenodd" clip-rule="evenodd" d="M130.155 96.0367H134.517H138.878V89.3755C138.878 86.1183 135.192 84.3673 134.517 84.3673C133.841 84.3673 130.155 86.1183 130.155 89.3755V96.0367ZM131.408 96.0367V89.4734C131.408 87.1591 134.025 85.9102 134.504 85.9102C134.984 85.9102 137.6 87.1591 137.6 89.4734V96.0367H131.408Z" fill="#261004"/>
<path fill-rule="evenodd" clip-rule="evenodd" d="M135.684 84.7837C135.156 84.502 134.713 84.3551 134.517 84.3551C133.841 84.3551 130.155 86.1061 130.155 89.3633V95.9265H131.421H131.236V89.3633C131.236 87.049 133.853 85.8 134.332 85.8C134.492 85.8 134.873 85.9347 135.328 86.1918C136.261 86.6816 137.613 87.7959 137.613 89.4612V95.9143H138.682V89.2653C138.682 87.049 136.986 85.5306 135.684 84.7837Z" fill="#442313"/>
<path fill-rule="evenodd" clip-rule="evenodd" d="M160.525 74.4246H163.597V96.0368H160.525V74.4246Z" fill="#604325"/>
<path fill-rule="evenodd" clip-rule="evenodd" d="M160.525 74.4246H163.486V95.9266H160.525V74.4246Z" fill="#70522B"/>
<path fill-rule="evenodd" clip-rule="evenodd" d="M160.464 72.4286H163.658V74.4246H160.464V72.4286Z" fill="#604325"/>
<path fill-rule="evenodd" clip-rule="evenodd" d="M160.464 72.4286H163.584V74.2287H160.464V72.4286Z" fill="#70522B"/>
<path fill-rule="evenodd" clip-rule="evenodd" d="M160.083 74.2654H164.027V74.5715H160.083V74.2654Z" fill="#442313"/>
<path fill-rule="evenodd" clip-rule="evenodd" d="M160.083 79.6776H164.027V79.9837H160.083V79.6776Z" fill="#442313"/>
<path fill-rule="evenodd" clip-rule="evenodd" d="M160.083 87.7347H164.027V88.0409H160.083V87.7347Z" fill="#442313"/>
<path fill-rule="evenodd" clip-rule="evenodd" d="M162.061 68.1552C162 68.1552 161.95 68.2041 161.95 68.2654V68.7552C161.766 68.8286 161.631 69.0735 161.631 69.3552C161.631 69.649 161.766 69.8817 161.95 69.9552V70.1633H161.828C161.754 70.1633 161.68 70.2245 161.68 70.3103V70.5184C160.857 70.6899 160.243 71.4123 160.243 72.2694H160.083V72.5756H164.027V72.2694H163.867C163.855 71.4001 163.24 70.6899 162.43 70.5184V70.3103C162.43 70.2368 162.368 70.1633 162.282 70.1633H162.159V69.9552C162.344 69.8817 162.479 69.6368 162.479 69.3552C162.479 69.0613 162.344 68.8286 162.159 68.7552V68.2654C162.172 68.2041 162.122 68.1552 162.061 68.1552Z" fill="#442313"/>
<path fill-rule="evenodd" clip-rule="evenodd" d="M165.685 64.7021H170.132V96.0245H165.685V64.7021Z" fill="#604325"/>
<path fill-rule="evenodd" clip-rule="evenodd" d="M165.685 64.7021H169.973V95.8654H165.685V64.7021Z" fill="#70522B"/>
<path fill-rule="evenodd" clip-rule="evenodd" d="M165.599 61.8123H170.231V64.702H165.599V61.8123Z" fill="#604325"/>
<path fill-rule="evenodd" clip-rule="evenodd" d="M165.599 61.8123H170.133V64.4204H165.599V61.8123Z" fill="#70522B"/>
<path fill-rule="evenodd" clip-rule="evenodd" d="M165.059 64.4817H170.784V64.9225H165.059V64.4817Z" fill="#442313"/>
<path fill-rule="evenodd" clip-rule="evenodd" d="M165.059 72.3184H170.784V72.7592H165.059V72.3184Z" fill="#442313"/>
<path fill-rule="evenodd" clip-rule="evenodd" d="M165.059 84H170.784V84.4408H165.059V84Z" fill="#442313"/>
<path fill-rule="evenodd" clip-rule="evenodd" d="M167.921 55.6286C167.835 55.6286 167.761 55.7021 167.761 55.7878V56.498C167.503 56.6082 167.307 56.951 167.307 57.3796C167.307 57.7959 167.503 58.151 167.761 58.249V58.5551H167.589C167.479 58.5551 167.381 58.6531 167.381 58.7633V59.0572C166.189 59.3021 165.304 60.3429 165.292 61.6041H165.071V62.0449H170.796V61.6041H170.575C170.563 60.3551 169.666 59.3143 168.486 59.0572V58.7755C168.486 58.6653 168.388 58.5674 168.277 58.5674H168.105V58.2612C168.363 58.151 168.56 57.8082 168.56 57.3919C168.56 56.9755 168.363 56.6204 168.105 56.5102V55.8C168.081 55.7021 168.007 55.6286 167.921 55.6286Z" fill="#442313"/>
<path fill-rule="evenodd" clip-rule="evenodd" d="M105.817 74.4246H108.888V96.0368H105.817V74.4246Z" fill="#604325"/>
<path fill-rule="evenodd" clip-rule="evenodd" d="M105.817 74.4246H108.778V95.9266H105.817V74.4246Z" fill="#70522B"/>
<path fill-rule="evenodd" clip-rule="evenodd" d="M105.756 72.4286H108.95V74.4246H105.756V72.4286Z" fill="#604325"/>
<path fill-rule="evenodd" clip-rule="evenodd" d="M105.756 72.4286H108.876V74.2287H105.756V72.4286Z" fill="#70522B"/>
<path fill-rule="evenodd" clip-rule="evenodd" d="M105.387 74.2654H109.331V74.5715H105.387V74.2654Z" fill="#442313"/>
<path fill-rule="evenodd" clip-rule="evenodd" d="M105.387 79.6776H109.331V79.9837H105.387V79.6776Z" fill="#442313"/>
<path fill-rule="evenodd" clip-rule="evenodd" d="M105.387 87.7347H109.331V88.0409H105.387V87.7347Z" fill="#442313"/>
<path fill-rule="evenodd" clip-rule="evenodd" d="M107.353 68.1552C107.292 68.1552 107.242 68.2041 107.242 68.2654V68.7552C107.058 68.8286 106.923 69.0735 106.923 69.3552C106.923 69.649 107.058 69.8817 107.242 69.9552V70.1633H107.12C107.046 70.1633 106.972 70.2245 106.972 70.3103V70.5184C106.149 70.6899 105.535 71.4123 105.535 72.2694H105.375V72.5756H109.319V72.2694H109.159C109.147 71.4001 108.532 70.6899 107.722 70.5184V70.3103C107.722 70.2368 107.66 70.1633 107.574 70.1633H107.451V69.9552C107.636 69.8817 107.771 69.6368 107.771 69.3552C107.771 69.0613 107.636 68.8286 107.451 68.7552V68.2654C107.476 68.2041 107.414 68.1552 107.353 68.1552Z" fill="#442313"/>
<path fill-rule="evenodd" clip-rule="evenodd" d="M99.2812 64.7021H103.729V96.0245H99.2812V64.7021Z" fill="#604325"/>
<path fill-rule="evenodd" clip-rule="evenodd" d="M99.2812 64.7021H103.569V95.8654H99.2812V64.7021Z" fill="#70522B"/>
<path fill-rule="evenodd" clip-rule="evenodd" d="M99.1826 61.8123H103.814V64.702H99.1826V61.8123Z" fill="#604325"/>
<path fill-rule="evenodd" clip-rule="evenodd" d="M99.1826 61.8123H103.716V64.4204H99.1826V61.8123Z" fill="#70522B"/>
<path fill-rule="evenodd" clip-rule="evenodd" d="M98.6421 64.4817H104.367V64.9225H98.6421V64.4817Z" fill="#442313"/>
<path fill-rule="evenodd" clip-rule="evenodd" d="M98.6421 72.3184H104.367V72.7592H98.6421V72.3184Z" fill="#442313"/>
<path fill-rule="evenodd" clip-rule="evenodd" d="M98.6421 84H104.367V84.4408H98.6421V84Z" fill="#442313"/>
<path fill-rule="evenodd" clip-rule="evenodd" d="M101.505 55.6286C101.419 55.6286 101.345 55.7021 101.345 55.7878V56.498C101.087 56.6082 100.89 56.951 100.89 57.3796C100.89 57.7959 101.087 58.151 101.345 58.249V58.5551H101.173C101.062 58.5551 100.964 58.6531 100.964 58.7633V59.0572C99.7723 59.3021 98.8877 60.3429 98.8754 61.6041H98.6543V62.0449H104.379V61.6041H104.158C104.146 60.3551 103.249 59.3143 102.07 59.0572V58.7755C102.07 58.6653 101.971 58.5674 101.861 58.5674H101.689V58.2612C101.947 58.151 102.143 57.8082 102.143 57.3919C102.143 56.9755 101.947 56.6204 101.689 56.5102V55.8C101.664 55.7021 101.591 55.6286 101.505 55.6286Z" fill="#442313"/>
<path fill-rule="evenodd" clip-rule="evenodd" d="M98.04 94.6653H172V96.0734H98.04V94.6653Z" fill="#442313"/>
<path fill-rule="evenodd" clip-rule="evenodd" d="M79.3169 93.2816H80.226V68.5592C80.226 65.3878 82.8306 62.8041 86.0003 62.8041C89.1823 62.8041 91.7746 65.4 91.7746 68.5592V93.2816H92.6837V58.0408H79.3169V93.2816Z" fill="#634425"/>
<path fill-rule="evenodd" clip-rule="evenodd" d="M79.3901 93.8939H80.2256V68.5592C80.2256 65.3878 82.8301 62.8042 85.9999 62.8042C89.1819 62.8042 91.7741 65.4001 91.7741 68.5592V93.8816H92.6096V68.5592C92.6096 64.9348 89.6364 61.9715 85.9999 61.9715C82.3633 61.9715 79.3901 64.9348 79.3901 68.5592V93.8939Z" fill="#2E1507"/>
<path fill-rule="evenodd" clip-rule="evenodd" d="M89.145 63.7348C90.7298 64.7633 91.7741 66.5511 91.7741 68.5593V93.8205H92.5113V68.498C92.5113 66.245 91.3564 64.2368 89.6119 63.049C88.5676 62.3633 87.3267 61.9715 85.9998 61.9715C82.3633 61.9715 79.3901 64.9348 79.3901 68.5593V93.8205H80.1273V68.498C80.1273 65.3266 82.7319 62.7429 85.9016 62.7429C87.1056 62.7307 88.2236 63.1103 89.145 63.7348Z" fill="#442313"/>
<path fill-rule="evenodd" clip-rule="evenodd" d="M79.3169 59.2898H92.6838V60.2817H79.3169V59.2898Z" fill="#2E1507"/>
<path fill-rule="evenodd" clip-rule="evenodd" d="M79.3169 59.2898H92.4503V60.1469H79.3169V59.2898Z" fill="#442313"/>
<path fill-rule="evenodd" clip-rule="evenodd" d="M67.5962 58.0408H79.4396V93.6857H67.5962V58.0408Z" fill="#634425"/>
<path fill-rule="evenodd" clip-rule="evenodd" d="M67.5962 58.0408H79.2553V93.1102H67.5962V58.0408Z" fill="#8C6B35"/>
<path fill-rule="evenodd" clip-rule="evenodd" d="M69.3037 65.498H77.7194V90.5265H69.3037V65.498Z" fill="#BF9646"/>
<path fill-rule="evenodd" clip-rule="evenodd" d="M69.3037 65.498H77.5351V90.3429H69.3037V65.498Z" fill="#D2AB67"/>
<path fill-rule="evenodd" clip-rule="evenodd" d="M70.4097 66.6H76.614V89.4245H70.4097V66.6Z" fill="#B9903D"/>
<path fill-rule="evenodd" clip-rule="evenodd" d="M70.606 66.7837H76.6137V89.4245H70.606V66.7837Z" fill="#C79D50"/>
<path fill-rule="evenodd" clip-rule="evenodd" d="M67.498 68.8527H79.4398V69.6731H67.498V68.8527ZM67.498 79.4935H79.4398V80.3139H67.498V79.4935Z" fill="#442313"/>
<path fill-rule="evenodd" clip-rule="evenodd" d="M79.2558 68.853V69.6734H67.5967V68.853H79.2558ZM79.2558 79.4938V80.3143H67.5967V79.4938H79.2558Z" fill="#552A1A"/>
<path fill-rule="evenodd" clip-rule="evenodd" d="M77.7194 68.853V69.6734H69.3037V68.853H77.7194ZM77.7194 79.4938V80.3143H69.3037V79.4938H77.7194Z" fill="#6C3021"/>
<path fill-rule="evenodd" clip-rule="evenodd" d="M77.5351 68.853V69.6734H69.3037V68.853H77.5351ZM77.5351 79.4938V80.3143H69.3037V79.4938H77.5351Z" fill="#7E3427"/>
<path fill-rule="evenodd" clip-rule="evenodd" d="M70.4097 80.3143V79.4939H76.614V80.3143H70.4097ZM70.4097 69.6612V68.8408H76.614V69.6612H70.4097Z" fill="#552A1A"/>
<path fill-rule="evenodd" clip-rule="evenodd" d="M70.6064 80.3143V79.4939H76.6142V80.3143H70.6064ZM70.6064 69.6612V68.8408H76.6142V69.6612H70.6064Z" fill="#6C3021"/>
<path fill-rule="evenodd" clip-rule="evenodd" d="M73.5174 64.1143C74.7583 64.1143 75.778 63.098 75.778 61.8612C75.778 60.6245 74.7583 59.6082 73.5174 59.6082C72.2766 59.6082 71.2568 60.6245 71.2568 61.8612C71.2568 63.098 72.2643 64.1143 73.5174 64.1143Z" fill="#C19A4C"/>
<path fill-rule="evenodd" clip-rule="evenodd" d="M73.518 59.6082C74.0708 59.6082 74.5868 59.8041 74.98 60.1347C75.3977 60.5388 75.6557 61.1143 75.6557 61.751C75.6557 63 74.6483 64.0041 73.3951 64.0041C72.8423 64.0041 72.3263 63.8082 71.9331 63.4775C71.5154 63.0735 71.2451 62.498 71.2451 61.8612C71.2574 60.6245 72.2648 59.6082 73.518 59.6082Z" fill="#D2AB67"/>
<path fill-rule="evenodd" clip-rule="evenodd" d="M73.5178 63.2571C74.2918 63.2571 74.9183 62.6327 74.9183 61.8612C74.9183 61.0898 74.2918 60.4653 73.5178 60.4653C72.7438 60.4653 72.1172 61.0898 72.1172 61.8612C72.1172 62.6327 72.7438 63.2571 73.5178 63.2571Z" fill="#BF9442"/>
<path fill-rule="evenodd" clip-rule="evenodd" d="M73.518 63.2572C73.1862 63.2572 72.8791 63.147 72.6457 62.951C72.3999 62.6939 72.2402 62.3511 72.2402 61.9715C72.2402 61.2 72.8668 60.5756 73.6408 60.5756C73.9725 60.5756 74.2797 60.6858 74.5131 60.8817C74.7588 61.1266 74.9185 61.4817 74.9185 61.8613C74.9062 62.6327 74.2797 63.2572 73.518 63.2572Z" fill="#C79D50"/>
<path fill-rule="evenodd" clip-rule="evenodd" d="M66.2324 93.2816H80.8033V96.0122H66.2324V93.2816Z" fill="#442313"/>
<path fill-rule="evenodd" clip-rule="evenodd" d="M92.5605 58.0408H104.404V93.6857H92.5605V58.0408Z" fill="#634425"/>
<path fill-rule="evenodd" clip-rule="evenodd" d="M92.5605 58.0408H104.22V93.1102H92.5605V58.0408Z" fill="#8C6B35"/>
<path fill-rule="evenodd" clip-rule="evenodd" d="M94.2803 65.498H102.696V90.5265H94.2803V65.498Z" fill="#BF9646"/>
<path fill-rule="evenodd" clip-rule="evenodd" d="M94.2803 65.498H102.512V90.3429H94.2803V65.498Z" fill="#D2AB67"/>
<path fill-rule="evenodd" clip-rule="evenodd" d="M95.3862 66.6H101.59V89.4245H95.3862V66.6Z" fill="#B9903D"/>
<path fill-rule="evenodd" clip-rule="evenodd" d="M95.5825 66.7837H101.59V89.4245H95.5825V66.7837Z" fill="#C79D50"/>
<path fill-rule="evenodd" clip-rule="evenodd" d="M92.4746 68.8527H104.416V69.6731H92.4746V68.8527ZM92.4746 79.4935H104.416V80.3139H92.4746V79.4935Z" fill="#442313"/>
<path fill-rule="evenodd" clip-rule="evenodd" d="M104.232 68.853V69.6734H92.5732V68.853H104.232ZM104.232 79.4938V80.3143H92.5732V79.4938H104.232Z" fill="#552A1A"/>
<path fill-rule="evenodd" clip-rule="evenodd" d="M102.696 68.853V69.6734H94.2803V68.853H102.696ZM102.696 79.4938V80.3143H94.2803V79.4938H102.696Z" fill="#6C3021"/>
<path fill-rule="evenodd" clip-rule="evenodd" d="M102.512 68.853V69.6734H94.2803V68.853H102.512ZM102.512 79.4938V80.3143H94.2803V79.4938H102.512Z" fill="#7E3427"/>
<path fill-rule="evenodd" clip-rule="evenodd" d="M95.3862 80.3143V79.4939H101.59V80.3143H95.3862ZM95.3862 69.6612V68.8408H101.59V69.6612H95.3862Z" fill="#552A1A"/>
<path fill-rule="evenodd" clip-rule="evenodd" d="M95.583 80.3143V79.4939H101.591V80.3143H95.583ZM95.583 69.6612V68.8408H101.591V69.6612H95.583Z" fill="#6C3021"/>
<path fill-rule="evenodd" clip-rule="evenodd" d="M98.4822 64.1143C99.7231 64.1143 100.743 63.098 100.743 61.8612C100.743 60.6245 99.7231 59.6082 98.4822 59.6082C97.2414 59.6082 96.2217 60.6245 96.2217 61.8612C96.2217 63.098 97.2414 64.1143 98.4822 64.1143Z" fill="#C19A4C"/>
<path fill-rule="evenodd" clip-rule="evenodd" d="M98.4822 59.6082C99.0351 59.6082 99.5511 59.8041 99.9442 60.1347C100.362 60.5388 100.62 61.1143 100.62 61.751C100.62 63 99.6125 64.0041 98.3594 64.0041C97.8065 64.0041 97.2905 63.8082 96.8974 63.4775C96.4797 63.0735 96.2217 62.498 96.2217 61.8612C96.234 60.6245 97.2414 59.6082 98.4822 59.6082Z" fill="#D2AB67"/>
<path fill-rule="evenodd" clip-rule="evenodd" d="M98.4821 63.2571C99.2562 63.2571 99.8827 62.6327 99.8827 61.8612C99.8827 61.0898 99.2562 60.4653 98.4821 60.4653C97.7081 60.4653 97.0815 61.0898 97.0815 61.8612C97.0815 62.6327 97.7204 63.2571 98.4821 63.2571Z" fill="#BF9442"/>
<path fill-rule="evenodd" clip-rule="evenodd" d="M98.4823 63.2572C98.1506 63.2572 97.8434 63.147 97.61 62.951C97.3643 62.6939 97.2046 62.3511 97.2046 61.9715C97.2046 61.2 97.8312 60.5756 98.6052 60.5756C98.9369 60.5756 99.244 60.6858 99.4774 60.8817C99.7232 61.1266 99.8829 61.4817 99.8829 61.8613C99.8829 62.6327 99.2563 63.2572 98.4823 63.2572Z" fill="#C79D50"/>
<path fill-rule="evenodd" clip-rule="evenodd" d="M91.1968 93.2816H105.768V96.0122H91.1968V93.2816Z" fill="#442313"/>
<path fill-rule="evenodd" clip-rule="evenodd" d="M74.3657 45.5633H97.6349V49.3592H74.3657V45.5633Z" fill="#6E522B"/>
<path fill-rule="evenodd" clip-rule="evenodd" d="M70.1763 49.2613H101.837V53.0572H70.1763V49.2613Z" fill="#7F5F30"/>
<path fill-rule="evenodd" clip-rule="evenodd" d="M75.7051 44.3265H96.296V45.6367H75.7051V44.3265Z" fill="#6A4D29"/>
<path fill-rule="evenodd" clip-rule="evenodd" d="M67.3135 52.9715H104.674V56.7674H67.3135V52.9715Z" fill="#8C6B35"/>
<path fill-rule="evenodd" clip-rule="evenodd" d="M103.078 53.449H68.9234C68.2599 53.449 68.2599 56.2898 68.9234 56.2898H103.078C103.741 56.2898 103.741 53.449 103.078 53.449Z" fill="#A67E37"/>
<path fill-rule="evenodd" clip-rule="evenodd" d="M68.8614 56.2776C68.886 56.2898 68.9106 56.2898 68.9229 56.2898H103.077C103.63 56.2898 103.716 54.3062 103.347 53.6449C103.323 53.6327 103.298 53.6327 103.286 53.6327H69.1317C68.5789 53.6327 68.4806 55.6286 68.8614 56.2776Z" fill="#B9903D"/>
<path fill-rule="evenodd" clip-rule="evenodd" d="M100.227 52.5796H71.6875C71.0241 52.5796 71.0241 49.7388 71.6875 49.7388H100.227C100.891 49.7388 100.891 52.5796 100.227 52.5796Z" fill="#9A7536"/>
<path fill-rule="evenodd" clip-rule="evenodd" d="M100.227 52.5797H71.6876C71.663 52.5797 71.6384 52.5797 71.6262 52.5674C71.2576 51.9185 71.3436 49.9225 71.8964 49.9225H100.436C100.461 49.9225 100.485 49.9225 100.498 49.9348C100.866 50.596 100.78 52.5797 100.227 52.5797Z" fill="#AF8335"/>
<path fill-rule="evenodd" clip-rule="evenodd" d="M96.1238 46.0408H75.877C75.2135 46.0408 75.2135 48.8817 75.877 48.8817H96.1115C96.775 48.8817 96.775 46.0408 96.1238 46.0408Z" fill="#8C6934"/>
<path fill-rule="evenodd" clip-rule="evenodd" d="M75.8151 48.8694C75.8397 48.8816 75.8643 48.8816 75.8765 48.8816H96.1112C96.664 48.8816 96.75 46.898 96.3814 46.2367C96.3569 46.2245 96.3323 46.2245 96.32 46.2245H76.0854C75.5325 46.2245 75.4465 48.2204 75.8151 48.8694Z" fill="#9F7736"/>
<path fill-rule="evenodd" clip-rule="evenodd" d="M80.5083 43.2858C86.43 41.3878 86.3932 41.6449 91.4918 43.2858V46.5429H80.5083V43.2858Z" fill="#C59C51"/>
<path fill-rule="evenodd" clip-rule="evenodd" d="M80.5083 43.2858C86.3563 41.4246 86.3932 41.6327 91.2706 43.2123V46.3347H80.5083V43.2858Z" fill="#D2AB67"/>
<path fill-rule="evenodd" clip-rule="evenodd" d="M65.667 57.6368H106.333V58.7388H65.667V57.6368Z" fill="#2E1507"/>
<path fill-rule="evenodd" clip-rule="evenodd" d="M106.21 57.6368H102.942V58.6286H106.21V57.6368ZM102.831 57.6368H99.5633V58.6286H102.831V57.6368ZM99.4404 57.6368H96.1724V58.6286H99.4404V57.6368ZM96.0496 57.6368H92.7816V58.6286H96.0496V57.6368ZM92.6587 57.6368H89.3907V58.6286H92.6587V57.6368ZM89.2678 57.6368H85.9998V58.6286H89.2678V57.6368ZM85.877 57.6368H82.609V58.6286H85.877V57.6368ZM82.4861 57.6368H79.2181V58.6286H82.4861V57.6368ZM79.1076 57.6368H75.8396V58.6286H79.1076V57.6368ZM75.7167 57.6368H72.4487V58.6286H75.7167V57.6368ZM72.3259 57.6368H69.0578V58.6286H72.3259V57.6368ZM68.935 57.6368H65.667V58.6286H68.935V57.6368Z" fill="#442313"/>
<path fill-rule="evenodd" clip-rule="evenodd" d="M64.8564 56.7062H107.144V57.698H64.8564V56.7062Z" fill="#6A4D29"/>
<path fill-rule="evenodd" clip-rule="evenodd" d="M93.6791 46.7266C93.0771 46.7266 92.5857 46.2368 92.5857 45.6368C92.5857 45.0368 93.0771 44.547 93.6791 44.547C94.2811 44.547 94.7725 45.0368 94.7725 45.6368C94.7725 46.2368 94.2811 46.7266 93.6791 46.7266ZM78.3219 46.7266C77.7199 46.7266 77.2285 46.2368 77.2285 45.6368C77.2285 45.0368 77.7199 44.547 78.3219 44.547C78.9239 44.547 79.4154 45.0368 79.4154 45.6368C79.4154 46.2368 78.9239 46.7266 78.3219 46.7266Z" fill="#C19A4D"/>
<path fill-rule="evenodd" clip-rule="evenodd" d="M93.6786 46.7266C93.4206 46.7266 93.1995 46.6409 93.0152 46.4939C92.8309 46.298 92.7326 46.0409 92.7326 45.7592C92.7326 45.1592 93.2241 44.6694 93.8261 44.6694C94.0841 44.6694 94.3052 44.7552 94.4895 44.9021C94.6738 45.098 94.7721 45.3552 94.7721 45.6368C94.7721 46.249 94.2806 46.7266 93.6786 46.7266ZM77.6581 46.5062C77.4738 46.3102 77.3755 46.0531 77.3755 45.7715C77.3755 45.1715 77.8669 44.6817 78.4689 44.6817C78.7269 44.6817 78.9481 44.7674 79.1323 44.9143C79.3166 45.1102 79.4149 45.3674 79.4149 45.649C79.4149 46.249 78.9235 46.7388 78.3215 46.7388C78.0635 46.7266 77.8423 46.6531 77.6581 46.5062Z" fill="#D2AB67"/>
<path fill-rule="evenodd" clip-rule="evenodd" d="M0 95.5959H172V120H0V95.5959Z" fill="#035092"/>
<path fill-rule="evenodd" clip-rule="evenodd" d="M0 101.155H172V114.441H0V101.155Z" fill="white"/>
<path fill-rule="evenodd" clip-rule="evenodd" d="M0 95.5959H172V103.727H0V95.5959Z" fill="#F78E1E"/>
<path fill-rule="evenodd" clip-rule="evenodd" d="M0 111.87H172V120H0V111.87Z" fill="#4CB748"/>
<path fill-rule="evenodd" clip-rule="evenodd" d="M142.674 39.2204C148.104 39.2204 152.859 39.6612 155.5 40.3102H129.848C132.477 39.6612 137.244 39.2204 142.674 39.2204Z" fill="#EBDFCC"/>
<path fill-rule="evenodd" clip-rule="evenodd" d="M137.293 35.2041C139.603 35.2041 141.482 37.0776 141.482 39.3796C141.482 39.5878 141.47 39.7837 141.433 39.9796H133.14C133.116 39.7837 133.091 39.5878 133.091 39.3796C133.104 37.0653 134.971 35.2041 137.293 35.2041Z" fill="#EBDFCC"/>
<path fill-rule="evenodd" clip-rule="evenodd" d="M142.674 30.9061C145.794 30.9061 148.325 33.4286 148.325 36.5388C148.325 37.8367 147.883 39.0367 147.146 39.9918H138.214C137.477 39.0367 137.035 37.8367 137.035 36.5388C137.022 33.4163 139.553 30.9061 142.674 30.9061Z" fill="#EBDFCC"/>
<path fill-rule="evenodd" clip-rule="evenodd" d="M149.652 35.3388C151.446 35.3388 152.896 36.7837 152.896 38.5715C152.896 39.0735 152.773 39.5633 152.564 39.9919H146.74C146.532 39.5633 146.409 39.0857 146.409 38.5715C146.421 36.7837 147.871 35.3388 149.652 35.3388Z" fill="#EBDFCC"/>
<path fill-rule="evenodd" clip-rule="evenodd" d="M38.184 28.8979C42.0909 28.8979 45.5063 29.2163 47.3983 29.6816H28.9697C30.8617 29.2163 34.2771 28.8979 38.184 28.8979Z" fill="#EBDFCC"/>
<path fill-rule="evenodd" clip-rule="evenodd" d="M34.0808 26.2776C35.6165 26.2776 36.8574 27.5143 36.8574 29.0449C36.8574 29.1796 36.8451 29.3143 36.8328 29.449H31.3411C31.3165 29.3143 31.3165 29.1796 31.3165 29.0449C31.3042 27.5143 32.5451 26.2776 34.0808 26.2776Z" fill="#EBDFCC"/>
<path fill-rule="evenodd" clip-rule="evenodd" d="M39.5355 23.3633C41.6241 23.3633 43.3195 25.0531 43.3195 27.1347C43.3195 28.0041 43.0247 28.8123 42.521 29.449H36.5378C36.0464 28.8123 35.7393 28.0041 35.7393 27.1347C35.7515 25.0531 37.447 23.3633 39.5355 23.3633Z" fill="#EBDFCC"/>
<path fill-rule="evenodd" clip-rule="evenodd" d="M43.1596 27.1592C44.0319 27.1592 44.7445 27.8694 44.7445 28.7388C44.7445 28.9837 44.6831 29.2286 44.5848 29.4367H41.7222C41.6239 29.2286 41.5625 28.9959 41.5625 28.7388C41.5625 27.8694 42.2751 27.1592 43.1596 27.1592Z" fill="#EBDFCC"/>
<path fill-rule="evenodd" clip-rule="evenodd" d="M14.3375 20.6449C16.9912 20.6449 19.3132 20.8531 20.6032 21.1714H8.07178C9.36178 20.8531 11.6838 20.6449 14.3375 20.6449Z" fill="#EBDFCC"/>
<path fill-rule="evenodd" clip-rule="evenodd" d="M11.5487 18.8571C12.593 18.8571 13.4407 19.702 13.4407 20.7428C13.4407 20.8408 13.4285 20.9265 13.4162 21.0122H9.68131C9.66902 20.9265 9.65674 20.8285 9.65674 20.7428C9.65674 19.702 10.5045 18.8571 11.5487 18.8571Z" fill="#EBDFCC"/>
<path fill-rule="evenodd" clip-rule="evenodd" d="M13.3547 19.249C13.9567 19.249 14.4482 19.7388 14.4482 20.3388C14.4482 20.596 14.3622 20.8286 14.2147 21.0123H12.4825C12.335 20.8286 12.249 20.596 12.249 20.3388C12.2613 19.7388 12.7527 19.249 13.3547 19.249Z" fill="#EBDFCC"/>
<path fill-rule="evenodd" clip-rule="evenodd" d="M16.3769 16.9714C17.9249 16.9714 19.1903 18.2327 19.1903 19.7755C19.1903 20.2163 19.092 20.6327 18.9078 21H13.846C13.6618 20.6327 13.5635 20.2163 13.5635 19.7755C13.5635 18.2327 14.8289 16.9714 16.3769 16.9714Z" fill="#EBDFCC"/>
<path fill-rule="evenodd" clip-rule="evenodd" d="M86.0002 103.727C88.2485 103.727 90.0791 105.551 90.0791 107.792C90.0791 110.033 88.2485 111.857 86.0002 111.857C83.752 111.857 81.9214 110.033 81.9214 107.792C81.9214 105.551 83.752 103.727 86.0002 103.727ZM86.0125 104.388L86.1231 106.861L86.8725 104.51C86.7374 104.461 86.6637 104.327 86.6882 104.192C86.5531 104.167 86.418 104.143 86.2705 104.143C86.2705 104.265 86.16 104.376 86.0125 104.388ZM86.8971 104.51L86.3565 106.922L87.6834 104.841C87.5605 104.767 87.5237 104.608 87.5974 104.486C87.4745 104.425 87.3394 104.376 87.2165 104.327C87.1797 104.449 87.0445 104.535 86.8971 104.51ZM87.7202 104.853L86.5777 107.045L88.4082 105.38C88.31 105.269 88.31 105.11 88.4082 105.012C88.2977 104.927 88.1994 104.841 88.0765 104.755C88.0028 104.865 87.8554 104.914 87.7202 104.853ZM88.4328 105.392L86.762 107.216L88.9611 106.078C88.8997 105.955 88.9365 105.796 89.0594 105.722C88.9857 105.612 88.8997 105.502 88.8014 105.392C88.7031 105.49 88.5434 105.49 88.4328 105.392ZM88.9734 106.102L86.8848 107.425L89.3051 106.886C89.2805 106.751 89.3543 106.604 89.4894 106.567C89.4403 106.433 89.3911 106.31 89.3297 106.188C89.2068 106.261 89.0471 106.225 88.9734 106.102ZM89.3051 106.935L86.9463 107.682L89.428 107.792C89.4403 107.645 89.5508 107.535 89.6982 107.535C89.686 107.4 89.6737 107.253 89.6491 107.118C89.4894 107.143 89.3543 107.069 89.3051 106.935ZM89.428 107.816L86.9463 107.927L89.3051 108.673C89.3543 108.539 89.4894 108.465 89.6245 108.49C89.6491 108.355 89.6737 108.22 89.6737 108.073C89.5508 108.061 89.428 107.951 89.428 107.816ZM89.3051 108.698L86.8848 108.159L88.9734 109.482C89.0471 109.359 89.2068 109.322 89.3297 109.396C89.3911 109.274 89.4403 109.139 89.4894 109.016C89.3543 108.967 89.2683 108.833 89.3051 108.698ZM88.9611 109.518L86.762 108.38L88.4328 110.204C88.5434 110.106 88.7031 110.106 88.8014 110.204C88.8874 110.094 88.9734 109.996 89.0594 109.873C88.9365 109.8 88.8874 109.641 88.9611 109.518ZM88.4082 110.216L86.5777 108.551L87.7202 110.743C87.8431 110.682 88.0028 110.718 88.0765 110.841C88.1871 110.767 88.2977 110.682 88.4082 110.584C88.31 110.486 88.31 110.327 88.4082 110.216ZM87.6957 110.755L86.3688 108.673L86.9094 111.086C87.0445 111.061 87.192 111.135 87.2288 111.269C87.364 111.22 87.4868 111.171 87.6097 111.11C87.536 110.988 87.5728 110.841 87.6957 110.755ZM86.8725 111.098L86.1231 108.735L86.0125 111.208C86.16 111.22 86.2705 111.331 86.2705 111.478C86.4057 111.465 86.5531 111.453 86.6882 111.429C86.6514 111.282 86.7374 111.135 86.8725 111.098ZM85.988 111.208L85.8774 108.735L85.128 111.086C85.2631 111.135 85.3368 111.269 85.3123 111.404C85.4474 111.429 85.5825 111.453 85.73 111.453C85.73 111.331 85.8405 111.22 85.988 111.208ZM85.1034 111.086L85.644 108.673L84.3171 110.755C84.44 110.829 84.4768 110.988 84.4031 111.11C84.526 111.171 84.6611 111.22 84.784 111.269C84.8208 111.135 84.956 111.061 85.1034 111.086ZM84.2802 110.743L85.4228 108.551L83.5922 110.216C83.6905 110.327 83.6905 110.486 83.5922 110.584C83.7028 110.669 83.8011 110.755 83.924 110.841C83.9977 110.718 84.1451 110.682 84.2802 110.743ZM83.5677 110.192L85.2385 108.367L83.0394 109.506C83.1008 109.629 83.064 109.788 82.9411 109.861C83.0148 109.971 83.1008 110.082 83.1991 110.192C83.2974 110.106 83.4571 110.106 83.5677 110.192ZM83.0271 109.494L85.1157 108.171L82.6954 108.71C82.72 108.845 82.6462 108.992 82.5111 109.029C82.5602 109.163 82.6094 109.286 82.6708 109.408C82.7937 109.335 82.9534 109.371 83.0271 109.494ZM82.6954 108.661L85.0542 107.914L82.5725 107.804C82.5602 107.951 82.4497 108.061 82.3022 108.061C82.3145 108.196 82.3268 108.343 82.3514 108.478C82.5111 108.453 82.6462 108.527 82.6954 108.661ZM82.5725 107.78L85.0542 107.669L82.6954 106.922C82.6462 107.057 82.5111 107.131 82.376 107.106C82.3514 107.241 82.3268 107.376 82.3268 107.522C82.4497 107.522 82.5725 107.645 82.5725 107.78ZM82.6954 106.898L85.1157 107.437L83.0271 106.114C82.9534 106.237 82.7937 106.274 82.6708 106.2C82.6094 106.322 82.5602 106.457 82.5111 106.58C82.6462 106.616 82.7322 106.763 82.6954 106.898ZM83.0394 106.078L85.2385 107.216L83.5677 105.392C83.4571 105.49 83.2974 105.49 83.1991 105.392C83.1131 105.502 83.0271 105.6 82.9411 105.722C83.064 105.796 83.1131 105.955 83.0394 106.078ZM83.5922 105.367L85.4228 107.033L84.2802 104.841C84.1574 104.902 83.9977 104.865 83.924 104.743C83.8134 104.816 83.7028 104.902 83.5922 105C83.6905 105.11 83.6905 105.269 83.5922 105.367ZM84.3048 104.829L85.6317 106.91L85.0911 104.498C84.956 104.522 84.8085 104.449 84.7717 104.314C84.6365 104.363 84.5137 104.412 84.3908 104.474C84.4645 104.596 84.4277 104.755 84.3048 104.829ZM85.128 104.498L85.8774 106.849L85.988 104.376C85.8405 104.363 85.73 104.253 85.73 104.106C85.5948 104.118 85.4474 104.131 85.3123 104.155C85.3491 104.314 85.2631 104.449 85.128 104.498Z" fill="#0061AF"/>
<path fill-rule="evenodd" clip-rule="evenodd" d="M152.195 23.0939C153.952 23.0939 155.488 23.2286 156.336 23.449H148.055C148.903 23.2408 150.439 23.0939 152.195 23.0939Z" fill="#EBDFCC"/>
<path fill-rule="evenodd" clip-rule="evenodd" d="M150.353 21.9183C151.041 21.9183 151.606 22.4694 151.606 23.1673C151.606 23.2285 151.606 23.2898 151.594 23.351H149.124C149.112 23.2898 149.112 23.2285 149.112 23.1673C149.112 22.4694 149.665 21.9183 150.353 21.9183Z" fill="#EBDFCC"/>
<path fill-rule="evenodd" clip-rule="evenodd" d="M152.81 20.6082C153.743 20.6082 154.505 21.3673 154.505 22.298C154.505 22.6898 154.37 23.0449 154.149 23.3388H151.458C151.237 23.0571 151.102 22.6898 151.102 22.298C151.102 21.3673 151.864 20.6082 152.81 20.6082Z" fill="#EBDFCC"/>
<path fill-rule="evenodd" clip-rule="evenodd" d="M154.431 22.3102C154.825 22.3102 155.144 22.6286 155.144 23.0204C155.144 23.1307 155.119 23.2409 155.07 23.3388H153.78C153.731 23.2409 153.707 23.1429 153.707 23.0204C153.719 22.6286 154.038 22.3102 154.431 22.3102Z" fill="#EBDFCC"/>
</g>
<defs>
<clipPath id="clip0_190_4524">
<rect width="172" height="120" fill="white"/>
</clipPath>
</defs>
</svg>
