<svg width="168" height="132" viewBox="0 0 168 132" fill="none" xmlns="http://www.w3.org/2000/svg">
<path d="M87.0842 9.58795C53.0042 9.58795 25.3682 37.2119 25.3682 71.3039V108.42H148.8V71.2919C148.8 37.2119 121.164 9.58795 87.0842 9.58795Z" fill="#6285A4"/>
<path d="M144.048 60.372H112.86C111.336 60.372 110.1 59.136 110.1 57.612C110.1 56.088 111.336 54.852 112.86 54.852H128.4C129.924 54.852 131.16 53.616 131.16 52.092C131.16 50.568 129.924 49.332 128.4 49.332H124.644C123.12 49.332 121.884 48.096 121.884 46.572C121.884 45.048 123.12 43.812 124.644 43.812H133.98C135.504 43.776 136.74 42.54 136.74 41.016C136.74 39.492 135.504 38.256 133.98 38.256H56.868C55.344 38.256 54.108 39.492 54.108 41.016C54.108 42.54 55.344 43.776 56.868 43.812H81.336C82.86 43.812 84.096 45.048 84.096 46.572C84.096 48.096 82.86 49.332 81.336 49.332H45.54C44.016 49.332 42.78 50.568 42.78 52.092C42.78 53.616 44.016 54.852 45.54 54.852H88.98C90.504 54.852 91.74 56.088 91.74 57.612C91.74 59.136 90.504 60.372 88.98 60.372H24.72C23.196 60.372 21.96 61.608 21.96 63.132C21.96 64.656 23.196 65.892 24.72 65.892H78.732C80.256 65.892 81.492 67.128 81.492 68.652C81.492 69.336 81.24 69.96 80.832 70.452H26.544C25.02 70.452 23.784 71.688 23.784 73.212C23.784 74.736 25.02 75.972 26.544 75.972H135.168C136.692 75.972 137.928 74.736 137.928 73.212C137.928 71.688 136.692 70.452 135.168 70.452H100.512C100.104 69.972 99.852 69.348 99.852 68.652C99.852 67.128 101.088 65.892 102.612 65.892H144.048C145.572 65.892 146.808 64.656 146.808 63.132C146.808 61.608 145.572 60.372 144.048 60.372Z" fill="#789CBA"/>
<path d="M153.756 99.06C153.756 90.3 146.652 83.196 137.892 83.196C135.18 83.196 132.624 83.88 130.38 85.08C129.132 80.196 124.692 76.572 119.412 76.572C115.308 76.572 111.708 78.756 109.728 82.032C108.528 81.456 107.172 81.132 105.756 81.132C102.972 81.132 100.488 82.368 98.7963 84.312C96.8523 79.356 92.0283 75.852 86.3763 75.852C81.3723 75.852 77.0163 78.612 74.7363 82.68C73.5843 81.708 72.1083 81.132 70.4883 81.132C68.4963 81.132 66.7083 82.02 65.4963 83.424C64.4523 78.336 59.9523 74.52 54.5643 74.52C49.9443 74.52 45.9843 77.328 44.2923 81.324C41.7363 80.088 38.8683 79.392 35.8443 79.392C25.1523 79.392 16.4883 88.056 16.4883 98.748C16.4883 102.264 17.4243 105.564 19.0683 108.408H52.6203H125.076H150.696C152.616 105.792 153.756 102.564 153.756 99.06Z" fill="#4D7296"/>
<path d="M145.284 117.3H12.8758C11.4598 117.3 10.3198 118.44 10.3198 119.856C10.3198 121.272 11.4598 122.412 12.8758 122.412H145.284C146.7 122.412 147.84 121.272 147.84 119.856C147.84 118.452 146.7 117.3 145.284 117.3Z" fill="#223548"/>
<path d="M153.972 110.184H22.8477C20.8797 110.184 19.2837 111.78 19.2837 113.748C19.2837 115.716 20.8797 117.312 22.8477 117.312H153.972C155.94 117.312 157.536 115.716 157.536 113.748C157.524 111.78 155.928 110.184 153.972 110.184Z" fill="#29425F"/>
<path d="M150.996 108.396H18.6964C18.2044 108.396 17.7964 108.792 17.7964 109.296C17.7964 109.788 18.1924 110.196 18.6964 110.196H150.996C151.488 110.196 151.896 109.8 151.896 109.296C151.896 108.792 151.488 108.396 150.996 108.396Z" fill="#345673"/>
<path d="M51.1679 42.336C50.8439 42.336 50.5319 42.36 50.2199 42.408C49.0319 38.208 45.1799 35.136 40.6079 35.136C36.7199 35.136 33.3599 37.356 31.7039 40.596C30.5039 39.768 29.0399 39.276 27.4679 39.276C23.9039 39.276 20.9159 41.784 20.1719 45.12H56.3039C55.2239 43.452 53.3279 42.336 51.1679 42.336Z" fill="#F1F2F2"/>
<path d="M153.588 39.396C152.892 39.396 152.22 39.552 151.632 39.84C150.96 36.3 147.852 33.636 144.12 33.636C143.016 33.636 141.972 33.864 141.036 34.284C139.032 31.596 135.828 29.856 132.228 29.856C126.168 29.856 121.248 34.776 121.248 40.836C121.248 41.244 121.272 41.652 121.32 42.06H157.68C156.984 40.488 155.412 39.396 153.588 39.396Z" fill="#F1F2F2"/>
<path d="M114.876 12.792C111.744 12.792 108.936 14.184 107.04 16.368C106.032 15.828 104.868 15.516 103.644 15.516C101.496 15.516 99.5638 16.452 98.2438 17.952C97.4878 16.812 96.1918 16.056 94.7158 16.056C92.6278 16.056 90.8878 17.568 90.5518 19.56H124.596C123.132 15.612 119.328 12.792 114.876 12.792Z" fill="#F1F2F2"/>
<path d="M74.3519 20.268C73.1279 20.268 71.9879 20.676 71.0879 21.36C69.7679 18.684 67.0199 16.836 63.8279 16.836C59.8199 16.836 56.4959 19.752 55.8599 23.568H79.3439C78.5159 21.636 76.5958 20.268 74.3519 20.268Z" fill="#F1F2F2"/>
<path d="M138.936 103.308H145.416V108.42H138.936V103.308Z" fill="#D99558"/>
<path d="M132.456 103.308H138.936V108.42H132.456V103.308Z" fill="#ECB16F"/>
<path d="M134.952 103.308H136.452V105.564H134.952V103.308Z" fill="#936133"/>
<path d="M141.54 103.308H143.04V105.564H141.54V103.308Z" fill="#936133"/>
<path d="M139.788 99.012H145.224V103.308H139.788V99.012Z" fill="#D99558"/>
<path d="M134.352 99.012H139.788V103.308H134.352V99.012Z" fill="#ECB16F"/>
<path d="M136.44 99.012H137.7V100.908H136.44V99.012Z" fill="#936133"/>
<path d="M141.984 99.012H143.244V100.908H141.984V99.012Z" fill="#936133"/>
<path d="M85.5837 88.308C85.6197 88.872 86.7597 89.8559 86.0397 90.2639H91.7997C92.5197 89.8559 91.3797 88.872 91.3437 88.308C91.3077 87.744 92.4597 84.24 91.2237 82.68H85.4517C86.6997 84.24 85.5477 87.732 85.5837 88.308Z" fill="#A7A9AC"/>
<path d="M91.2237 79.608H85.4517C86.0997 79.608 86.6277 80.136 86.6277 80.784V81.492C86.6277 82.14 86.0997 82.668 85.4517 82.668H91.2237C91.8717 82.668 92.3997 82.14 92.3997 81.492V80.784C92.3997 80.136 91.8717 79.608 91.2237 79.608Z" fill="#D1D3D4"/>
<path d="M85.5838 88.308C85.5478 87.744 86.6998 84.24 85.4638 82.68H84.2158H78.4438H77.1958C75.9598 84.24 77.0998 87.744 77.0758 88.308C77.0398 88.872 75.8998 89.8559 76.6198 90.2639H78.4558H84.2278H86.0638C86.7598 89.8559 85.6078 88.872 85.5838 88.308Z" fill="#CCCCCC"/>
<path d="M75.9961 80.796V81.504C75.9961 82.152 76.5241 82.68 77.1721 82.68H78.4201H84.1921H85.4401C86.0881 82.68 86.6161 82.152 86.6161 81.504V80.796C86.6161 80.148 86.0881 79.62 85.4401 79.62H77.1601C76.5241 79.608 75.9961 80.136 75.9961 80.796Z" fill="#F2F2F2"/>
<path d="M45.7319 103.116H124.344V108.408H45.7319V103.116Z" fill="#B37031"/>
<path d="M45.7319 97.824H124.344V103.116H45.7319V97.824Z" fill="#A56127"/>
<path d="M45.7319 92.52H124.344V97.812H45.7319V92.52Z" fill="#B37031"/>
<path d="M44.0039 57.744H45.7319V108.408H44.0039V57.744Z" fill="#A95C28"/>
<path d="M42.312 57.744H44.04V108.408H42.312V57.744Z" fill="#D38945"/>
<path d="M34.8721 90.2639H78.432V92.568H34.8721V90.2639Z" fill="#F4964C"/>
<path d="M78.4321 90.2639H94.6681V92.568H78.4321V90.2639Z" fill="#C66728"/>
<path d="M37.1641 92.568H77.3881V97.848H37.1641V92.568Z" fill="#CE7D31"/>
<path d="M77.3877 92.568H92.3877V97.848H77.3877V92.568Z" fill="#A45325"/>
<path d="M37.1641 103.116H77.3881V108.396H37.1641V103.116Z" fill="#CE7D31"/>
<path d="M77.3877 103.116H92.3877V108.396H77.3877V103.116Z" fill="#A45325"/>
<path d="M37.1641 97.836H77.3881V103.116H37.1641V97.836Z" fill="#C06D29"/>
<path d="M77.3877 97.836H92.3877V103.116H77.3877V97.836Z" fill="#974621"/>
<path d="M39.0601 83.208H47.5561V85.56H39.0601V83.208Z" fill="#CE7D31"/>
<path d="M47.5562 83.208H54.2402V85.56H47.5562V83.208Z" fill="#A45325"/>
<path d="M39.0601 87.912H47.5561V90.264H39.0601V87.912Z" fill="#CE7D31"/>
<path d="M47.5562 87.912H54.2402V90.264H47.5562V87.912Z" fill="#A45325"/>
<path d="M39.0601 85.56H47.5561V87.9121H39.0601V85.56Z" fill="#C06D29"/>
<path d="M47.5562 85.56H54.2402V87.9121H47.5562V85.56Z" fill="#974621"/>
<path d="M52.1162 84.384H59.1962V86.34H52.1162V84.384Z" fill="#CE7D31"/>
<path d="M59.1963 84.384H64.7643V86.34H59.1963V84.384Z" fill="#A45325"/>
<path d="M52.1162 88.308H59.1962V90.2639H52.1162V88.308Z" fill="#CE7D31"/>
<path d="M59.1963 88.308H64.7643V90.2639H59.1963V88.308Z" fill="#A45325"/>
<path d="M52.1162 86.34H59.1962V88.296H52.1162V86.34Z" fill="#C06D29"/>
<path d="M59.1963 86.34H64.7643V88.296H59.1963V86.34Z" fill="#974621"/>
<path d="M84.3359 59.316V59.364C84.3359 61.596 86.1359 63.396 88.3679 63.396C90.5999 63.396 92.3999 61.596 92.3999 59.364V59.316H84.3359Z" fill="#BCBEC0"/>
<path d="M102.036 35.772L124.668 59.316H116.604L93.9722 35.772H102.036Z" fill="#CACACA"/>
<path d="M93.9722 35.772L116.604 59.316H108.54L85.9082 35.772H93.9722Z" fill="#C85A51"/>
<path d="M110.101 35.772L132.745 59.316H124.669L102.037 35.772H110.101Z" fill="#C85A51"/>
<path d="M69.7676 35.772L92.3996 59.316H84.3356L61.7036 35.772H69.7676Z" fill="#CACACA"/>
<path d="M85.9081 35.772L108.54 59.316H100.476L77.832 35.772H85.9081Z" fill="#CACACA"/>
<path d="M77.8321 35.772L100.476 59.316H92.4001L69.7681 35.772H77.8321Z" fill="#C85A51"/>
<path d="M124.668 59.316V59.364C124.668 61.596 126.468 63.396 128.7 63.396C130.932 63.396 132.732 61.596 132.732 59.364V59.316H124.668Z" fill="#BB403A"/>
<path d="M116.604 59.316V59.364C116.604 61.596 118.404 63.396 120.636 63.396C122.868 63.396 124.668 61.596 124.668 59.364V59.316H116.604Z" fill="#BCBEC0"/>
<path d="M108.54 59.316V59.364C108.54 61.596 110.34 63.396 112.572 63.396C114.804 63.396 116.604 61.596 116.604 59.364V59.316H108.54Z" fill="#BB403A"/>
<path d="M100.477 59.316V59.364C100.477 61.596 102.277 63.396 104.509 63.396C106.741 63.396 108.541 61.596 108.541 59.364V59.316H100.477Z" fill="#BCBEC0"/>
<path d="M92.3999 59.316V59.364C92.3999 61.596 94.1999 63.396 96.4319 63.396C98.6639 63.396 100.464 61.596 100.464 59.364V59.316H92.3999Z" fill="#BB403A"/>
<path d="M88.3799 57.744H90.1079V108.408H88.3799V57.744Z" fill="#A95C28"/>
<path d="M86.688 57.744H88.416V108.408H86.688V57.744Z" fill="#D38945"/>
<path d="M108.804 38.88L130.152 61.368H127.776L107.568 40.188L108.804 38.88Z" fill="#A95C28"/>
<path d="M84.624 59.316H87.456V61.356H84.624V59.316Z" fill="#A95C28"/>
<path d="M69.768 35.772L47.124 59.316H55.2L77.832 35.772H69.768Z" fill="#F1F2F2"/>
<path d="M77.8317 35.772L55.1997 59.316H63.2637L85.8957 35.772H77.8317Z" fill="#E84D40"/>
<path d="M61.7041 35.772L39.0601 59.316H47.1241L69.7681 35.772H61.7041Z" fill="#E84D40"/>
<path d="M102.036 35.772L79.3916 59.316H87.4676L110.1 35.772H102.036Z" fill="#F1F2F2"/>
<path d="M85.8956 35.772L63.2637 59.316H71.3277L93.9716 35.772H85.8956Z" fill="#F1F2F2"/>
<path d="M93.9722 35.772L71.3281 59.316H79.3921L102.036 35.772H93.9722Z" fill="#E84D40"/>
<path d="M39.0601 59.316V59.364C39.0601 61.596 40.8601 63.396 43.0921 63.396C45.3241 63.396 47.1241 61.596 47.1241 59.364V59.316H39.0601Z" fill="#EF6B60"/>
<path d="M47.124 59.316V59.364C47.124 61.596 48.924 63.396 51.156 63.396C53.388 63.396 55.188 61.596 55.188 59.364V59.316H47.124Z" fill="white"/>
<path d="M55.1997 59.316V59.364C55.1997 61.596 56.9997 63.396 59.2317 63.396C61.4637 63.396 63.2637 61.596 63.2637 59.364V59.316H55.1997Z" fill="#EF6B60"/>
<path d="M63.2637 59.316V59.364C63.2637 61.596 65.0637 63.396 67.2957 63.396C69.5277 63.396 71.3277 61.596 71.3277 59.364V59.316H63.2637Z" fill="white"/>
<path d="M71.3281 59.316V59.364C71.3281 61.596 73.1281 63.396 75.3601 63.396C77.5921 63.396 79.3921 61.596 79.3921 59.364V59.316H71.3281Z" fill="#EF6B60"/>
<path d="M79.3921 59.316V59.364C79.3921 61.596 81.1921 63.396 83.4241 63.396C85.6561 63.396 87.456 61.596 87.456 59.364V59.316H79.3921Z" fill="white"/>
<path d="M126.048 57.744H127.776V108.408H126.048V57.744Z" fill="#A95C28"/>
<path d="M124.344 57.744H126.072V108.408H124.344V57.744Z" fill="#D38945"/>
<path d="M109.656 37.992L108.804 37.116L107.964 37.992L87.4678 59.316V61.368L108.804 38.88L130.152 61.368V59.316L109.656 37.992Z" fill="#D38945"/>
<path d="M122.436 96.96H132.744V108.396H122.436V96.96Z" fill="#D99558"/>
<path d="M112.128 96.96H122.436V108.396H112.128V96.96Z" fill="#ECB16F"/>
<path d="M116.088 96.96H118.488V100.548H116.088V96.96Z" fill="#936133"/>
<path d="M126.576 96.96H128.976V100.548H126.576V96.96Z" fill="#936133"/>
<path d="M38.1602 99.7559H47.5681V110.184H38.1602V99.7559Z" fill="#D99558"/>
<path d="M28.752 99.7559H38.1599V110.184H28.752V99.7559Z" fill="#ECB16F"/>
<path d="M32.3638 99.7559H34.5478V103.032H32.3638V99.7559Z" fill="#936133"/>
<path d="M41.9399 99.7559H44.1239V103.032H41.9399V99.7559Z" fill="#936133"/>
<path d="M52.1763 102.048H59.5082V110.184H52.1763V102.048Z" fill="#D99558"/>
<path d="M44.8438 102.048H52.1758V110.184H44.8438V102.048Z" fill="#ECB16F"/>
<path d="M47.6641 102.048H49.3681V104.604H47.6641V102.048Z" fill="#936133"/>
<path d="M55.1279 102.048H56.8319V104.604H55.1279V102.048Z" fill="#936133"/>
<path d="M109.176 96.96H119.484V108.396H109.176V96.96Z" fill="#D99558"/>
<path d="M98.8682 96.96H109.176V108.396H98.8682V96.96Z" fill="#ECB16F"/>
<path d="M102.828 96.96H105.228V100.548H102.828V96.96Z" fill="#936133"/>
<path d="M113.316 96.96H115.716V100.548H113.316V96.96Z" fill="#936133"/>
<path d="M108.876 88.38H116.604V96.96H108.876V88.38Z" fill="#D99558"/>
<path d="M101.148 88.38H108.876V96.96H101.148V88.38Z" fill="#ECB16F"/>
<path d="M104.112 88.38H105.912V91.068H104.112V88.38Z" fill="#936133"/>
<path d="M111.984 88.38H113.784V91.068H111.984V88.38Z" fill="#936133"/>
<path d="M124.668 87.312H133.356V96.948H124.668V87.312Z" fill="#D99558"/>
<path d="M115.98 87.312H124.668V96.948H115.98V87.312Z" fill="#ECB16F"/>
<path d="M114.372 90.792H123.06L124.668 87.312H115.98L114.372 90.792Z" fill="#F1C08C"/>
<path d="M134.976 90.792H126.288L124.668 87.312H133.368L134.976 90.792Z" fill="#F1C08C"/>
<path d="M39.7798 93.3H45.5998V99.7559H39.7798V93.3Z" fill="#D99558"/>
<path d="M33.9722 93.3H39.7922V99.7559H33.9722V93.3Z" fill="#ECB16F"/>
<path d="M32.8799 95.628H38.6999L39.7799 93.3H33.9719L32.8799 95.628Z" fill="#F1C08C"/>
<path d="M46.6798 95.628H40.8718L39.7798 93.3H45.5998L46.6798 95.628Z" fill="#F1C08C"/>
<path d="M86.8677 94.224H103.668L108.852 117.3H106.596L106.104 115.104H93.8037L94.2957 117.3H92.0517L86.8677 94.224Z" fill="#FBB040"/>
<path d="M85.6079 94.224H102.408L107.592 117.3H105.336L104.844 115.104H92.5439L93.0359 117.3H90.7919L85.6079 94.224Z" fill="#CB832A"/>
<path d="M102.372 94.224H85.572L80.376 117.3H82.644L83.136 115.104H95.436L94.944 117.3H97.188L102.372 94.224Z" fill="#E29227"/>
<path d="M101.064 94.224H84.2641L79.0801 117.3H81.3361L81.8281 115.104H94.1281L93.6361 117.3H95.8801L101.064 94.224Z" fill="#FBB040"/>
<path d="M86.0284 96.42L82.2964 113.016H94.5964L98.3284 96.42H86.0284Z" fill="#726658"/>
<path d="M106.464 27.924H65.3279C63.3239 27.924 61.6919 29.5559 61.6919 31.5599V35.7719H110.1V31.5599C110.1 29.5439 108.48 27.924 106.464 27.924Z" fill="#E64E3D"/>
</svg>
