<svg width="115" height="168" viewBox="0 0 115 168" fill="none" xmlns="http://www.w3.org/2000/svg">
<path d="M114.064 118.439C114.031 118.275 113.8 118.275 113.8 118.439C113.602 120.143 113.668 121.946 112.842 123.519C112.314 124.502 111.587 124.928 110.794 124.994C111.851 124.437 112.71 123.388 113.04 122.339C113.437 121.061 113.305 119.881 112.644 118.734C111.587 116.899 111.851 115.063 112.082 112.998C112.082 112.933 111.983 112.9 111.95 112.966C111.521 113.916 111.157 115.063 111.091 116.178C111.025 116.046 110.926 115.915 110.86 115.817C110.265 114.965 109.505 114.309 109.01 113.49C108.878 112.277 108.448 111.032 108.382 109.819C108.382 109.721 108.184 109.656 108.184 109.787C108.118 110.18 108.118 110.54 108.118 110.934C107.821 109.59 106.995 108.115 108.019 106.935C108.118 106.837 107.986 106.706 107.887 106.804C107.16 107.394 106.896 108.279 107.061 109.229C107.226 110.18 107.49 111.13 107.523 112.114C107.556 113.031 107.259 114.375 106.268 114.735C105.079 114.244 104.649 112.802 104.253 111.458C103.856 110.147 103.229 108.902 102.535 107.755C101.511 106.05 99.2642 104.739 97.216 104.838C96.4892 103.461 95.4981 102.15 94.507 100.97C93.6481 99.9544 92.5579 99.2334 91.4347 98.5452C90.6088 98.0535 89.7498 97.4636 88.8248 97.0376C89.8159 96.9065 90.807 96.3821 91.5007 95.6938C93.3838 97.5947 95.9937 99.3645 98.4714 100.086C99.4955 100.38 100.619 100.38 101.544 99.8561C102.403 99.3645 103.625 98.414 103.922 97.4308C104.418 95.7921 102.997 93.6946 101.412 95.2678C101.048 95.6283 100.817 96.251 100.52 96.677C99.4624 98.2502 97.7776 97.7586 96.4561 97.1031C95.7954 96.7754 95.2008 96.3493 94.7052 95.8249C96.1919 95.5299 98.0749 94.9728 97.3481 93.8585C96.6544 92.8425 95.6633 92.0231 94.8374 91.1055C94.5401 90.7777 94.2758 90.4172 94.0445 90.0567C94.2097 89.139 94.3749 88.2214 94.507 87.2709C94.6392 86.3532 95.0686 84.944 94.6392 84.0591C94.2097 83.1742 93.3177 83.0759 92.4918 82.6498C92.1614 82.4859 91.8642 82.2893 91.5338 82.1254C91.3025 81.1094 90.9061 80.159 90.1793 79.3396C89.5846 78.6514 88.7257 78.1598 88.0319 77.5371C87.2721 76.8488 86.7435 75.9967 86.2149 75.1446C86.1158 74.8496 86.0167 74.5219 85.8846 74.2597C87.3712 74.1286 88.8578 73.9975 90.3445 73.8664C91.732 73.7353 92.657 73.5714 93.2516 72.1621C93.7802 70.8512 93.1195 68.9175 92.8222 67.6393C92.69 67.1477 92.5579 66.6561 92.3927 66.1645C92.657 65.509 91.732 64.1981 91.5668 63.7392C90.7739 61.6089 90.5427 59.3475 89.4525 57.3155C89.9811 56.2012 88.065 54.3003 87.2391 53.776C86.3471 53.2188 85.4221 53.1205 84.3979 52.8583C83.9024 52.7272 83.4399 52.5633 83.0105 52.3667C83.6712 52.17 84.2328 51.8423 83.8364 51.154C83.2087 50.0725 82.4819 49.5481 82.1845 48.2372C82.0194 47.6145 82.0524 46.959 81.9863 46.3363C83.2417 43.7471 83.1426 41.0597 81.4908 38.6344C81.0944 38.0445 80.5658 37.5856 79.9381 37.2251C80.0702 36.6352 80.3345 36.9957 80.5658 36.7663C80.6649 36.668 80.6979 36.5041 80.6979 36.373C80.6979 35.9142 80.6318 35.4553 80.5988 34.9965C80.5988 34.8654 80.4336 34.7671 80.3345 34.8326C79.9711 35.0948 78.98 35.5864 79.0461 36.1764C79.0792 36.373 79.1783 36.5369 79.3765 36.6024C79.3434 36.6024 79.2774 36.7335 79.1783 36.8974C78.5506 36.668 77.8568 36.5369 77.1961 36.6024C77.1631 36.6024 77.13 36.6024 77.097 36.6024C74.5532 36.7335 72.1416 38.2739 71.2496 40.6664C70.2585 40.437 68.8379 40.2731 69.0362 41.2563C69.0692 41.3874 69.1683 41.453 69.3005 41.453C69.5648 41.4857 69.829 41.5185 70.1264 41.5185C69.8951 42.2723 69.3996 43.7799 68.8049 43.1572C68.7058 43.0589 68.5736 43.1244 68.5406 43.2227C68.2433 44.3371 69.0362 44.8942 69.1683 45.9758C69.1683 46.1069 69.3665 46.2379 69.4656 46.1069C69.796 45.7136 70.2585 45.648 70.721 45.5825C70.7871 46.238 70.8532 46.8607 70.8862 47.5161C70.9192 48.2372 70.7541 48.9582 70.8862 49.6464C70.9853 50.138 71.8112 50.3347 72.6371 50.4002C72.6041 50.5641 72.5711 50.728 72.538 50.8918C71.3487 50.5313 70.0273 50.433 68.904 50.9246C67.0871 51.744 66.2281 53.3827 64.9397 54.7919C64.1799 55.6441 62.9575 56.0374 61.9995 56.5617C61.7352 56.6928 61.57 56.9878 61.6361 57.2828C61.8013 58.0693 62.1316 58.9215 62.5941 59.6425C62.1646 60.8223 61.603 61.9039 60.9423 62.9854C60.2485 64.1325 59.4557 65.4435 58.4977 66.4267C58.7289 65.3779 58.828 64.2964 58.4316 63.3132C58.5637 62.8543 58.6298 62.3955 58.6628 61.9367C58.795 62.6249 58.861 63.3459 58.795 64.067C58.795 64.1325 58.8941 64.1653 58.9271 64.0997C59.5218 62.5594 59.1584 60.9862 58.3985 59.6097C58.5307 58.3643 58.1343 57.0206 57.3414 56.0701C56.2512 54.7264 54.6324 54.202 53.0797 53.5138C55.3262 54.202 57.6718 54.7919 58.3325 57.25C58.3325 57.2828 58.3985 57.2828 58.3985 57.25C58.3655 55.3819 57.1432 54.3987 55.6235 53.6776C55.6235 53.6449 55.6235 53.5793 55.5905 53.5465C54.7976 52.8255 53.8726 52.3011 53.0797 51.5473C52.2208 50.7608 51.494 49.8103 50.7342 48.9254C49.4788 47.4178 47.9591 46.0085 45.977 45.6152C45.9439 45.6152 45.9439 45.6152 45.9109 45.6152C45.8448 44.8614 45.6466 44.1076 45.3162 43.4194C45.052 42.8295 44.4242 42.4034 43.9287 42.0101C43.2019 41.453 42.7064 40.8958 42.2439 40.1092C42.2769 40.0109 42.1448 39.9781 42.0787 40.0437C40.9885 41.6168 40.9555 43.4849 41.7153 45.0581C41.6162 45.0581 41.5171 45.0909 41.418 45.0909C41.1867 44.4354 40.8233 43.8782 40.2947 43.3538C39.9313 42.9933 39.4688 42.6984 39.0724 42.3379C38.5769 41.879 38.4117 41.2235 38.2795 40.6008C38.2795 40.5681 38.2795 40.5681 38.2795 40.5353C38.2795 40.5025 38.2135 40.4697 38.1804 40.5025C38.1474 40.5025 38.1143 40.5353 38.1143 40.5681C38.1143 40.6008 38.1144 40.6664 38.0813 40.6992C37.3545 42.2723 37.2554 44.8942 38.5769 46.1724C38.4117 46.2707 38.2465 46.369 38.1143 46.5001C36.5286 47.6472 35.6367 49.5153 34.2491 50.8591C34.15 50.9246 34.2822 51.0557 34.3813 51.0229C34.7447 50.8263 35.042 50.5969 35.3393 50.3347C35.1741 50.5969 35.042 50.8918 34.8768 51.154C34.8438 51.1868 34.9099 51.2524 34.9429 51.2196C35.1741 51.0885 35.3393 50.9246 35.5376 50.728C35.4054 51.2196 35.3063 51.7112 35.2733 52.2356C34.7116 52.8255 34.084 53.3827 33.5554 53.9398C33.5224 53.9726 33.5223 53.9726 33.4893 54.0054C29.2937 47.1228 24.9329 40.3386 20.9686 33.3578C18.9204 29.7199 16.6739 26.1803 14.4935 22.6407C16.5418 20.7071 19.5481 20.6415 22.224 21.1331C25.4615 21.7558 28.4018 22.8374 31.7384 22.8046C34.9759 22.7718 38.2796 22.2802 41.3189 23.7223C42.7064 24.3777 43.7635 25.5576 44.8207 26.6391C45.8779 27.7207 46.935 28.6384 48.2234 29.4249L48.2565 29.4577C48.0913 29.6543 47.9261 29.851 47.7939 30.0804C47.2984 30.8998 47.4306 32.0796 47.7939 32.9973C47.827 33.325 47.9261 33.62 48.0582 33.8822C48.0913 33.9477 48.1904 33.915 48.1904 33.8494C48.1243 32.3418 48.4216 31.3586 49.5448 30.277L49.5779 30.2443C51.7253 31.3914 53.9717 32.2763 55.7887 33.8822C56.7798 34.7343 57.5066 35.8158 57.903 37.0612C57.3414 37.5529 56.3173 37.2579 55.5574 36.8646C54.7646 36.2419 54.0708 35.3898 53.1788 34.9309C51.8904 34.2427 49.7431 34.4721 48.3886 34.7343C47.2984 34.9309 45.6135 35.3898 45.2171 36.6024C45.0189 37.1923 45.0519 37.5856 45.2501 38.1756C45.3493 38.4705 45.5145 38.7983 45.6796 39.0932C45.7127 39.1588 45.7457 39.2243 45.7788 39.3227C45.8118 39.4537 45.8448 39.5848 45.9109 39.7159C46.2743 40.6664 45.5805 41.0597 43.8626 40.863C43.7966 40.7975 43.6974 40.8958 43.7635 40.9613C44.3251 41.5841 45.0189 42.2395 45.7457 42.0757C45.8118 42.1412 45.8779 42.1412 45.977 42.1412C46.6046 42.0101 47.0341 41.4857 47.0011 40.8303C46.968 40.4042 46.8689 40.0765 46.7037 39.6832C46.3073 38.831 45.5805 38.3394 46.5386 37.1596C47.1002 36.5041 48.0913 36.4713 48.8511 36.4713C50.8002 36.5041 52.7824 37.3562 54.4012 38.3394C55.161 38.831 56.4824 40.3386 57.5726 40.0437C58.5307 39.7815 58.8941 39.126 58.8941 38.3394C59.4227 36.8974 59.4227 35.2259 58.828 33.8166C58.2664 32.5057 57.4074 31.6536 56.3172 30.7687C55.2601 29.8838 54.4342 28.9005 53.5422 27.8845C55.0619 27.6224 57.3083 27.9501 57.7708 26.2459C57.8369 26.0492 57.8369 25.8198 57.8369 25.6231C58.6298 21.9197 54.2029 19.4289 51.3618 17.9213C49.2475 16.807 47.0671 15.7582 44.7546 15.1355C42.0787 14.4145 39.2376 14.4145 36.4956 14.0212C33.8527 13.6279 31.2428 12.8085 28.6991 12.0547C25.8579 11.2354 22.9508 10.5799 20.0766 9.98998C15.6498 9.03954 10.7605 7.72858 6.43272 9.49837C6.03629 8.94122 5.63984 8.38406 5.24341 7.85968C5.40859 7.59749 5.44162 7.23697 5.24341 6.90924C5.04519 6.51595 4.51661 6.35208 4.08714 6.48317C3.72375 4.25455 2.60053 2.5503 0.882655 1.07548C0.684438 0.911606 0.420149 1.00993 0.387113 1.27212C0.188896 2.97636 1.01478 6.35208 2.93088 7.0731C2.83177 7.3353 2.79873 7.63026 2.93088 7.92523C3.06302 8.22019 3.4925 8.51516 3.82286 8.41684C5.97021 12.6447 8.71221 16.6103 11.223 20.6415C13.7998 24.8366 16.3436 29.0316 18.9204 33.2267C20.2088 35.3242 21.6293 37.3234 22.8186 39.4865C23.9749 41.6496 25.2963 43.7471 26.5517 45.8447C28.666 49.3842 30.7473 52.9894 32.8616 56.5617C31.8044 58.5282 30.7804 60.5274 29.5911 62.4283C29.2937 62.5594 28.9964 62.6905 28.6991 62.8543C28.3357 63.051 28.0714 63.6409 27.8401 64.0014C27.3115 64.788 27.1464 65.2468 27.774 65.9351C27.6749 66.3611 27.5428 66.7544 27.4107 67.1805C27.1133 68.0654 26.5517 68.852 26.2874 69.7696C25.9901 70.7856 26.7499 71.8344 27.4107 72.5554C27.5428 73.3092 27.7741 74.063 28.1375 74.7185C28.0714 75.3084 28.0714 76.1605 28.633 76.4883C29.0625 76.7177 29.525 76.816 30.0205 76.8488C30.1196 76.9143 30.2187 76.9799 30.3178 77.0782C30.4169 77.1438 30.5491 77.1765 30.6812 77.2093C30.7143 77.406 30.7473 77.5698 30.7803 77.7665C30.9125 78.3564 31.342 79.2741 31.9696 79.4707C33.0268 79.7985 33.8197 79.2741 34.7447 78.8152C35.1081 78.6186 35.4384 78.4547 35.8018 78.2908C35.8349 78.4875 35.8349 78.6841 35.8679 78.8808C36.0001 79.8312 36.5617 80.1262 37.2554 80.159C37.0572 82.0599 36.9251 83.9935 36.9251 85.9272C35.967 87.3365 35.042 88.7457 34.15 90.2206C33.4893 91.3349 32.8286 92.5475 32.3991 93.8585C31.8375 94.7106 31.3089 95.5955 30.7803 96.4804C30.3509 97.1686 30.2848 97.7258 30.3839 98.3485C29.8883 98.9057 29.525 99.5284 29.4919 100.249C29.4589 101.167 29.6241 102.118 29.8553 103.068C29.2276 102.478 28.5339 101.954 27.8071 101.528C26.4196 100.708 24.8669 100.282 23.5454 99.3973C22.8847 98.3813 22.3892 97.2014 21.4972 96.3493C20.44 95.3333 18.9864 95.0383 17.665 95.661C16.1784 96.3493 15.848 98.3157 15.815 99.7578C15.7819 101.528 16.3436 103.363 17.2686 104.903C17.5659 108.705 18.0614 112.474 18.2596 116.276C18.3588 118.078 18.2596 119.684 19.1847 121.29C19.8123 122.372 21.0677 122.568 22.257 122.831C22.3561 122.929 22.4552 123.027 22.5874 123.126C22.9177 123.388 23.3142 123.617 23.7106 123.847C23.8758 124.371 24.107 124.764 24.8338 125.092C26.0892 125.682 27.4767 126.075 28.8642 126.239C28.9964 126.272 29.0955 126.141 29.1616 126.01C29.8884 123.912 29.7892 121.847 28.8642 119.815C28.633 119.324 28.3026 118.603 27.6419 118.603C26.783 118.603 25.7588 119.062 24.8999 119.422C24.3383 118.767 24.074 117.98 23.5785 117.128C22.8517 115.915 22.1579 114.834 21.8275 113.425C21.2659 110.999 21.6624 108.443 21.2659 105.985C21.332 105.854 21.365 105.69 21.4311 105.559C21.4641 105.46 21.4972 105.395 21.5302 105.297C22.2901 105.69 23.0499 106.05 23.5785 106.837C24.2722 107.918 24.107 109.361 24.6687 110.54C25.3294 111.917 26.6508 112.998 27.708 114.047C28.3357 114.67 28.9303 115.26 29.5911 115.85C29.9875 116.309 30.45 116.669 30.9125 117.095C31.8045 117.849 32.333 119.029 33.2581 119.684C35.075 120.995 36.0661 119.553 37.5197 118.865C38.0153 119.127 38.4117 119.455 38.7751 119.848C38.5438 120.241 38.2795 120.668 38.0813 121.094C36.6938 123.748 33.0268 124.109 31.4411 126.501C30.9125 127.288 31.1768 128.369 31.408 129.189C31.6393 130.008 31.8705 130.729 31.8045 131.614C31.7714 132.04 31.6393 132.597 31.8705 133.023C32.3 133.81 32.9937 134.039 33.8527 134.17C34.6125 134.301 35.3723 134.334 36.1652 134.334C37.1893 134.629 38.2795 134.728 39.3697 135.023C40.3608 135.285 41.3519 135.645 42.343 136.006C43.4993 136.432 44.3912 137.284 45.5145 137.808C46.2412 138.169 46.6377 138.595 47.4636 138.726C48.1904 138.824 48.9172 138.693 49.6109 138.529C50.7342 138.234 51.6922 137.546 52.452 136.694C52.8815 136.76 53.344 136.858 53.7735 136.923C54.5994 137.087 55.128 137.186 55.8878 136.727C56.7137 136.235 58.9932 134.629 58.2334 133.449C57.2423 131.876 55.0949 131.45 53.4431 130.795C53.0797 130.664 52.3199 130.27 51.9895 130.696C51.5601 131.286 51.2628 131.975 51.0645 132.696C50.1726 132.401 49.2145 132.171 48.4216 132.368C47.5297 132.564 46.935 133.122 46.3073 133.646C44.9859 133.449 43.7635 133.122 42.5412 132.335C41.3849 131.614 40.3278 130.795 39.3036 129.943C39.3367 129.385 39.3697 128.828 39.3036 128.271C40.0965 127.845 40.8894 127.517 41.7483 127.222C43.0698 126.796 44.5234 126.731 45.8118 126.174C47.1993 125.584 48.5207 124.633 49.71 123.552C49.9082 123.65 50.1065 123.748 50.2717 123.847C51.3288 124.502 52.7494 124.732 53.9056 125.059C54.9298 125.321 55.9869 125.584 57.0441 125.748C57.4075 126.436 57.9691 126.927 58.8611 127.288C60.5459 127.943 62.2638 128.533 64.0477 128.566C64.7084 129.648 65.4022 130.664 66.2281 131.614C67.4174 133.023 69.2013 133.744 70.8531 134.465C72.1415 135.023 73.43 135.285 74.7514 134.629C75.3791 134.334 75.8416 133.712 76.3372 133.253C77.0309 132.564 77.8238 132.204 78.6827 132.138C79.806 132.925 80.8301 133.81 81.722 134.859C83.0765 136.432 83.6051 138.267 83.9024 140.266C84.1006 141.61 85.323 142.659 86.248 143.544C86.9087 144.199 87.5364 144.33 88.2962 144.166C89.023 144.691 89.4525 145.445 89.7498 146.461C89.9811 147.247 90.4436 147.739 91.1043 148.198C92.5909 149.148 93.9124 149.541 94.8704 147.837C95.8615 146.067 96.0267 143.577 94.9365 141.84C93.8463 140.102 92.1615 140.856 90.5757 140.824C90.5097 140.463 90.4105 140.135 90.3445 139.775C90.2453 139.218 90.1132 138.66 89.882 138.169C90.8731 138.628 91.8641 139.054 92.7891 139.709C93.6481 140.299 94.4409 140.856 95.432 141.217C95.9606 141.413 96.5222 141.479 97.0508 141.545C97.6124 142.626 98.141 143.708 98.5374 144.855C99.1321 146.657 98.8348 148.427 98.5044 150.23C98.174 151.999 98.0089 153.802 98.0089 155.572C97.7446 157.604 97.7776 159.832 98.5705 161.602C99.3633 163.405 101.048 163.896 102.733 163.765C103.229 164.191 103.658 164.683 104.088 165.207C104.715 165.961 105.277 166.715 106.235 167.043C107.887 167.633 109.34 168.026 110.232 166.256C111.157 164.454 110.761 162.127 109.803 160.455C109.076 159.144 107.49 159.341 106.07 159.603C106.037 158.718 105.541 157.866 104.979 157.047C103.988 155.572 103.129 154.031 102.799 152.327C102.931 150.754 103.196 149.181 103.262 147.608C103.394 145.019 103.658 142.462 104.22 139.939C104.451 138.824 105.541 136.235 104.021 135.514C103.162 135.121 102.237 135.023 101.379 134.629C101.279 134.596 101.213 134.531 101.114 134.498C100.817 132.564 100.817 130.631 100.685 128.664C100.619 127.911 100.52 127.157 100.387 126.403C101.081 127.517 101.973 128.501 103.162 129.385C104.616 130.467 106.466 131.122 108.151 130.795C108.613 130.86 109.109 130.827 109.605 130.729C112.347 130.008 113.007 127.353 112.941 124.863C114.527 123.289 114.263 120.438 114.064 118.439ZM63.5522 73.7353C63.387 74.0302 63.2548 74.1941 63.387 74.5219C63.4861 74.784 63.7834 74.9479 64.0147 75.0462C63.7834 75.3412 63.5522 75.6034 63.3209 75.8656C63.1227 76.095 62.9245 76.2916 62.6932 76.5211C62.5941 76.2589 62.495 75.9967 62.3298 75.7673C61.9004 75.0462 61.2397 74.3252 60.4798 73.8664C61.6691 73.637 62.8584 73.2437 63.9486 72.7193C63.8495 73.047 63.7173 73.4075 63.5522 73.7353ZM31.6393 78.0942C31.4741 77.832 31.375 77.5043 31.2759 77.1438C31.9036 77.2093 32.4982 77.3732 33.1259 77.5043C34.1831 77.7337 35.075 76.6194 35.1741 75.6362C35.5375 76.1605 35.6697 76.7505 35.7358 77.3732C34.5465 78.0287 32.4982 79.3068 31.6393 78.0942ZM36.5617 76.5866C36.4295 75.9311 36.1322 75.4067 35.7358 74.9807C36.0331 74.6529 36.2974 74.2924 36.4625 73.8336C36.925 73.7025 37.3545 73.4731 37.6849 72.9815C37.784 72.8176 37.8831 72.6537 37.9822 72.4899C37.9492 73.8008 37.817 75.1446 37.6849 76.4555C37.3215 76.5866 36.9581 76.7505 36.6277 76.8816C36.5947 76.816 36.5947 76.7177 36.5617 76.5866ZM36.859 78.848C36.7599 78.5203 36.7269 78.127 36.6938 77.7665C36.9911 77.6354 37.2885 77.5371 37.5858 77.4387C37.5197 77.9631 37.4536 78.5203 37.4206 79.0447C37.1233 79.0447 36.9251 78.9791 36.859 78.848Z" fill="black"/>
</svg>
